<svg width="250" height="250" viewBox="0 0 250 250" fill="none" xmlns="http://www.w3.org/2000/svg">
<path fill-rule="evenodd" clip-rule="evenodd" d="M182.557 154.288C178.921 155.71 174.715 157.844 174.325 161.728C179.264 157.928 185.365 155.661 191.586 155.313C187.288 160.728 181.861 165.243 175.754 168.483C170.269 171.394 163.325 174.498 162.855 180.689C168.745 173.675 177.801 169.429 186.96 169.386C181.101 177.969 171.705 184.056 161.477 185.896C161.828 188.534 173.168 194.182 176.471 195.269C178.823 205.375 179.842 218.481 182.195 228.586C182.773 231.073 183.283 233.931 181.76 235.98C180.25 238.013 177.397 238.363 174.87 238.543C164.912 239.251 151.288 239.958 141.33 240.666C140.137 235.265 138.945 229.863 137.753 224.462C120.956 226.022 48.9472 242.523 35.7324 233.866C-15.2806 200.448 49.7699 189.064 51.1679 148.378C51.4884 139.049 23.4396 122.742 23.885 113.209C24.1758 106.985 25.1394 100.904 28.2191 95.5592C31.2988 90.2144 36.1789 86.0972 41.4829 82.9478C34.1805 81.0708 28.6493 73.7915 28.7972 66.2532C28.9452 58.7149 34.7579 51.6583 42.1284 50.0693C38.6533 45.9283 33.1815 44.0302 29.1847 40.3903C24.5287 36.1499 22.189 29.3099 23.885 23.245C25.581 17.1802 31.5524 12.4085 37.8442 12.6773C43.0123 12.8982 47.5604 16.1669 51.1679 19.8743C56.7627 25.6239 60.9237 32.7584 63.1733 40.459C64.6728 45.5918 70.1681 48.203 74.809 50.8592C79.4498 53.5155 84.2693 58.1424 82.9617 63.3273C81.2331 56.2323 106.926 64.6833 130.227 66.7521C133.321 67.0268 136.65 67.4267 138.937 69.5282C142.224 72.5483 147.158 73.6498 151.417 72.3141C152.772 75.6732 153.769 79.4462 152.617 82.8801C151.465 86.3141 147.385 88.9351 144.124 87.3598C144.975 91.7397 145.827 96.1195 146.678 100.499C155.017 100.6 163.354 100.77 171.69 101.01C176.108 101.137 180.726 101.338 184.566 103.527C188.406 105.716 193.545 102.615 197.339 94.6482C194.884 107.648 197.793 112.843 202.81 114.255C202.821 114.156 203.211 114.203 203.222 114.105C204.716 101.259 213.433 89.8521 225.565 85.3397C224.492 87.8119 216.816 92.6949 211.486 98.9304C206.279 105.021 203.787 113.176 203.529 114.64C211.796 112.472 214.552 118.632 228.578 113.209C222.169 120.915 209.818 122.812 201.392 117.385C197.416 121.819 197.639 126.729 194.822 131.976C199.606 126.03 205.959 131.301 200.919 135.155C203.594 135.412 206.486 135.764 208.426 137.623C210.366 139.482 210.414 143.395 207.912 144.373C199.46 147.678 191.008 150.983 182.557 154.288Z" fill="#23583A"/>
<path fill-rule="evenodd" clip-rule="evenodd" d="M168.837 124.99C169.143 124.408 169.476 123.798 170.039 123.459C170.602 123.12 171.465 123.19 171.769 123.774C172.091 124.394 171.611 125.142 171.048 125.556C170.484 125.971 169.791 126.262 169.425 126.858C171.404 128.162 173.383 129.467 175.362 130.771C176.912 131.792 178.666 133.251 178.348 135.08C178.162 136.152 177.254 136.986 176.241 137.386C175.229 137.786 174.116 137.828 173.028 137.859C165.716 138.07 158.398 138.032 151.088 137.748C150.581 137.728 150.016 137.681 149.678 137.302C149.416 137.009 149.362 136.59 149.32 136.199C148.899 132.309 148.478 128.418 148.058 124.528C148.042 124.384 148.027 124.234 148.079 124.099C148.295 123.531 149.145 123.881 149.62 124.26C152.985 126.946 158.364 126.63 161.392 123.57C162.123 122.83 163.369 122.926 164.308 123.372C165.248 123.818 166.035 124.543 166.977 124.982C166.877 124.437 167.357 123.862 167.912 123.864C168.466 123.867 168.942 124.446 168.837 124.99" fill="white"/>
<path fill-rule="evenodd" clip-rule="evenodd" d="M51.0921 82.0516C51.0921 82.0516 50.2754 72.2683 52.3312 69.1234C54.3871 65.9784 62.2182 65.0316 62.2182 65.0316C62.2182 65.0316 83.6819 64.7511 95.2787 65.1944C106.875 65.6376 130.069 67.6252 130.069 67.6252C130.069 67.6252 133.082 68.2825 134.437 69.1234C135.792 69.9642 137.681 72.3501 137.681 72.3501C137.681 72.3501 141.793 72.9496 143.839 73.0311C145.884 73.1126 147.759 72.7517 147.759 72.7517C147.759 72.7517 150.365 80.3545 148.522 83.9783C146.679 87.602 140.492 87.0401 140.492 87.0401L142.682 100.602C142.682 100.602 140.078 101.833 138.655 103.376C137.231 104.919 136.66 107.132 136.66 107.132L140.89 148.378C140.89 148.378 142.134 150.522 144.807 151.337C147.48 152.151 153.503 152.22 153.503 152.22C153.503 152.22 153.288 156.379 153.503 158.169C153.717 159.959 153.909 160.939 153.909 160.939L158.443 193.399C158.443 193.399 154.036 194.2 149.675 195.258C145.315 196.316 136.66 198.683 136.66 198.683C136.66 198.683 133.609 200.074 133.214 202.32C132.819 204.566 134.437 211.315 134.437 211.315L85.8511 215.019C85.8511 215.019 81.123 215.108 79.4968 214.083C77.8705 213.058 77.4248 209.709 77.4248 209.709L70.8531 150.602C70.8531 150.602 60.3516 150.859 57.2845 149.108C54.2174 147.357 53.8465 140.892 53.8465 140.892C53.8465 140.892 54.356 137.228 53.8465 134.685C53.6764 133.837 51.4553 124.639 50.7092 115.887C50.287 110.935 56.1143 107.132 56.1143 107.132L51.0921 82.0516Z" fill="white"/>
<path fill-rule="evenodd" clip-rule="evenodd" d="M85.3752 68.4447C84.9973 68.9772 85.3136 69.7718 85.8596 70.1301C86.4055 70.4883 87.0934 70.5287 87.7458 70.5581C94.8337 70.877 101.922 71.196 109.009 71.515C109.7 71.5461 110.465 71.5529 110.988 71.1011C111.511 70.6493 111.442 69.5718 110.76 69.4632C102.878 68.2101 94.88 67.6896 86.9025 67.9108C86.3424 67.9264 85.6995 67.9877 85.3752 68.4447" fill="#E7EAEE"/>
<path fill-rule="evenodd" clip-rule="evenodd" d="M116.91 119.247L115.068 110.603C115.068 110.603 114.982 112.386 114.007 113.111C113.032 113.836 111.104 113.551 111.104 113.551C111.104 113.551 110.799 107.515 112.156 105.677C113.513 103.839 114.85 105.575 117.428 104.987C120.004 104.399 119.47 102.464 122.463 103.326C125.456 104.188 127.667 110.593 127.667 110.593C127.667 110.593 125.321 111.379 124.322 111.178C123.324 110.976 123.567 109.765 123.567 109.765C123.567 109.765 122.859 109.464 123.04 111.587C123.127 112.619 123.908 114.17 124.322 116.2C124.476 116.956 124.322 118.654 124.322 118.654C124.322 118.654 121.659 118.926 119.358 119.418C117.056 119.911 116.91 119.247 116.91 119.247Z" fill="#E7EAEE"/>
<path fill-rule="evenodd" clip-rule="evenodd" d="M51.5185 97.7458C50.632 97.2685 49.9112 96.5404 49.2046 95.8232C47.382 93.9732 45.5366 92.0932 44.272 89.8249C44.1516 89.6089 44.0332 89.3609 44.1027 89.1236C44.1721 88.8863 44.5344 88.7515 44.6699 88.9584C46.8681 92.3141 49.6439 95.2904 52.8386 97.7167C52.5514 98.103 51.9423 97.974 51.5185 97.7458V97.7458Z" fill="#00160A"/>
<path fill-rule="evenodd" clip-rule="evenodd" d="M54.174 55.273C54.6977 54.7335 54.977 54.0076 55.2181 53.2954C55.97 51.0747 56.4825 48.7729 56.7436 46.443C56.7906 46.0233 56.8676 45.54 57.2318 45.3262C57.6413 47.324 57.1341 49.3829 56.6297 51.3589C56.1864 53.0961 55.6954 54.9202 54.4379 56.1981C54.3106 56.3274 54.1481 56.4591 53.9692 56.4292C53.728 56.3889 53.6314 56.0683 53.7175 55.8394C53.8036 55.6106 54.0037 55.4484 54.174 55.273L54.174 55.273Z" fill="#00160A"/>
<path fill-rule="evenodd" clip-rule="evenodd" d="M180.574 72.6987C180.823 72.6321 181.077 72.8286 181.185 73.0626C181.294 73.2965 181.302 73.5625 181.35 73.8159C181.539 74.8061 182.432 75.6187 183.436 75.714C183.561 76.0049 183.284 76.296 183.065 76.5249C182.567 77.0458 182.253 77.739 182.189 78.4568C182.147 78.9225 182.049 79.5708 181.582 79.5647C181.206 79.5598 181.041 79.1052 180.906 78.7547C180.575 77.8983 179.829 77.2134 178.948 76.9567C178.763 76.9028 178.685 76.6663 178.736 76.4804C178.787 76.2946 178.928 76.1493 179.062 76.0112C179.642 75.4171 180.229 74.7138 180.223 73.8841C180.22 73.4354 180.14 72.8145 180.574 72.6987Z" fill="#FFB61D"/>
<path fill-rule="evenodd" clip-rule="evenodd" d="M198.127 150.633C197.349 151.432 197.074 152.683 197.444 153.735C197.034 153.918 196.728 153.353 196.525 152.953C196.221 152.352 195.645 151.894 194.991 151.733C195.939 151.136 196.528 150.011 196.481 148.892C196.862 148.643 197.288 149.161 197.398 149.602C197.507 150.044 197.672 150.618 198.127 150.633Z" fill="#E7EAEE"/>
<path fill-rule="evenodd" clip-rule="evenodd" d="M191.49 152.132C191.941 152.847 192.583 153.442 193.33 153.837C193.599 153.979 193.355 154.375 193.133 154.582C192.574 155.105 192.221 155.841 192.162 156.604C191.673 156.114 191.184 155.624 190.695 155.134C190.5 154.938 190.294 154.635 190.462 154.416C190.975 153.748 191.33 152.959 191.49 152.132Z" fill="#E7EAEE"/>
<path fill-rule="evenodd" clip-rule="evenodd" d="M158.841 65.9807C159.286 63.1479 160.361 60.3641 162.25 58.2067C164.139 56.0494 166.897 54.5768 169.764 54.5791C172.631 54.5814 175.527 56.2054 176.719 58.8135C177.335 60.1629 177.487 61.6821 177.445 63.1652C177.365 65.9858 176.607 68.7849 175.254 71.2606C174.033 73.4931 172.278 75.5012 169.999 76.6337C167.721 77.7662 164.881 77.9184 162.666 76.6664C160.912 75.675 159.685 73.8956 159.1 71.9677C158.516 70.0397 158.529 67.9709 158.841 65.9807M176.367 63.8371C176.419 62.0807 176.129 60.2671 175.205 58.7723C174.644 57.8635 173.857 57.0949 172.936 56.5545C169.964 54.8117 165.92 55.7479 163.451 58.1512C160.983 60.5545 159.913 64.1064 159.803 67.5496C159.744 69.3863 159.942 71.2696 160.723 72.933C161.503 74.5965 162.932 76.0192 164.712 76.4762C167.041 77.0743 169.498 75.9483 171.325 74.3841C174.371 71.7742 176.249 67.8471 176.367 63.8371V63.8371Z" fill="#FFB61D"/>
<path fill-rule="evenodd" clip-rule="evenodd" d="M188.184 64.0134C187.71 64.6333 187.214 65.4476 187.578 66.138C187.708 66.385 187.371 66.6725 187.103 66.5945C186.835 66.5166 186.682 66.2333 186.611 65.9634C186.54 65.6935 186.516 65.4039 186.373 65.1642C186.23 64.9246 185.905 64.758 185.668 64.9057C185.331 64.8657 185.296 64.3576 185.492 64.0803C185.688 63.803 186.01 63.6124 186.13 63.2949C186.226 63.0435 186.175 62.7614 186.22 62.4964C186.265 62.2313 186.491 61.9483 186.751 62.016C186.742 62.4818 186.796 62.9652 187.032 63.3668C187.269 63.7683 187.721 64.0687 188.184 64.0134Z" fill="#FFB61D"/>
<path fill-rule="evenodd" clip-rule="evenodd" d="M145.768 63.0957C146.139 62.6647 146.604 62.2958 147.151 62.1388C147.697 61.9818 148.331 62.0645 148.758 62.4403C149.222 62.849 149.368 63.5321 149.269 64.1427C149.17 64.7533 148.862 65.3082 148.538 65.8351C148.118 66.5188 147.661 67.1803 147.171 67.8159C147.018 68.0144 146.85 68.2192 146.615 68.3076C146.305 68.4244 145.96 68.3107 145.654 68.183C144.581 67.7343 143.583 67.1048 142.716 66.3291C141.922 65.6187 141.189 64.5776 141.511 63.5619C141.716 62.9147 142.342 62.4467 143.014 62.3467C143.685 62.2468 144.381 62.4834 144.915 62.9026C145.17 63.1032 145.556 63.3419 145.768 63.0957M142.377 63.4716C141.87 64.1691 142.42 65.1462 143.059 65.7253C143.856 66.4479 144.802 66.9818 145.74 67.5094C145.86 67.5772 145.995 67.6474 146.13 67.6182C146.251 67.5922 146.34 67.4935 146.419 67.3994C147.054 66.6468 147.623 65.8384 148.117 64.9865C148.497 64.3312 148.776 63.3684 148.164 62.9223C147.68 62.5694 146.974 62.8538 146.563 63.2902C146.152 63.7267 145.894 64.2967 145.445 64.6938C145.095 64.1415 144.722 63.5676 144.154 63.2434C143.585 62.9192 142.761 62.9424 142.377 63.4716H142.377Z" fill="#FFB61D"/>
<path fill-rule="evenodd" clip-rule="evenodd" d="M138.507 44.0338C139.669 43.1276 140.961 42.3884 142.332 41.8457C143.172 41.5131 144.13 41.257 144.961 41.6133C146.291 42.1841 146.55 44.0946 145.85 45.3618C145.15 46.629 143.823 47.3972 142.559 48.1032C140.08 49.4876 137.601 50.872 135.123 52.2565C135.611 51.2823 135.06 50.1387 134.609 49.1468C133.594 46.9128 133.062 44.4601 133.062 42.006C133.061 41.2308 133.119 40.4322 133.459 39.7355C133.8 39.0389 134.478 38.4611 135.253 38.4429C136.493 38.4137 137.318 39.7052 137.736 40.8731C138.103 41.8958 138.361 42.9572 138.507 44.0338M143.76 42.2577C141.755 42.6649 139.887 43.7196 138.503 45.2257C138.367 45.374 138.102 45.3087 137.978 45.1503C137.853 44.9919 137.829 44.7795 137.806 44.5794C137.649 43.2545 137.303 41.9521 136.78 40.7247C136.488 40.0405 136 39.2849 135.257 39.2728C134.706 39.2639 134.226 39.7053 134.023 40.2176C133.82 40.73 133.837 41.3004 133.876 41.8502C134.093 44.9168 134.9 47.9405 136.239 50.7077C138.432 49.479 140.624 48.2503 142.817 47.0215C143.501 46.6381 144.198 46.2453 144.73 45.669C145.261 45.0928 145.611 44.292 145.457 43.5232C145.302 42.7543 144.528 42.1015 143.76 42.2577Z" fill="#FFB61D"/>
<path fill-rule="evenodd" clip-rule="evenodd" d="M123.165 195.922C129.564 195.193 136.005 194.826 142.447 194.823C143.628 194.823 144.656 193.905 145.136 192.825C145.616 191.745 145.655 190.528 145.655 189.346C145.658 184.956 145.245 180.577 144.832 176.207C144.665 174.434 144.498 172.662 144.331 170.889C144.229 169.814 144.121 168.714 143.669 167.734C142.883 166.032 141.142 164.925 139.329 164.448C137.516 163.972 135.611 164.037 133.737 164.105C127.517 164.333 121.297 164.561 115.077 164.789C118.663 163.474 122.568 163.412 126.387 163.365C129.314 163.33 132.242 163.294 135.17 163.258C138.162 163.222 141.581 163.372 143.49 165.677C144.724 167.166 144.996 169.204 145.202 171.127C145.851 177.179 146.326 183.251 146.627 189.331C146.727 191.346 146.647 193.714 145.006 194.888C144.088 195.544 142.898 195.643 141.772 195.719C134.918 196.183 128.063 196.647 121.208 197.112C119.599 197.221 117.903 197.314 116.455 196.603C115.952 196.355 115.435 195.797 115.705 195.306C117.934 196.519 120.644 196.209 123.165 195.922V195.922Z" fill="#00160A"/>
<path fill-rule="evenodd" clip-rule="evenodd" d="M96.055 98.8278C96.1834 99.0196 96.2126 99.2589 96.2384 99.4882C96.2984 100.022 96.3584 100.557 96.4184 101.091C96.4895 101.725 96.5042 102.491 95.9788 102.853C95.6987 103.046 95.3374 103.061 94.9975 103.071C87.8472 103.264 80.6968 103.457 73.5464 103.65C73.0864 103.663 72.554 103.643 72.272 103.279C72.095 103.051 72.0678 102.744 72.0512 102.456C71.9991 101.55 71.9846 100.642 72.0077 99.7349C72.0112 99.5968 72.0193 99.4482 72.105 99.3399C72.2078 99.21 72.3886 99.1782 72.5528 99.156C79.941 98.1552 87.4287 97.8909 94.869 98.3684C95.3083 98.3966 95.8102 98.4619 96.055 98.8278M95.7612 102.303C95.0351 101.911 95.7667 100.761 95.5027 99.9787C95.2758 99.3069 94.4137 99.148 93.7058 99.1077C86.9637 98.7238 80.1863 98.9633 73.4881 99.822C73.2414 99.8536 72.9678 99.9011 72.818 100.1C72.6699 100.296 72.6967 100.568 72.7304 100.812C72.7825 101.188 72.8347 101.565 72.8869 101.942C72.928 102.239 72.9907 102.572 73.2401 102.738C73.421 102.859 73.6539 102.857 73.8712 102.852C81.1679 102.669 88.4645 102.486 95.7612 102.303Z" fill="#00160A"/>
<path fill-rule="evenodd" clip-rule="evenodd" d="M109.506 111.487C109.54 110.694 109.574 109.9 109.608 109.106C109.674 107.559 109.755 105.953 110.475 104.582C111.194 103.21 112.746 102.144 114.254 102.5C115.197 102.723 116.066 103.464 117.014 103.265C117.84 103.092 118.347 102.276 119.044 101.801C120.707 100.67 123.025 101.721 124.4 103.188C125.882 104.77 126.846 106.83 127.11 108.982C127.132 109.165 127.143 109.37 127.026 109.511C126.928 109.628 126.769 109.669 126.62 109.703C126.048 109.834 125.475 109.965 124.903 110.096C124.416 110.208 123.91 110.32 123.42 110.219C122.93 110.117 122.46 109.74 122.421 109.241C122.274 112.027 124.361 114.689 123.779 117.417C123.563 117.299 123.347 117.181 123.131 117.063C123.641 114.327 121.202 111.678 121.712 108.941C121.779 108.579 121.924 108.194 122.248 108.018C122.572 107.842 123.084 108.042 123.071 108.41C123.051 109 123.687 109.44 124.277 109.435C124.868 109.43 125.404 109.114 125.908 108.807C126.088 108.698 126.039 108.428 125.964 108.231C125.406 106.768 124.673 105.371 123.784 104.081C123.184 103.209 122.46 102.347 121.463 101.993C120.465 101.638 119.147 102 118.78 102.993C118.35 104.155 116.725 104.233 115.532 103.898C114.339 103.563 113 103.04 111.936 103.674C111.046 104.205 110.748 105.336 110.581 106.358C110.295 108.113 110.163 109.893 110.187 111.67C110.235 111.942 110.581 112.029 110.856 112.022C112.308 111.984 113.655 110.84 113.927 109.414C114.318 109.863 114.458 110.473 114.584 111.055C115.022 113.072 115.46 115.089 115.898 117.106C116.033 117.727 115.876 118.681 115.25 118.568C114.967 116.368 114.547 114.186 113.995 112.038C112.949 112.276 111.904 112.513 110.859 112.751C110.538 112.824 110.179 112.891 109.899 112.72C109.512 112.483 109.486 111.941 109.506 111.487Z" fill="#00160A"/>
<path fill-rule="evenodd" clip-rule="evenodd" d="M140.083 166.267C140.616 166.845 139.787 167.912 140.276 168.528C140.53 168.848 140.349 169.355 140.013 169.587C139.677 169.819 139.247 169.85 138.84 169.874C131.837 170.281 124.835 170.687 117.833 171.094C117.357 171.122 116.788 171.106 116.528 170.706C116.414 170.532 116.387 170.317 116.362 170.11C116.298 169.572 116.234 169.034 116.17 168.496C116.15 168.327 116.132 168.146 116.212 167.995C116.343 167.747 116.668 167.694 116.947 167.669C124.307 167.019 131.674 166.47 139.049 166.022C139.415 166 139.834 165.997 140.083 166.267M139.279 167.176C139.257 167.043 139.227 166.898 139.12 166.815C139.015 166.732 138.867 166.738 138.733 166.748C132.203 167.224 125.674 167.7 119.145 168.176C118.617 168.214 118.07 168.259 117.609 168.518C117.148 168.778 116.8 169.32 116.939 169.831C116.981 169.989 117.073 170.139 117.213 170.224C117.385 170.329 117.599 170.321 117.8 170.31C124.694 169.936 131.587 169.562 138.481 169.188C139.3 169.144 139.418 167.985 139.279 167.176Z" fill="#00160A"/>
<path fill-rule="evenodd" clip-rule="evenodd" d="M145.607 159.997C146.846 163.258 147.242 166.769 147.627 170.237C148.521 178.293 149.416 186.35 150.31 194.406C149.645 194.46 149.338 193.606 149.255 192.943C147.9 182.104 147.464 171.124 145.172 160.443C145.317 160.295 145.462 160.146 145.607 159.997Z" fill="#00160A"/>
<path fill-rule="evenodd" clip-rule="evenodd" d="M105.627 103.879C105.434 103.797 105.438 103.496 105.586 103.347C105.734 103.199 105.958 103.163 106.166 103.136C107.723 102.938 109.293 102.842 110.862 102.848C110.779 103.518 109.914 103.713 109.24 103.744C108.108 103.797 106.975 103.849 105.842 103.901C105.77 103.905 105.694 103.908 105.627 103.879L105.627 103.879Z" fill="#00160A"/>
<path fill-rule="evenodd" clip-rule="evenodd" d="M114.412 185.807C114.282 183.409 114.153 181.011 114.024 178.614C113.676 172.16 113.317 165.64 111.52 159.431C111.291 158.638 111.029 157.834 110.521 157.184C109.248 155.556 106.894 155.369 104.828 155.369C96.8633 155.369 88.8989 156.127 81.077 157.628C80.2822 157.78 79.4559 157.955 78.8217 158.458C77.8139 159.257 77.5483 160.661 77.4547 161.944C77.2838 164.285 77.453 166.652 77.9553 168.945C77.6678 168.897 77.3804 168.849 77.0929 168.801C76.0389 166.606 75.5588 164.138 75.7127 161.708C75.7796 160.653 75.9737 159.578 76.5174 158.671C77.8699 156.416 80.847 155.875 83.462 155.595C90.097 154.884 96.7567 154.405 103.425 154.16C106.109 154.061 109.142 154.136 110.984 156.091C111.911 157.074 112.38 158.396 112.748 159.695C114.028 164.211 114.381 168.929 114.728 173.61C115.066 178.183 115.405 182.757 115.744 187.33C115.823 188.405 115.902 189.496 115.685 190.552C114.976 193.992 111.313 196.084 107.825 196.5C104.338 196.916 100.827 196.119 97.3157 196.061C92.5934 195.982 87.8431 197.238 83.1858 196.453C81.8444 196.227 80.418 195.752 79.6806 194.609C79.1691 193.816 79.0768 192.833 78.9985 191.893C78.4462 185.26 77.8938 178.626 77.3415 171.993C77.3045 171.549 77.6348 170.887 77.976 171.174C78.585 177.563 79.194 183.952 79.803 190.341C79.8854 191.206 79.975 192.096 80.377 192.866C80.9607 193.985 82.1382 194.696 83.3591 195.012C84.58 195.329 85.8598 195.303 87.1209 195.286C92.4567 195.217 97.7951 195.35 103.121 195.685C104.902 195.797 106.702 195.93 108.461 195.632C110.221 195.333 111.966 194.549 113.059 193.137C114.614 191.127 114.549 188.345 114.412 185.807V185.807Z" fill="#00160A"/>
<path fill-rule="evenodd" clip-rule="evenodd" d="M105.357 101.286C105.854 100.898 105.436 100.105 105.534 99.4824C105.673 98.6022 106.768 98.2999 107.653 98.1976C113.338 97.5406 119.064 97.2299 124.786 97.2677C125.263 97.2709 125.826 97.324 126.065 97.7354C126.353 98.2294 126.085 99.0916 126.63 99.2646C126.886 99.3458 127.214 99.1955 127.408 99.3812C127.729 99.6882 127.131 100.103 126.689 100.143C119.992 100.744 113.28 101.184 106.562 101.462C106.151 101.479 105.715 101.489 105.357 101.286M125.363 98.5122C125.206 98.1189 124.683 98.0612 124.26 98.0677C118.864 98.1498 113.471 98.4165 108.094 98.8672C107.463 98.92 106.719 99.0515 106.456 99.6269C106.33 99.9542 106.571 100.331 106.889 100.479C107.206 100.628 107.574 100.608 107.924 100.586C113.295 100.245 118.667 99.9047 124.039 99.564C124.369 99.543 124.714 99.5179 124.999 99.349C125.284 99.1802 125.485 98.82 125.363 98.5122Z" fill="#00160A"/>
<path fill-rule="evenodd" clip-rule="evenodd" d="M132.603 177.338C133.431 177.996 133.077 179.438 133.798 180.213C134.133 180.573 134.635 180.714 135.107 180.852C135.41 180.941 135.786 181.164 135.689 181.465C135.59 181.773 135.141 181.723 134.84 181.605C133.855 181.22 132.745 180.578 132.691 179.522C132.651 178.752 132.422 177.991 132.029 177.327C132.14 177.14 132.433 177.203 132.603 177.338V177.338Z" fill="#00160A"/>
<path fill-rule="evenodd" clip-rule="evenodd" d="M136.522 188.257C136.252 184.783 135.982 181.308 135.712 177.833C135.672 177.322 135.627 176.792 135.374 176.347C135.121 175.901 134.597 175.566 134.103 175.699C131.864 176.299 129.54 176.577 127.223 176.523C125.197 176.475 123.124 176.179 121.175 176.733C121.211 177.699 121.247 178.664 121.283 179.629C121.294 179.911 121.31 180.21 121.47 180.442C121.92 181.092 123.036 180.596 123.289 179.847C123.543 179.099 123.314 178.279 123.357 177.49C123.365 177.35 123.393 177.191 123.512 177.117C123.765 176.96 124.008 177.335 124.073 177.626C124.258 178.459 124.444 179.33 124.225 180.155C124.005 180.98 123.24 181.727 122.394 181.618C121.517 181.505 121.158 182.703 121.137 183.587C121.095 185.351 121.052 187.115 121.01 188.879C120.997 189.434 121.197 190.201 121.748 190.138C123.173 189.977 124.597 189.815 126.022 189.654C126.366 189.615 126.737 189.581 127.039 189.749C127.342 189.917 127.502 190.376 127.254 190.618C125.581 190.764 123.908 190.911 122.235 191.058C121.746 191.1 121.239 191.141 120.778 190.973C120.317 190.806 119.915 190.367 119.957 189.879C120.369 185.08 120.461 180.254 120.233 175.443C120.184 174.42 121.431 173.9 122.438 173.712C125.634 173.112 128.894 172.852 132.145 172.938C133.235 172.966 134.423 173.074 135.213 173.825C136.018 174.59 136.176 175.795 136.287 176.899C136.703 181.039 137.119 185.178 137.535 189.317C137.557 189.541 137.562 189.806 137.384 189.942C137.277 190.023 137.134 190.032 137.001 190.037C135.613 190.095 134.226 190.153 132.838 190.21C132.103 190.241 131.312 190.257 130.7 189.848C130.28 189.568 130.003 189.123 129.759 188.682C129.174 187.622 128.707 186.497 128.368 185.335C127.837 186.664 127.501 188.07 127.374 189.495C126.704 189.567 126.579 188.561 126.735 187.905C127.057 186.551 127.378 185.197 127.7 183.843C127.749 183.637 127.827 183.398 128.029 183.335C128.326 183.241 128.555 183.597 128.663 183.889C129.117 185.107 129.57 186.325 130.023 187.542C130.413 188.59 131.538 189.22 132.648 189.349C133.759 189.478 134.872 189.199 135.956 188.922C136.17 188.867 136.413 188.788 136.497 188.583C136.538 188.481 136.53 188.367 136.522 188.257M121.427 175.534C122.432 175.547 123.437 175.56 124.441 175.573C125.196 175.583 125.951 175.593 126.706 175.579C129.431 175.527 132.15 175.162 134.791 174.492C134.202 173.887 133.257 173.853 132.413 173.868C129.391 173.922 126.371 174.098 123.364 174.395C122.559 174.474 121.558 174.736 121.427 175.534L121.427 175.534Z" fill="#00160A"/>
<path fill-rule="evenodd" clip-rule="evenodd" d="M116.929 172.932C116.872 172.618 117.279 172.446 117.595 172.397C121.24 171.832 124.934 171.583 128.622 171.652C128.675 171.653 128.729 171.654 128.778 171.675C128.951 171.747 128.943 172.019 128.806 172.147C128.668 172.275 128.466 172.296 128.279 172.31C124.767 172.574 121.204 172.438 117.763 173.189C117.444 173.259 116.988 173.254 116.929 172.932L116.929 172.932Z" fill="#00160A"/>
<path fill-rule="evenodd" clip-rule="evenodd" d="M198.448 165.384C198.649 164.91 198.871 164.408 199.299 164.12C199.659 163.876 200.111 163.822 200.543 163.775C201.827 163.636 203.11 163.497 204.393 163.357C205.028 163.288 205.847 163.021 205.823 162.383C205.745 160.323 205.905 157.95 207.541 156.696C209.039 155.549 211.281 155.864 212.817 156.958C214.353 158.052 215.326 159.756 216.166 161.445C216.537 162.193 217.555 162.33 218.378 162.185C219.201 162.041 220.035 161.718 220.847 161.915C222.096 162.218 222.728 163.583 223.157 164.795C225.313 170.878 226.776 177.22 229.456 183.091C230.459 185.287 230.142 188.027 228.664 189.935C228.481 188.42 228.735 186.854 229.387 185.474C229.695 184.824 228.672 184.396 227.953 184.398C220.624 184.417 213.264 184.438 206.017 185.525C205.796 185.558 205.56 185.599 205.395 185.75C205.235 185.897 205.172 186.12 205.117 186.33C204.892 187.184 204.668 188.037 204.443 188.891C204.302 189.426 204.39 190.256 204.941 190.2C212.113 189.474 219.325 189.127 226.534 189.163C227.292 189.166 228.327 189.467 228.229 190.219C220.549 190.31 212.841 190.402 205.244 191.533C204.034 191.713 203.199 190.215 203.336 189C203.473 187.784 204.17 186.694 204.366 185.487C204.536 184.447 204.324 183.386 204.096 182.356C203.734 180.72 203.329 179.094 202.882 177.479C202.446 175.902 201.97 174.338 201.494 172.773C200.774 170.407 200.054 168.04 199.335 165.673C198.345 167.123 197.904 168.938 198.118 170.68C198.267 171.893 198.717 173.045 199.054 174.22C199.536 175.899 199.788 177.634 200.04 179.363C200.535 182.769 201.031 186.174 201.526 189.58C201.599 190.081 201.455 190.819 200.954 190.745C198.727 183.855 199.339 176.237 196.71 169.489C197.289 168.121 197.869 166.753 198.448 165.384M215.037 166.635C215.763 166.231 216.139 165.288 215.89 164.496C215.641 163.703 214.794 163.145 213.967 163.229C211.941 163.434 209.914 163.639 207.888 163.845C207.701 163.864 207.492 163.895 207.379 164.045C207.291 164.164 207.289 164.325 207.297 164.473C207.351 165.399 207.673 166.308 208.213 167.062C208.632 167.648 209.213 168.349 208.885 168.991C208.476 169.793 207.13 169.344 206.796 168.507C206.463 167.671 206.7 166.727 206.638 165.829C206.576 164.93 205.93 163.896 205.042 164.045C203.586 164.291 202.129 164.536 200.673 164.781C200.463 164.816 200.191 164.945 200.252 165.148C202.025 171.019 203.799 176.889 205.572 182.76C205.793 183.491 206.292 184.397 207.036 184.223C213.867 182.628 221.07 184.136 228.006 183.088C225.928 176.573 223.778 170.081 221.557 163.613C221.491 163.422 221.417 163.219 221.254 163.1C221.074 162.968 220.831 162.972 220.608 162.981C219.568 163.026 218.527 163.07 217.487 163.114C217.075 163.131 216.514 163.327 216.604 163.729C216.887 164.99 217.17 166.25 217.452 167.511C217.501 167.728 217.549 167.96 217.468 168.167C217.248 168.73 216.418 168.588 215.865 168.344C215.502 168.184 215.12 168.009 214.895 167.682C214.671 167.355 214.69 166.827 215.037 166.635M212.355 157.49C211.558 156.904 210.508 156.482 209.587 156.845C209.266 156.971 208.988 157.183 208.714 157.393C208.226 157.767 207.723 158.157 207.435 158.7C207.168 159.205 207.113 159.792 207.063 160.362C207.019 160.859 206.975 161.357 206.931 161.855C206.904 162.163 206.893 162.518 207.117 162.732C207.332 162.938 207.669 162.923 207.964 162.895C210.084 162.693 212.203 162.492 214.323 162.29C214.625 162.261 214.994 162.179 215.073 161.886C215.105 161.771 215.079 161.648 215.051 161.532C214.661 159.926 213.688 158.467 212.355 157.49M211.562 162.755C211.348 162.815 211.585 163.215 211.741 163.057C211.939 162.976 211.719 162.603 211.552 162.737L211.562 162.755Z" fill="#FFB61D"/>
<path fill-rule="evenodd" clip-rule="evenodd" d="M144.365 115.11C144.328 114.986 144.402 114.856 144.489 114.76C144.916 114.29 145.631 114.255 146.266 114.253C150.117 114.245 153.968 114.236 157.819 114.227C158.09 114.226 158.381 114.231 158.602 114.388C158.823 114.545 158.91 114.914 158.697 115.082C158.584 115.171 158.428 115.177 158.284 115.179C153.81 115.228 149.336 115.278 144.862 115.328C144.667 115.33 144.421 115.297 144.365 115.11Z" fill="#00160A"/>
<path fill-rule="evenodd" clip-rule="evenodd" d="M145.793 119.086C145.561 118.952 145.593 118.578 145.788 118.395C145.983 118.212 146.267 118.169 146.533 118.137C148.127 117.945 149.73 117.839 151.333 117.733C152.215 117.675 153.098 117.617 153.981 117.559C155.128 117.483 156.276 117.408 157.424 117.332C157.788 117.308 158.195 117.298 158.47 117.539C158.744 117.78 158.677 118.36 158.313 118.382C154.262 118.633 150.212 118.884 146.161 119.135C146.036 119.143 145.902 119.149 145.793 119.086L145.793 119.086Z" fill="#00160A"/>
<path fill-rule="evenodd" clip-rule="evenodd" d="M167.504 124.323C167.81 123.741 168.143 123.131 168.706 122.792C169.269 122.453 170.132 122.523 170.436 123.107C170.758 123.727 170.278 124.475 169.715 124.889C169.151 125.304 168.458 125.596 168.092 126.191C170.071 127.496 172.05 128.8 174.029 130.104C175.579 131.125 177.333 132.584 177.015 134.413C176.829 135.485 175.921 136.319 174.908 136.719C173.896 137.119 172.783 137.161 171.695 137.192C164.383 137.403 157.065 137.365 149.755 137.081C149.248 137.061 148.683 137.014 148.345 136.635C148.083 136.342 148.029 135.923 147.987 135.532C147.566 131.642 147.145 127.751 146.725 123.861C146.709 123.717 146.694 123.567 146.746 123.432C146.962 122.864 147.812 123.214 148.287 123.593C151.652 126.279 157.031 125.963 160.059 122.903C160.79 122.163 162.036 122.259 162.975 122.705C163.915 123.151 164.702 123.876 165.644 124.315C165.544 123.77 166.024 123.195 166.579 123.197C167.133 123.2 167.609 123.779 167.504 124.323M167.918 126.829C167.678 125.946 166.373 125.761 165.653 126.326C164.933 126.891 164.7 127.875 164.638 128.788C164.614 129.129 164.054 129.163 163.863 128.881C163.671 128.598 163.748 128.218 163.855 127.894C164.136 127.038 164.569 126.232 165.127 125.525C165.404 125.176 164.998 124.702 164.634 124.446C163.346 123.541 161.523 122.648 160.342 123.688C157.106 126.538 151.945 126.918 148.326 124.572C148.369 127.492 148.585 130.41 148.97 133.305C149.009 133.597 149.059 133.908 149.26 134.123C149.527 134.406 149.964 134.426 150.353 134.427C156.639 134.435 162.924 134.443 169.21 134.451C169.822 134.451 170.653 134.233 170.605 133.623C170.494 132.204 171.123 130.747 172.231 129.854C171.359 129.221 170.487 128.588 169.616 127.954C169.35 127.761 169.071 127.563 168.748 127.507C167.769 127.339 167.116 128.461 166.77 129.391C166.24 128.443 166.858 127.064 167.918 126.829M151.49 136.519C158.036 136.571 164.582 136.56 171.127 136.487C172.985 136.466 175.155 136.277 176.162 134.716C167.124 135.113 158.072 135.211 149.028 135.01C148.915 136.096 150.399 136.511 151.49 136.519M173.891 130.685C173.696 130.561 173.495 130.435 173.267 130.396C172.582 130.279 172.041 130.963 171.744 131.592C171.572 131.955 171.422 132.329 171.296 132.711C171.2 133.002 171.117 133.311 171.177 133.612C171.238 133.912 171.484 134.196 171.79 134.2C172.903 134.212 174.017 134.201 175.129 134.164C175.391 134.156 175.677 134.137 175.873 133.963C176.105 133.758 176.133 133.404 176.075 133.101C175.865 132.002 174.836 131.284 173.891 130.685M169.959 123.579C169.947 123.24 169.494 123.068 169.181 123.199C168.868 123.33 168.676 123.641 168.504 123.933C168.296 124.287 168.089 124.64 167.881 124.994C167.772 125.179 167.713 125.494 167.923 125.541C168.476 125.082 169.028 124.622 169.581 124.163C169.766 124.009 169.968 123.82 169.959 123.579M166.378 124.132C166.284 124.589 166.518 125.094 166.928 125.317C167.07 124.846 166.987 124.313 166.708 123.908C166.691 123.793 166.535 123.727 166.441 123.794C166.368 123.886 166.342 124.014 166.373 124.127L166.378 124.132Z" fill="#00160A"/>
<path fill-rule="evenodd" clip-rule="evenodd" d="M143.873 110.653C143.707 109.849 143.541 109.044 143.374 108.24C143.31 107.928 143.251 107.581 143.414 107.307C143.638 106.933 144.149 106.884 144.584 106.876C155.268 106.69 165.956 106.731 176.639 106.998C177.368 107.016 177.966 107.646 178.188 108.34C178.409 109.035 178.336 109.784 178.261 110.509C178.221 110.901 178.156 111.338 177.843 111.578C177.588 111.775 177.238 111.779 176.915 111.776C166.186 111.659 155.457 111.542 144.727 111.425C144.55 111.423 144.364 111.418 144.214 111.324C143.995 111.186 143.925 110.906 143.873 110.653M145.349 107.582C144.559 107.576 143.999 108.514 144.196 109.279C144.394 110.044 145.133 110.57 145.9 110.756C146.668 110.942 147.471 110.852 148.258 110.779C157.947 109.873 167.745 111.604 177.428 110.627C177.478 110.038 177.527 109.429 177.337 108.869C177.147 108.309 176.653 107.807 176.062 107.803C165.824 107.729 155.586 107.655 145.349 107.582Z" fill="#00160A"/>
<path fill-rule="evenodd" clip-rule="evenodd" d="M79.4496 133.947C79.092 134.625 78.5989 135.313 77.8596 135.515C76.4514 135.899 75.287 134.335 74.9027 132.927C74.3027 130.729 74.4545 128.333 75.327 126.228C75.7938 125.102 75.4047 123.77 74.6728 122.795C73.2926 120.957 70.7178 120.151 68.5054 120.777C66.293 121.402 64.5471 123.37 64.0843 125.623C64.0118 125.975 64.063 126.47 64.4195 126.52C66.1976 126.769 67.0139 128.856 67.2846 130.631C67.4913 131.986 67.5811 133.406 67.1214 134.698C66.6617 135.989 65.5366 137.124 64.1696 137.228C62.9429 136.402 62.0193 135.135 61.6073 133.715C60.8412 131.073 61.8365 128.273 62.8641 125.722C63.4912 124.165 64.1645 122.57 65.3558 121.388C67.9023 118.86 72.6576 119.16 74.8662 121.988C75.7157 123.076 76.2032 124.427 77.1447 125.436C77.8544 126.197 78.7926 126.73 79.4401 127.544C80.8462 129.313 80.5043 131.948 79.4496 133.947M62.3865 129.063C61.7417 130.84 61.9213 132.898 62.8642 134.536C63.0191 134.805 63.2033 135.073 63.474 135.225C63.7447 135.378 64.122 135.38 64.3361 135.155C64.9773 134.481 65.0575 133.461 65.0553 132.531C65.0528 131.43 64.985 130.33 64.8523 129.238C64.7979 128.791 64.7053 128.296 64.3437 128.028C63.9821 127.759 63.3033 127.984 63.3601 128.431C63.5253 129.731 63.6906 131.031 63.8558 132.331C63.8934 132.627 63.9265 132.947 63.7783 133.206C63.6301 133.464 63.2207 133.585 63.0331 133.353C62.5468 132.361 62.4002 131.206 62.6231 130.124C62.7032 129.735 62.7585 129.202 62.3865 129.063M77.2711 134.219C77.4354 134.091 77.5121 133.882 77.5734 133.683C78.0555 132.118 78.0606 130.409 77.588 128.841C77.4083 128.245 76.9214 127.547 76.3316 127.747C75.9908 127.862 75.818 128.236 75.7095 128.579C75.2164 130.138 75.282 131.867 75.8917 133.384C76.0086 133.675 76.1531 133.969 76.4006 134.161C76.6481 134.353 77.0241 134.412 77.2711 134.219M65.6981 128.593C66.1277 130.77 66.0364 133.049 65.4338 135.185C65.3783 135.381 65.6012 135.535 65.788 135.617C66.692 133.425 66.8064 130.916 66.1059 128.651C65.9898 128.568 65.8327 128.546 65.6981 128.593M78.2392 128.005C78.1057 128.218 77.9722 128.431 77.8386 128.645C78.2788 128.57 78.4802 129.171 78.5038 129.616C78.5583 130.647 78.6127 131.677 78.6672 132.708C79.0771 132.554 79.1514 132.016 79.159 131.578C79.1762 130.592 79.1934 129.606 79.2106 128.62C79.063 128.603 78.9153 128.586 78.7677 128.568C78.7525 128.289 78.517 128.038 78.2392 128.005Z" fill="#00160A"/>
<path fill-rule="evenodd" clip-rule="evenodd" d="M126.573 129.876C123.636 129.736 120.686 129.863 117.771 130.256C117.513 130.291 117.225 130.32 117.018 130.163C116.81 130.006 116.833 129.588 117.092 129.56C120.006 129.239 122.933 129.033 125.864 128.942C126.183 128.932 126.54 128.938 126.767 129.162C126.994 129.386 126.892 129.891 126.573 129.876V129.876Z" fill="#00160A"/>
<path fill-rule="evenodd" clip-rule="evenodd" d="M58.3395 118.146C59.1734 118.068 60.0072 117.99 60.8411 117.911C61.2612 117.872 61.6813 117.832 62.1013 117.793C64.7733 117.542 67.4453 117.291 70.1197 117.068C70.2247 117.059 70.3345 117.051 70.4318 117.091C70.7212 117.211 70.6767 117.679 70.4245 117.865C70.1723 118.051 69.8311 118.04 69.5179 118.03C65.5793 117.899 61.6541 119.083 57.7337 118.682C57.4789 118.656 57.1457 118.525 57.1906 118.273C57.5721 118.218 57.9559 118.182 58.3395 118.146Z" fill="#00160A"/>
<path fill-rule="evenodd" clip-rule="evenodd" d="M148.155 204.7C148.024 203.553 147.93 202.305 147.159 201.446C146.567 200.787 146.873 199.561 147.706 199.258C148.538 198.955 149.561 199.696 149.532 200.581C149.522 200.885 149.411 201.175 149.325 201.467C148.737 203.459 149.283 205.603 150.002 207.551C150.731 209.525 151.846 211.625 153.847 212.274C156.161 213.024 158.723 211.363 159.749 209.157C160.775 206.95 160.619 204.388 160.261 201.982C160.225 201.74 160.16 201.461 159.938 201.359C159.038 200.943 158.901 199.483 159.709 198.907C160.517 198.332 161.853 198.938 161.952 199.925C161.985 200.259 161.9 200.593 161.836 200.923C161.394 203.215 161.979 205.618 161.494 207.902C161.19 209.332 160.463 210.669 159.427 211.7C158.328 212.793 156.845 213.547 155.295 213.574C153.209 213.609 151.257 212.315 150.078 210.593C148.898 208.871 148.392 206.774 148.155 204.7Z" fill="#00160A"/>
<path fill-rule="evenodd" clip-rule="evenodd" d="M87.3041 110.528C87.3621 111.314 87.4175 112.123 87.1726 112.872C86.9278 113.621 86.3057 114.303 85.5208 114.371C81.4744 114.719 77.4275 115.067 73.3733 115.306C67.8452 115.634 62.3074 115.76 56.771 115.886C56.5735 115.89 56.3621 115.891 56.1972 115.782C55.9499 115.619 55.9036 115.281 55.8807 114.986C55.8209 114.212 55.761 113.438 55.7011 112.664C55.6829 112.428 55.6691 112.174 55.796 111.975C55.9817 111.683 56.3795 111.633 56.7247 111.613C66.9073 111.009 77.1043 110.648 87.3041 110.528M85.601 113.243C86.2515 113.2 86.3832 112.176 85.9062 111.731C85.4292 111.287 84.7048 111.277 84.0531 111.293C75.6729 111.501 67.2896 111.71 58.9261 112.279C58.3238 112.32 57.6972 112.37 57.1766 112.675C56.6559 112.981 56.28 113.623 56.4789 114.193C56.7615 115.003 57.8539 115.092 58.7096 115.035C67.6734 114.438 76.6372 113.84 85.601 113.243Z" fill="#00160A"/>
<path fill-rule="evenodd" clip-rule="evenodd" d="M76.8999 130.085C76.9079 130.298 76.9159 130.511 76.924 130.724C76.9407 131.167 76.9572 131.613 76.8932 132.052C76.3376 131.993 76.1653 131.278 76.1329 130.72C76.1175 130.455 76.1123 130.158 76.2901 129.961C76.4678 129.763 76.8898 129.82 76.8999 130.085L76.8999 130.085Z" fill="#00160A"/>
<path fill-rule="evenodd" clip-rule="evenodd" d="M116.911 131.899C117.456 131.396 118.285 131.412 119.027 131.433C121.373 131.499 123.726 131.318 126.035 130.893C126.307 130.843 126.453 131.266 126.284 131.485C126.114 131.703 125.808 131.749 125.533 131.777C122.931 132.042 120.318 132.198 117.704 132.247C117.392 132.253 116.997 132.199 116.911 131.899Z" fill="#00160A"/>
<path fill-rule="evenodd" clip-rule="evenodd" d="M204.504 140.696C204.246 141.566 203.392 142.104 202.576 142.503C198.496 144.498 193.7 144.987 189.301 143.855C187.824 143.475 186.141 142.595 186.078 141.071C186.031 139.951 186.926 139.012 187.873 138.411C189.326 137.49 191.02 137.025 192.708 136.697C195.966 136.064 199.498 135.933 202.447 137.455C203.682 138.093 204.898 139.362 204.504 140.696M187.085 140.902C187.087 142.133 188.461 142.853 189.651 143.166C193.786 144.25 198.309 143.782 202.135 141.874C202.749 141.568 203.397 141.164 203.592 140.506C203.853 139.623 203.169 138.733 202.41 138.211C200.124 136.641 197.1 136.855 194.343 137.151C192.124 137.388 189.759 137.699 188.067 139.154C187.544 139.604 187.083 140.212 187.085 140.902L187.085 140.902Z" fill="#00160A"/>
<path fill-rule="evenodd" clip-rule="evenodd" d="M84.4573 68.591C84.3182 67.7997 84.864 67.0133 85.5672 66.6246C86.2705 66.236 87.0994 66.161 87.9014 66.1138C95.0528 65.693 102.193 66.8415 109.347 67.2191C110.267 67.2677 111.238 67.3185 112.013 67.8187C112.787 68.319 113.242 69.4416 112.706 70.1919C112.447 70.5548 112.019 70.7564 111.593 70.8907C110.367 71.2782 109.051 71.2268 107.766 71.1715C101.078 70.884 94.3902 70.5965 87.7023 70.309C86.3745 70.2519 84.6875 69.9 84.4573 68.591M85.3752 67.4443C84.9973 67.9768 85.3136 68.7714 85.8596 69.1297C86.4055 69.4879 87.0934 69.5283 87.7458 69.5576C94.8337 69.8766 101.922 70.1956 109.009 70.5146C109.7 70.5456 110.465 70.5525 110.988 70.1007C111.511 69.6489 111.442 68.5713 110.76 68.4628C102.878 67.2097 94.88 66.6892 86.9025 66.9104C86.3424 66.926 85.6995 66.9873 85.3752 67.4443" fill="#00160A"/>
<path fill-rule="evenodd" clip-rule="evenodd" d="M162.879 61.7236C163.967 59.4568 165.731 57.1202 168.238 56.9269C169.908 56.7982 171.679 57.0903 173.001 58.1192C175.398 59.9852 175.565 63.6037 174.708 66.5182C173.699 69.9536 171.446 73.1353 168.213 74.676C167.442 75.0435 166.604 75.3182 165.751 75.2848C163.483 75.1958 161.832 72.968 161.343 70.7517C160.674 67.7142 161.533 64.5277 162.879 61.7236M165.698 74.4551C167.375 74.6833 168.954 73.6156 170.136 72.4059C172.353 70.1385 173.841 67.1699 174.331 64.0373C174.472 63.1346 174.531 62.1979 174.285 61.3178C173.802 59.5867 172.161 58.3357 170.4 57.9758C168.707 57.6296 166.846 58.0426 165.541 59.1755C164.914 59.72 164.426 60.4076 164.001 61.1211C162.613 63.4483 161.825 66.1564 161.921 68.8641C161.965 70.0874 162.197 71.3308 162.816 72.3866C163.435 73.4424 164.486 74.2899 165.698 74.4551V74.4551Z" fill="#FFB61D"/>
<path fill-rule="evenodd" clip-rule="evenodd" d="M107.908 157.93C108.131 157.918 108.37 157.91 108.559 158.03C108.792 158.177 108.877 158.47 108.944 158.738C109.091 159.324 109.239 159.933 109.121 160.525C109.002 161.117 108.535 161.686 107.932 161.713C106.393 161.78 104.853 161.847 103.314 161.914C102.711 161.941 102.004 162.027 101.704 162.551C101.5 162.907 101.561 163.348 101.628 163.752C101.816 164.897 102.35 166.344 103.509 166.302C104.281 166.274 104.968 166.86 105.3 167.557C105.632 168.254 105.682 169.047 105.726 169.817C105.768 170.543 105.583 171.534 104.856 171.552C104.27 171.567 104.109 172.358 104.127 172.944C104.257 177.018 104.386 181.091 104.515 185.164C104.536 185.821 103.695 186.097 103.042 186.163C97.5668 186.715 92.0346 186.701 86.5625 186.119C86.3662 186.098 86.1156 186.021 86.1113 185.824C86.01 181.222 85.9087 176.619 85.8074 172.016C85.8015 171.748 85.6699 171.377 85.4111 171.448C84.5956 171.671 83.7757 170.914 83.6068 170.085C83.4379 169.257 83.7276 168.412 84.013 167.616C84.145 167.248 84.2931 166.858 84.6087 166.627C85.2827 166.135 86.5285 166.486 86.8304 165.708C86.8803 165.579 86.8899 165.438 86.8851 165.3C86.8429 164.098 85.7236 163.149 84.5446 162.912C83.3656 162.674 82.1503 162.987 81.0021 163.345C80.739 162.352 80.6716 161.308 80.8048 160.289C80.8363 160.049 80.8852 159.796 81.0467 159.615C81.2769 159.358 81.6606 159.322 82.0057 159.304C90.6397 158.846 99.2738 158.388 107.908 157.93M84.8882 167.255C84.7222 167.448 84.6854 167.717 84.6555 167.969C84.5775 168.628 84.4996 169.286 84.4216 169.945C84.4052 170.083 84.3899 170.23 84.4457 170.357C84.5653 170.631 84.9267 170.678 85.2253 170.686C86.8103 170.725 88.3953 170.765 89.9803 170.804C90.2476 170.811 90.5281 170.814 90.7655 170.691C91.1472 170.494 91.3041 169.956 91.0886 169.584C91.2826 169.564 91.4766 169.544 91.6705 169.524C91.5851 170.098 92.1702 170.579 92.7446 170.664C93.3191 170.748 93.8964 170.573 94.4752 170.527C95.6888 170.431 96.9006 170.907 98.1096 170.764C98.2368 170.749 98.3726 170.723 98.4616 170.631C98.578 170.51 98.5758 170.322 98.5663 170.155C98.5204 169.352 98.4746 168.549 98.4288 167.747C98.4144 167.494 98.3927 167.222 98.2303 167.028C97.9985 166.751 97.5829 166.742 97.2218 166.756C95.4768 166.824 93.7318 166.891 91.9868 166.959C91.865 166.964 91.7301 166.974 91.6457 167.062C91.551 167.16 91.5577 167.315 91.5704 167.451C91.6291 168.076 91.6877 168.7 91.7464 169.325C91.5148 169.347 91.2877 169.415 91.0818 169.523C91.0302 169.031 90.9787 168.539 90.9272 168.047C90.8802 167.598 90.7044 167.023 90.2534 167.017C88.8132 166.998 87.373 166.979 85.9328 166.96C85.5584 166.955 85.1325 166.971 84.8882 167.255M93.1855 172.096C93.1615 171.765 93.0179 171.327 92.6876 171.362C90.6339 171.583 88.5553 171.57 86.5046 171.324C86.5551 175.793 86.6384 180.262 86.7543 184.729C86.7692 185.304 87.4949 185.534 88.067 185.593C89.7668 185.767 91.4782 185.827 93.186 185.771C93.326 185.766 93.4775 185.756 93.5842 185.666C93.7244 185.546 93.7336 185.337 93.7315 185.153C93.6826 180.797 93.5005 176.442 93.1855 172.096M103.456 171.85C103.4 171.754 103.272 171.734 103.161 171.724C101.394 171.575 99.6182 171.533 97.8465 171.599C97.6859 171.605 97.514 171.616 97.3869 171.714C97.1937 171.863 97.1819 172.145 97.1872 172.389C97.2849 176.849 97.3826 181.31 97.4802 185.77C99.4308 185.958 101.417 185.774 103.299 185.23C103.416 185.196 103.541 185.156 103.616 185.06C103.698 184.957 103.704 184.815 103.705 184.684C103.742 181.814 103.668 178.945 103.594 176.076C103.559 174.724 103.524 173.373 103.489 172.021C103.488 171.962 103.485 171.901 103.456 171.85M81.5501 160.544C81.2113 161.076 81.5755 161.828 82.1322 162.126C82.6888 162.423 83.356 162.394 83.9861 162.358C87.7985 162.137 91.6109 161.916 95.4233 161.695C99.059 161.484 102.695 161.274 106.325 160.978C106.857 160.935 107.415 160.881 107.854 160.578C108.294 160.275 108.549 159.636 108.254 159.191C107.959 158.745 107.323 158.725 106.789 158.752C98.867 159.161 90.9453 159.569 83.0236 159.978C82.4764 160.006 81.8441 160.081 81.5501 160.544M96.7881 185.666C96.5202 181.312 96.4672 176.945 96.6292 172.586C96.6385 172.335 96.6468 172.075 96.5468 171.845C96.255 171.174 95.3165 171.176 94.5933 171.288C94.2626 171.339 93.8405 171.497 93.8653 171.831C94.1753 176 94.4856 180.177 94.416 184.357C94.4067 184.911 94.7236 185.458 95.2084 185.725C95.6932 185.993 96.3248 185.969 96.7881 185.666M104.97 169.593C104.875 169.017 104.777 168.429 104.496 167.918C104.216 167.407 103.714 166.979 103.131 166.95C102.025 166.895 100.919 166.84 99.8127 166.785C99.5247 166.77 99.1268 166.857 99.1406 167.145C99.1828 168.021 99.225 168.896 99.2671 169.771C99.2855 170.154 99.3567 170.615 99.7108 170.76C99.825 170.807 99.9515 170.81 100.075 170.813C101.517 170.846 102.959 170.879 104.402 170.912C104.677 170.918 104.908 170.676 104.983 170.411C105.058 170.146 105.014 169.864 104.97 169.593M97.9866 165.279C97.8422 164.671 97.6917 164.049 97.3462 163.528C97.0007 163.008 96.4143 162.601 95.7912 162.647C94.8309 162.717 93.8705 162.788 92.9102 162.859C92.3119 162.903 91.6344 162.989 91.2837 163.475C90.8595 164.064 91.1504 164.885 91.0359 165.602C90.9956 165.853 91.1923 166.095 91.4276 166.192C91.663 166.29 91.9275 166.279 92.182 166.266C93.9011 166.177 95.6202 166.089 97.3393 166C97.5917 165.987 97.8946 165.941 97.9952 165.709C98.0534 165.575 98.0204 165.421 97.9866 165.279M100.999 164.177C100.672 163.729 100.68 163.066 101.018 162.626C100.415 162.252 99.5715 162.321 99.038 162.788C98.5044 163.256 98.3247 164.083 98.6163 164.73C98.7191 164.957 98.6603 165.228 98.7326 165.467C98.8355 165.807 99.1912 166.02 99.5437 166.064C99.8962 166.108 100.25 166.015 100.593 165.923C101.043 165.803 101.591 165.562 101.587 165.096C101.583 164.725 101.218 164.478 100.999 164.177M90.2557 165.773C90.4553 165.12 90.1869 164.375 89.6743 163.924C89.1617 163.473 88.4438 163.297 87.7636 163.358C87.4904 163.383 87.2053 163.45 87.0076 163.641C86.8098 163.831 86.739 164.173 86.9173 164.382C87.0489 164.536 87.2743 164.581 87.4121 164.729C87.6224 164.956 87.5514 165.319 87.6478 165.613C87.8653 166.277 88.767 166.339 89.4629 166.276C89.701 166.254 89.964 166.221 90.1207 166.04C90.1866 165.964 90.2264 165.869 90.2557 165.773M90.3687 163.576C90.53 163.42 90.5593 163.145 90.4345 162.959C90.1567 162.876 89.846 163.041 89.6999 163.292C89.8085 163.541 90.1139 163.684 90.3749 163.61M98.2969 162.882C98.3374 162.773 98.3135 162.643 98.2371 162.555C97.9734 162.472 97.6663 162.547 97.4705 162.742C97.672 162.971 98.0386 163.032 98.3039 162.882L98.2969 162.882Z" fill="#00160A"/>
<path fill-rule="evenodd" clip-rule="evenodd" d="M204.579 144.373C196.127 147.678 187.675 150.983 179.223 154.288C175.588 155.71 171.382 157.844 170.992 161.728C175.931 157.928 182.031 155.661 188.253 155.313C183.955 160.728 178.528 165.243 172.42 168.483C166.936 171.394 159.992 174.498 159.522 180.689C165.412 173.675 174.468 169.429 183.627 169.386C177.767 177.969 168.371 184.056 158.144 185.896C158.495 188.534 158.846 191.171 159.197 193.808C162.672 193.685 166.168 194.182 169.471 195.269C171.823 205.375 174.176 215.481 176.528 225.586C177.107 228.073 177.616 230.931 176.094 232.98C174.583 235.013 171.73 235.363 169.203 235.543C159.246 236.251 149.288 236.958 139.33 237.666C138.138 232.265 136.945 226.863 135.753 221.462C118.956 223.022 102.159 224.581 85.3626 226.141C81.8254 226.469 78.0844 226.764 74.8836 225.223C63.2739 219.633 49.1966 230.452 36.9344 226.494C47.7081 226.291 58.4485 224.412 68.6511 220.945C72.3512 219.687 76.7814 216.243 74.8481 212.847C65.3865 219.449 53.2465 222.084 41.8992 220C42.5655 208.98 42.137 197.895 40.6222 186.959C48.6962 185.804 56.6532 183.833 64.3325 181.085C66.4687 180.321 68.6662 179.441 70.1874 177.758C71.7085 176.075 72.3235 173.355 70.987 171.522C59.3068 177.746 45.8207 180.531 32.6304 179.444C33.3187 194.369 34.007 209.294 34.6953 224.219C32.7456 209.305 31.7116 194.271 31.6011 179.23C38.3909 178.628 45.1807 178.026 51.9705 177.424C50.8787 172.578 49.7801 167.62 50.3409 162.684C50.9018 157.748 53.4423 152.749 57.9079 150.572C54.5295 143.367 49.4237 136.978 43.14 132.094C35.7738 126.369 26.3031 122.052 22.9393 113.35C20.7151 107.597 21.8061 100.904 24.8858 95.5592C27.9655 90.2144 32.8456 86.0972 38.1496 82.9478C30.8472 81.0708 25.316 73.7915 25.464 66.2532C25.6119 58.7149 31.4246 51.6583 38.7951 50.0693C35.3201 45.9283 29.8482 44.0302 25.8514 40.3903C21.1954 36.1499 18.8557 29.3099 20.5517 23.245C22.2477 17.1802 28.2191 12.4085 34.5109 12.6773C39.679 12.8982 44.2271 16.1669 47.8346 19.8743C53.4294 25.6239 57.5904 32.7584 59.84 40.459C61.3395 45.5918 66.8348 48.203 71.4757 50.8592C76.1165 53.5155 80.936 58.1424 79.6285 63.3273C77.8998 56.2323 72.095 50.2851 65.044 48.3849C61.3699 47.3949 60.0309 43.0227 58.8491 39.4058C56.5493 32.3673 52.6233 25.8657 47.4652 20.5533C43.5888 16.5609 38.5206 13.0771 32.964 13.377C27.2438 13.6858 22.2012 18.3388 20.8935 23.9161C19.5857 29.4934 21.7784 35.6046 25.9522 39.5282C30.2035 43.5248 36.2855 45.4824 39.7129 50.2045C32.2793 51.7152 26.4023 58.8691 26.3632 66.4546C26.3242 74.0401 32.1272 81.254 39.5449 82.8412C34.3175 85.9011 29.4261 89.7881 26.201 94.9152C22.9759 100.042 21.5934 106.55 23.5231 112.291C27.9865 125.571 46.5903 128.741 53.1555 141.117C54.9337 135.277 52.3272 129.136 50.9876 123.18C49.6479 117.224 50.4052 109.575 55.9583 107.039C54.3354 99.2169 52.7124 91.3947 51.0895 83.5726C49.8801 77.7438 49.2734 70.359 54.2876 67.1505C50.7547 66.0547 47.6191 63.7209 45.5555 60.651C47.7839 64.0621 52.076 65.9975 56.1079 65.4095C51.0128 54.3647 45.3635 43.5757 39.1883 33.0965C45.8422 43.1295 51.7311 53.6698 56.7871 64.5956C80.1715 63.9629 103.593 64.6833 126.894 66.7521C129.988 67.0268 133.317 67.4267 135.604 69.5282C138.891 72.5483 143.825 73.6498 148.084 72.3141C149.439 75.6732 150.436 79.4462 149.284 82.8801C148.132 86.3141 144.052 88.9351 140.791 87.3598C141.642 91.7397 142.493 96.1195 143.345 100.499C151.683 100.6 160.021 100.77 168.357 101.01C172.775 101.137 177.393 101.338 181.233 103.527C185.072 105.716 187.782 110.565 186.072 114.64C187.163 111.272 188.253 107.904 189.344 104.536C193.19 110.639 195.078 117.955 194.667 125.157C195.999 123.13 197.331 121.103 198.663 119.077C193.931 111.628 193.329 101.729 197.123 93.7623C200.844 99.9248 202.94 107.059 203.144 114.255C204.531 101.286 213.72 89.4627 225.945 84.9158C223.824 89.8029 221.703 94.69 219.582 99.5771C217.766 103.761 215.459 108.402 211.096 109.732C208.218 110.609 204.05 110.555 203.528 113.519C211.795 111.351 220.594 111.244 228.912 113.209C222.503 120.915 210.152 122.812 201.725 117.385C197.75 121.819 194.305 126.729 191.489 131.976C196.273 126.03 203.718 122.312 211.345 122.059C207.247 126.902 202.625 131.301 197.586 135.155C200.261 135.412 203.153 135.764 205.093 137.623C207.033 139.482 207.081 143.395 204.579 144.373M93.0151 95.5673C95.2318 95.5416 97.7146 95.6204 99.262 97.2078C100.442 98.4188 100.759 100.205 101.016 101.876C102.193 109.52 103.295 117.176 104.322 124.841C104.579 126.764 102.967 128.538 101.126 129.148C99.284 129.758 97.2816 129.49 95.3612 129.216C96.9624 127.834 99.6657 128.825 101.389 127.598C102.935 126.498 102.926 124.24 102.741 122.352C102.047 115.274 101.102 108.22 99.9085 101.209C99.6975 99.9691 99.4391 98.6506 98.5611 97.7507C97.392 96.5523 95.5238 96.4726 93.8496 96.4705C86.9774 96.462 80.1051 96.4534 73.2329 96.4448C72.0484 96.4433 70.8022 96.4574 69.7738 97.0452C66.8148 98.7365 67.9057 103.204 69.3766 106.278C73.5437 105.433 77.8016 105.037 82.0531 105.099C85.8195 105.154 90.5162 106.377 91.1514 110.09C92.5466 118.246 93.9419 126.403 95.3372 134.56C96.0688 138.837 96.4721 144.033 93.0542 146.706C91.3463 148.041 89.0798 148.36 86.9288 148.632C81.64 149.3 76.3511 149.969 71.0623 150.638C73.2651 169.925 75.4679 189.212 77.6706 208.499C77.9163 210.65 78.3662 213.123 80.2578 214.177C81.3768 214.8 82.7343 214.749 84.0133 214.68C100.865 213.761 117.7 212.544 134.509 211.03C133.837 209.498 133.823 207.689 134.473 206.148C136.175 216.115 137.878 226.081 139.58 236.048C142.561 233.994 142.103 229.534 141.311 226.001C139.308 217.057 137.304 208.112 135.301 199.168C134.49 200.656 133.678 202.144 132.867 203.632C132.469 201.774 133.584 199.852 135.13 198.748C136.676 197.643 138.582 197.19 140.44 196.792C146.152 195.567 151.926 194.632 157.732 193.991C156.045 182.087 154.357 170.184 152.67 158.281C142.296 161.13 131.31 160.234 120.591 159.315C117.416 159.042 113.381 157.974 113.079 154.802C112.318 146.828 111.556 138.854 110.795 130.88C110.696 129.84 110.094 128.44 109.102 128.767C106.665 129.572 105.216 126.1 105.017 123.542C104.391 115.517 103.765 107.493 103.14 99.4681C103.058 98.4157 103.036 97.201 103.821 96.4951C104.371 96.0009 105.162 95.9103 105.898 95.843C111.149 95.363 116.4 94.8829 121.65 94.4028C124.649 94.1286 128.055 93.9869 130.236 96.0618C131.776 97.5263 132.293 99.7468 132.618 101.847C133.217 105.717 133.416 109.65 133.209 113.561C132.793 109.738 132.377 105.915 131.961 102.092C131.774 100.372 131.545 98.5476 130.458 97.201C128.603 94.9029 125.153 94.9415 122.209 95.1837C116.952 95.6163 111.694 96.0489 106.436 96.4815C105.728 96.5398 104.96 96.6235 104.446 97.1133C103.776 97.7504 103.795 98.8051 103.862 99.7269C104.425 107.482 104.989 115.237 105.552 122.992C105.658 124.456 105.803 126.021 106.728 127.16C107.654 128.299 109.662 128.657 110.526 127.471C109.342 124.867 110.98 121.678 113.405 120.161C115.831 118.643 118.807 118.376 121.659 118.148C126.577 117.756 131.496 117.363 136.414 116.971C136.077 106.791 134.98 96.6361 133.133 86.6191C131.432 86.1433 129.883 85.1379 128.756 83.7778C127.912 85.9506 125.4 87.3315 123.113 86.8788C120.827 86.4262 119.03 84.1922 119.078 81.862C118.807 84.5436 116.471 86.8696 113.788 87.129C111.105 87.3884 108.367 85.553 107.587 82.973C106.302 84.4059 104.635 85.6406 102.719 85.815C100.802 85.9894 98.682 84.7792 98.3703 82.8801C95.8533 86.1454 90.0037 85.8141 87.8715 82.2855C85.6784 85.9048 79.4349 85.8159 77.3458 82.1355C76.4077 85.538 71.1713 85.8103 68.6577 83.3326C66.1441 80.8549 65.6548 77.0381 65.3051 73.526C61.1561 77.5237 60.4075 83.9458 61.195 89.6533C61.9825 95.3608 64.0346 100.859 64.5323 106.599C65.669 106.885 66.9158 106.704 67.9248 106.108C66.8349 102.814 66.1182 98.3893 69.0768 96.5776C70.2636 95.8509 71.7321 95.8137 73.1236 95.7976C79.7541 95.7208 86.3846 95.644 93.0151 95.5673M158.699 150.996C167.397 150.564 176.369 151.698 184.635 148.956C185.914 148.532 187.224 147.973 188.048 146.907C185.937 145.937 183.694 144.263 183.746 141.94C183.78 140.415 184.837 139.096 186.028 138.142C187.279 137.14 188.734 136.397 190.279 135.97C190.404 135.588 189.732 135.505 189.399 135.731C189.066 135.957 188.561 136.236 188.339 135.9C188.28 135.81 188.268 135.698 188.257 135.59C187.427 127.148 186.198 118.745 184.574 110.418C184.086 107.915 183.361 105.126 181.154 103.847C179.963 103.156 178.535 103.04 177.161 102.945C166.818 102.229 156.456 101.791 146.09 101.631C143.64 101.593 140.9 101.684 139.182 103.431C137.879 104.757 137.506 106.725 137.368 108.579C136.941 114.318 138.17 120.032 138.97 125.731C139.927 132.559 140.272 139.455 140.904 146.32C140.988 147.234 141.09 148.186 141.584 148.959C142.431 150.284 144.151 150.7 145.709 150.918C148.01 151.241 150.337 151.377 152.66 151.326C154.676 151.281 156.685 151.096 158.699 150.996M87.318 106.709C84.3736 105.415 81.0012 105.761 77.8064 106.132C72.9737 106.693 68.141 107.255 63.3083 107.816C60.9856 108.085 58.6605 108.355 56.3626 108.789C55.8087 108.893 55.2528 109.008 54.7301 109.219C52.682 110.047 51.4609 112.256 51.1768 114.446C50.8927 116.637 51.3796 118.846 51.8464 121.005C53.2972 127.716 54.5838 134.489 54.9328 141.346C55.0019 142.703 55.0367 144.079 55.4097 145.386C55.7828 146.693 56.5446 147.95 57.7357 148.605C58.652 149.108 59.7284 149.213 60.7717 149.281C70.3346 149.91 79.8922 148.368 89.3517 146.831C90.6976 146.612 92.1135 146.363 93.1627 145.492C94.783 144.147 95.0251 141.78 95.0135 139.675C94.992 135.785 94.5211 131.899 93.6133 128.117C92.5515 123.694 90.8843 119.343 90.8402 114.795C90.8207 112.789 91.084 110.627 90.0373 108.915C89.4187 107.904 88.4033 107.186 87.318 106.709M41.8134 190.934C43.0989 200.17 43.5308 209.526 43.1018 218.841C43.0792 219.332 43.6759 219.582 44.1587 219.675C50.3426 220.857 56.7111 219.342 62.7117 217.437C66.1228 216.354 69.5366 215.119 72.4867 213.093C73.8362 212.166 75.2018 210.769 74.9495 209.152C73.3283 198.759 72.4366 188.253 72.2831 177.736C66.8232 182.002 59.8945 183.812 53.1794 185.521C49.9966 186.33 46.7708 187.146 43.4868 187.118C42.693 187.111 42.0338 187.809 41.812 188.571C41.5901 189.333 41.704 190.148 41.8134 190.934M167.315 195.603C157.088 194.607 146.655 195.777 136.902 199.012C137.487 203.467 138.287 207.894 139.298 212.271C139.703 214.024 140.142 215.77 140.58 217.514C141.434 220.913 142.289 224.311 143.143 227.709C143.261 228.182 143.41 228.699 143.818 228.967C144.182 229.206 144.653 229.178 145.087 229.142C155.186 228.3 165.279 227.387 175.365 226.405C173.16 216.576 170.955 206.747 168.75 196.918C168.666 196.54 168.563 196.134 168.263 195.89C168.003 195.678 167.649 195.635 167.315 195.603M152.239 152.456C150.013 152.569 147.754 152.68 145.581 152.187C143.408 151.693 141.294 150.508 140.178 148.58C139.537 149.317 138.264 149.372 137.562 148.693C136.86 148.014 136.873 146.74 137.588 146.075C134.761 146.1 131.934 146.126 129.107 146.151C130.399 146.912 130.293 149.156 128.957 149.838C127.622 150.52 125.773 149.368 125.742 147.869C125.728 147.196 126.141 146.441 126.811 146.38C126.533 145.904 125.812 146.186 125.262 146.134C124.435 146.056 123.983 145.154 123.693 144.376C122.516 141.218 121.445 138.022 120.374 134.826C121.124 136.053 122.812 136.605 124.142 136.058C124.612 135.865 124.626 135.189 124.426 134.722C124.077 133.907 123.281 133.278 122.397 133.209C121.512 133.139 120.592 133.68 120.293 134.515C119.85 134.183 120.039 133.417 120.504 133.117C120.969 132.817 121.564 132.843 122.117 132.877C127.331 133.191 132.565 133.186 137.779 132.862C138.016 132.847 138.278 132.82 138.439 132.646C138.622 132.449 138.605 132.145 138.575 131.878C138.376 130.044 138.177 128.21 137.978 126.376C137.956 126.173 137.924 125.95 137.772 125.813C137.605 125.662 137.353 125.669 137.128 125.685C130.592 126.151 124.074 126.854 117.589 127.794C116.899 127.894 116.257 127.315 116.039 126.652C115.821 125.989 115.922 125.269 116.025 124.58C116.061 124.337 116.107 124.076 116.286 123.909C116.451 123.755 116.69 123.719 116.914 123.691C123.66 122.83 130.451 122.313 137.25 122.143C137.085 122.815 136.209 122.96 135.517 122.972C129.207 123.084 122.904 123.59 116.657 124.486C116.158 125.339 116.842 126.488 117.763 126.846C118.683 127.205 119.715 127.013 120.686 126.831C126.039 125.823 131.469 125.23 136.913 125.057C137.69 125.032 137.783 123.914 137.62 123.153C137.24 121.388 136.861 119.622 136.481 117.857C132.712 118.571 128.861 118.855 125.027 118.704C122.758 118.614 120.502 119.011 118.266 119.406C116.366 119.741 114.341 120.139 112.968 121.495C111.363 123.079 111.075 125.557 111.173 127.81C111.333 131.507 112.271 135.123 112.734 138.794C113.299 143.279 113.154 147.826 113.588 152.326C113.705 153.538 113.872 154.773 114.416 155.863C114.959 156.953 115.947 157.889 117.152 158.069C127.051 159.545 137.145 159.712 147.087 158.566C148.006 158.46 148.932 158.341 149.799 158.02C151.168 157.514 152.341 156.499 153.039 155.218C153.32 154.703 153.529 154.115 153.427 153.539C153.324 152.962 152.824 152.426 152.239 152.456M73.0988 177.745C74.1348 189.143 75.1708 200.54 76.2068 211.938C76.393 213.987 76.5722 216.103 75.9319 218.058C75.2916 220.013 73.6072 221.779 71.5512 221.847C72.7582 223.612 74.8414 224.622 76.9479 224.992C79.0544 225.361 81.2142 225.165 83.3438 224.969C100.891 223.348 118.438 221.726 135.985 220.105C135.608 217.912 135.232 215.72 134.855 213.527C134.771 213.035 134.529 212.411 134.031 212.448C121.966 213.347 109.902 214.246 97.8371 215.145C92.8828 215.514 87.9044 215.883 82.9529 215.478C80.4475 215.273 77.3531 214.278 77.1059 211.776C75.128 191.76 72.8381 171.776 70.2375 151.831C70.1975 151.524 70.1479 151.196 69.9381 150.969C69.6581 150.665 69.1947 150.642 68.7817 150.64C66.3146 150.627 63.8476 150.615 61.3805 150.602C62.1011 154.69 63.0364 158.739 64.1813 162.728C64.3928 163.465 64.7448 164.326 65.5002 164.459C68.2129 164.935 70.3538 167.167 71.4699 169.684C72.5859 172.202 72.8495 175.002 73.0988 177.745M63.6202 106.799C61.5027 96.0593 59.7111 85.2551 58.2487 74.4065C58.166 73.793 58.0859 73.1567 58.2665 72.5646C58.6386 71.344 59.9737 70.7044 61.2153 70.4098C63.6427 69.8341 66.1775 70.0262 68.6654 70.2096C91.4122 71.8868 114.233 72.558 137.039 72.2204C136.132 70.3807 134.308 69.1259 132.368 68.4604C130.428 67.795 128.354 67.6473 126.308 67.5059C106.232 66.1185 86.1268 64.8184 66.005 65.0607C63.5432 65.0904 61.0526 65.147 58.6755 65.7881C56.2984 66.4291 54.0113 67.7202 52.6399 69.7649C50.479 72.9869 51.0016 77.243 51.6705 81.0645C53.2369 90.0138 55.1425 98.9037 57.382 107.709C59.4614 107.406 61.5408 107.102 63.6202 106.799M112.598 85.8082C113.685 85.8196 114.815 85.7587 115.777 85.2522C117.471 84.3604 118.223 82.3059 118.335 80.3948C118.447 78.4836 118.07 76.5681 118.191 74.6575C118.219 74.2221 118.462 73.6449 118.885 73.7543C119.191 75.9537 119.496 78.1531 119.802 80.3525C119.971 81.5669 120.147 82.8038 120.679 83.9084C121.211 85.0129 122.167 85.9837 123.371 86.2151C124.063 86.3479 124.785 86.2289 125.444 85.9811C127.022 85.3879 128.344 83.8778 128.284 82.1931C128.202 79.867 128.119 77.541 128.036 75.215C128.003 74.2947 127.661 73.0685 126.742 73.1167C120.611 73.438 114.462 73.4096 108.334 73.0318C107.887 73.0042 107.77 73.6373 107.817 74.0824C108.062 76.3896 108.307 78.6967 108.553 81.0039C108.738 82.7458 109.133 84.7932 110.732 85.5101C111.311 85.7698 111.963 85.8016 112.598 85.8082M144.042 230.581C143.748 230.787 143.554 231.104 143.376 231.415C142.446 233.033 141.699 234.757 141.153 236.542C151.884 235.792 162.607 234.921 173.319 233.928C173.722 233.891 174.159 233.838 174.448 233.555C174.635 233.372 174.731 233.117 174.822 232.87C175.223 231.781 175.624 230.692 176.025 229.603C176.22 229.073 176.393 228.413 176.012 227.997C175.695 227.651 175.156 227.662 174.688 227.699C164.894 228.484 155.105 229.329 145.322 230.234C144.876 230.275 144.408 230.325 144.042 230.581M162.96 164.463C162.67 161.077 162.079 157.277 159.316 155.299C158.237 158.268 157.149 161.282 156.902 164.432C156.656 167.581 157.352 170.937 159.464 173.286C159.761 173.616 160.091 173.936 160.248 174.351C160.406 174.766 160.326 175.314 159.94 175.534C157.069 173.036 155.88 169.029 155.948 165.223C156.015 161.418 157.181 157.728 158.337 154.102C158.591 153.305 157.864 152.467 157.049 152.281C156.234 152.095 155.392 152.368 154.6 152.637C154.446 152.689 154.378 152.865 154.329 153.02C153.782 154.765 153.229 156.614 153.654 158.393C155.48 166.056 155.245 174.098 157.104 181.753C157.173 182.036 157.247 182.324 157.412 182.564C158.645 180.153 159.879 177.741 161.112 175.33C161.692 174.196 162.274 173.055 162.636 171.835C163.34 169.462 163.171 166.929 162.96 164.463M206.589 108.841C206.828 109.038 207.147 109.1 207.454 109.134C210.942 109.524 214.233 107.15 216.165 104.22C218.096 101.29 219.009 97.828 220.275 94.5548C221.463 91.4829 222.983 88.5394 224.799 85.7919C221.162 89.2046 216.685 91.5944 212.889 94.8289C209.092 98.0634 205.862 102.6 206.129 107.58C206.154 108.041 206.234 108.548 206.589 108.841M66.9052 75.8388C67.401 78.0121 67.196 80.4271 68.4001 82.3031C69.5674 84.1217 72.0296 84.9884 74.0787 84.3019C76.1277 83.6154 77.5709 81.4403 77.407 79.2856C77.3698 78.7959 77.2592 78.3151 77.149 77.8365C76.7173 75.9615 76.2856 74.0864 75.8539 72.2114C75.8109 72.0249 75.7629 71.8287 75.6306 71.6903C75.441 71.492 75.1373 71.4689 74.8631 71.4584C72.2256 71.3574 69.5882 71.2564 66.9507 71.1554C66.697 71.1457 66.4185 71.1438 66.2213 71.3037C65.9717 71.5061 65.9574 71.8779 65.9898 72.1976C66.1164 73.4443 66.6265 74.617 66.9052 75.8388M138.299 77.8659C138.362 80.8678 140.318 83.4782 142.38 85.6602C142.582 85.8733 142.788 86.0872 143.04 86.2377C143.447 86.481 143.942 86.5386 144.415 86.498C146.008 86.361 147.371 85.1561 148.043 83.7052C148.716 82.2542 148.792 80.5944 148.647 79.0017C148.502 77.409 148.15 75.8406 148.007 74.2477C147.979 73.9282 147.862 73.5111 147.541 73.5124C144.721 73.5232 141.902 73.534 139.082 73.5448C138.721 73.5461 138.339 73.5535 138.034 73.7466C137.73 73.9396 137.56 74.3906 137.785 74.6716C138.476 75.5304 138.276 76.7643 138.299 77.8659M181.178 170.724C173.452 170.588 166.37 175.168 160.967 180.69C160.056 181.621 159.167 182.598 158.561 183.751C158.453 183.955 158.369 184.239 158.545 184.388C158.638 184.467 158.772 184.472 158.895 184.471C163.389 184.456 167.711 182.557 171.363 179.937C175.015 177.316 178.091 173.991 181.178 170.724M85.5871 83.7566C86.6906 83.1214 87.4009 81.8564 87.3688 80.5834C87.3525 79.9377 87.1617 79.3114 87.0082 78.684C86.6134 77.0698 86.46 75.3968 86.5545 73.7378C86.5746 73.3844 86.6048 73.0214 86.4986 72.6838C86.3924 72.3462 86.1106 72.0357 85.7572 72.0164C82.8379 71.857 79.9186 71.6976 76.9993 71.5382C76.8942 71.5324 76.7797 71.5293 76.6949 71.5916C76.5635 71.688 76.5709 71.8834 76.5953 72.0446C76.9545 74.4202 78.1041 76.6579 78.1778 79.0593C78.205 79.9429 78.0868 80.8485 78.3343 81.6972C78.6512 82.7841 79.5563 83.6421 80.6065 84.0649C81.6568 84.4878 82.8351 84.5118 83.9493 84.3108C84.5193 84.208 85.0851 84.0456 85.5871 83.7566M202.399 116.28C204.513 116.876 206.382 118.123 208.433 118.91C212.98 120.654 218.393 119.926 222.317 117.042C224.002 115.804 225.687 114.566 227.372 113.327C225.318 113.813 223.194 114 221.086 113.878C217.565 113.675 214.088 112.621 210.571 112.885C207.579 113.109 204.669 114.318 202.399 116.28M142.024 100.01C141.609 97.7079 141.193 95.4059 140.778 93.104C140.221 90.0187 139.664 86.9334 139.107 83.8481C139.067 83.6292 139.019 83.3944 138.857 83.2422C138.695 83.09 138.379 83.0896 138.29 83.2937C137.734 84.5776 136.595 85.5953 135.257 86.0041C134.445 86.2521 134.376 87.36 134.47 88.2036C135.136 94.1562 135.924 100.095 136.834 106.015C137.099 103.594 139.173 101.491 141.591 101.194C142.061 101.137 142.109 100.476 142.024 100.01M97.606 81.2861C97.3477 78.8045 97.0219 76.3299 96.6291 73.866C96.548 73.3578 96.3317 72.7244 95.8176 72.7019C93.1605 72.5853 90.5034 72.4687 87.8463 72.3521C87.7515 72.348 87.6516 72.3449 87.5678 72.3894C87.3533 72.5031 87.3884 72.8159 87.4515 73.0503C88.0643 75.3254 88.3896 77.6778 88.417 80.0338C88.4238 80.6135 88.4171 81.2156 88.6598 81.7421C89.0168 82.5171 89.8298 82.9617 90.6025 83.3237C91.9491 83.9546 93.4214 84.5092 94.8908 84.2801C96.3601 84.051 97.76 82.7652 97.606 81.2861M98.755 81.3C99.0231 82.5984 99.5143 84.1089 100.786 84.4821C101.86 84.7971 103.021 84.884 104.098 84.5805C105.174 84.2769 106.156 83.554 106.638 82.5442C106.981 81.8255 107.059 81.012 107.103 80.2169C107.226 78.0386 107.142 75.8488 106.852 73.6864C106.837 73.5707 106.82 73.4517 106.761 73.3506C106.606 73.0821 106.241 73.0444 105.931 73.0377C103.225 72.9787 100.519 72.9198 97.8137 72.8608C97.5927 72.856 97.2841 73.0858 97.471 73.2038C97.7737 75.9204 98.2024 78.623 98.755 81.3M189.67 108.171C187.556 112.95 186.934 118.376 187.91 123.509C188.3 125.559 189.067 127.735 190.842 128.834C191.365 129.157 192.235 129.252 192.429 128.669C194.674 121.895 193.626 114.111 189.67 108.171M52.6723 168.168C53.5689 168.783 54.5796 169.232 55.6375 169.484C56.9742 169.802 58.3624 169.806 59.7361 169.839C62.9462 169.916 66.1522 170.162 69.3365 170.575C69.7808 170.633 70.148 170.152 70.1363 169.704C70.1245 169.257 69.8521 168.861 69.5698 168.513C67.8714 166.421 65.3913 164.979 62.7329 164.538C60.8497 164.226 58.9242 164.401 57.016 164.346C55.1079 164.291 53.1162 163.968 51.5945 162.815C51.514 163.912 51.5075 165.013 51.5753 166.11C51.6028 166.554 51.6476 167.014 51.8739 167.397C52.0635 167.718 52.3648 167.957 52.6723 168.168M129.903 83.0277C130.202 83.5713 130.683 83.99 131.176 84.3675C131.71 84.7766 132.286 85.1594 132.942 85.3096C134.556 85.6793 136.207 84.4832 136.887 82.9735C137.567 81.4637 137.498 79.733 137.341 78.0845C137.222 76.8381 137.06 75.5959 136.855 74.3607C136.821 74.1547 136.781 73.9394 136.652 73.7756C136.424 73.4883 136.008 73.455 135.642 73.4452C133.674 73.3929 131.707 73.3406 129.739 73.2883C129.303 73.2767 128.684 73.4851 128.814 73.9014C129.393 75.7646 129.645 77.7288 129.556 79.678C129.504 80.8154 129.353 82.0307 129.903 83.0278M199.546 117.623C201.635 114.251 202.261 110.006 201.232 106.175C200.323 102.788 198.21 99.7876 197.54 96.3453C195.979 101.083 194.406 106.183 195.819 110.968C196.543 113.42 198.005 115.582 199.546 117.623M164.933 170.668C171.147 169.067 176.883 165.655 181.255 160.959C182.563 159.553 183.902 158.177 185.271 156.83C181.918 157.29 178.644 158.327 175.638 159.882C171.052 162.254 167.027 165.948 164.933 170.668M202.792 129.423C205.077 127.275 207.363 125.127 209.648 122.979C201.919 123.964 194.701 128.43 190.37 134.907C191.487 135.767 193.088 135.26 194.391 134.722C196.202 133.973 198.028 133.216 199.641 132.101C200.776 131.317 201.786 130.368 202.792 129.423M52.4748 176.365C52.4941 176.564 52.5175 176.773 52.6378 176.933C52.9009 177.281 53.4372 177.195 53.8561 177.073C58.6521 175.671 63.3808 174.04 68.0204 172.185C68.3549 172.051 68.7451 171.84 68.7518 171.479C65.1925 171.233 61.6332 170.986 58.0739 170.739C57.2033 170.678 56.3293 170.618 55.4759 170.435C54.1921 170.161 52.968 169.611 51.9108 168.833C51.9883 171.35 52.2316 173.859 52.4748 176.365M164.911 152.283C164.624 152.49 164.508 152.856 164.409 153.196C164.07 154.364 163.73 155.603 164.044 156.777C164.205 157.375 164.526 157.916 164.844 158.447C165.724 159.918 166.604 161.388 167.484 162.859C167.566 162.996 167.654 163.139 167.796 163.213C168.216 163.434 168.63 162.916 168.825 162.483C170.092 159.675 171.386 156.705 171.099 153.638C171.055 153.167 170.927 152.631 170.506 152.415C170.312 152.316 170.087 152.303 169.87 152.292C168.566 152.228 167.261 152.163 165.957 152.098C165.596 152.08 165.204 152.071 164.911 152.283M184.846 141.886C184.813 143.863 186.537 145.515 188.428 146.091C190.32 146.666 192.349 146.418 194.315 146.207C197.771 145.836 201.426 145.53 204.267 143.527C204.898 143.083 205.494 142.535 205.775 141.817C206.214 140.696 205.773 139.374 204.947 138.499C204.121 137.623 202.976 137.123 201.83 136.756C197.735 135.445 193.189 135.596 189.189 137.176C187.08 138.009 184.884 139.618 184.846 141.886M52.1493 162.077C52.5216 162.424 53.2761 162.513 53.4213 162.025C53.9186 160.353 55.0368 158.919 56.3539 157.775C57.671 156.631 59.1897 155.748 60.6981 154.871C61.105 154.635 61.0794 154.049 61.0008 153.585C60.8485 152.686 60.6961 151.788 60.5438 150.889C60.5052 150.661 60.4291 150.39 60.2063 150.329C60.0239 150.279 59.8438 150.402 59.6948 150.519C58.6126 151.364 57.5304 152.209 56.4483 153.054C54.2799 154.747 51.9561 156.69 51.4859 159.401C51.3221 160.345 51.4485 161.423 52.1493 162.077M60.5911 156.027C58.1607 157.545 55.5881 159.226 54.4836 161.87C54.4148 162.034 54.3514 162.207 54.3568 162.385C54.3674 162.737 54.6509 163.034 54.9758 163.169C55.3008 163.304 55.6628 163.31 56.0147 163.314C58.0952 163.339 60.1758 163.363 62.2564 163.388C62.3576 163.389 62.4674 163.387 62.5472 163.325C62.6735 163.227 62.6606 163.036 62.6356 162.877C62.3037 160.78 61.9718 158.683 61.6399 156.585C61.5927 156.287 61.4963 155.93 61.2052 155.849C60.9935 155.79 60.7776 155.911 60.5911 156.027M163.96 152.412C162.428 152.016 160.775 152.102 159.293 152.655C159.58 153.597 160.089 154.471 160.766 155.185C163.05 157.593 163.726 161.089 163.985 164.398C164.123 166.165 164.172 167.939 164.131 169.711C165.134 168.164 166.138 166.616 167.141 165.069C167.24 164.915 167.343 164.752 167.354 164.569C167.365 164.386 167.282 164.211 167.198 164.048C166.208 162.137 164.753 160.488 163.834 158.541C162.916 156.594 162.634 154.108 163.96 152.412M61.327 71.401C60.482 71.535 59.5186 71.7497 59.1173 72.5052C58.8398 73.0276 58.9217 73.6596 59.0109 74.2443C59.3781 76.6523 59.7453 79.0603 60.1125 81.4683C61.9917 78.0892 63.7513 74.6452 65.5105 71.2021C65.1849 70.8339 64.6079 70.8805 64.1225 70.9575C63.1907 71.1053 62.2588 71.2531 61.327 71.401M176.993 153.165C177.254 153.51 177.933 153.128 177.773 152.727C180.283 153.447 183.019 152.934 185.39 151.839C187.76 150.745 189.83 149.104 191.867 147.47C191.012 147.351 190.156 147.231 189.301 147.112C189.126 147.087 188.9 147.091 188.833 147.254C188.372 148.382 187.381 149.226 186.286 149.76C185.19 150.293 183.985 150.551 182.794 150.805C181.967 150.981 181.14 151.157 180.314 151.333C179.033 151.606 177.589 151.999 176.993 153.165M131.588 135.703C131.749 135.662 131.922 135.614 132.024 135.484C132.184 135.282 132.104 134.992 132.062 134.738C132.021 134.484 132.085 134.146 132.338 134.102C132.57 134.148 132.676 134.422 132.682 134.658C132.688 134.893 132.636 135.139 132.721 135.359C132.91 135.848 133.586 135.867 134.106 135.801C134.414 135.762 134.722 135.722 135.03 135.683C135.127 135.671 135.23 135.656 135.301 135.59C135.529 135.381 135.212 135.041 135.142 134.74C135.087 134.507 135.196 134.256 135.125 134.028C135.003 133.64 134.487 133.581 134.081 133.594C130.972 133.697 127.864 133.8 124.755 133.903C124.809 134.492 124.969 135.07 125.228 135.601C125.283 135.716 125.349 135.834 125.459 135.897C125.571 135.962 125.708 135.957 125.837 135.951C126.61 135.915 127.383 135.88 128.156 135.844C128.221 135.841 128.291 135.836 128.345 135.8C128.486 135.707 128.438 135.492 128.373 135.336C128.261 135.067 128.15 134.798 128.038 134.529C127.941 134.296 128.364 134.157 128.542 134.337C128.721 134.517 128.727 134.799 128.811 135.038C128.986 135.533 129.512 135.836 130.034 135.899C130.556 135.963 131.079 135.833 131.588 135.703M176.733 152.159C176.902 151.978 176.529 151.79 176.283 151.82C174.883 151.992 173.484 152.163 172.084 152.335C171.897 152.358 171.65 152.46 171.694 152.644C172.154 154.527 171.982 156.559 171.211 158.338C171.064 158.677 170.968 159.194 171.319 159.308C172.778 156.688 174.607 154.274 176.733 152.159M129.041 137.124C128.997 136.972 128.947 136.812 128.831 136.704C128.7 136.582 128.51 136.55 128.331 136.531C127.414 136.43 126.479 136.493 125.584 136.716C125.864 137.624 126.144 138.533 126.424 139.441C126.477 139.614 126.549 139.807 126.716 139.874C126.801 139.909 126.897 139.903 126.989 139.896C127.895 139.833 128.8 139.769 129.706 139.706C129.509 138.839 129.287 137.978 129.041 137.124M123.145 140.301C123.245 140.356 123.368 140.339 123.482 140.32C124.301 140.187 125.121 140.053 125.941 139.919C125.645 138.971 125.349 138.023 125.053 137.075C125.01 136.936 124.956 136.784 124.828 136.715C124.726 136.66 124.603 136.672 124.489 136.685C123.758 136.77 123.027 136.855 122.296 136.94C122.159 136.956 121.996 136.99 121.945 137.119C121.911 137.206 121.943 137.304 121.976 137.392C122.298 138.261 122.62 139.13 122.942 139.999C122.985 140.115 123.036 140.241 123.145 140.301M132.355 136.514C132.182 136.363 131.926 136.373 131.697 136.392C130.975 136.452 130.253 136.511 129.531 136.57C129.747 137.495 130.018 138.407 130.344 139.3C130.387 139.417 130.435 139.54 130.534 139.615C130.658 139.709 130.828 139.704 130.984 139.694C131.476 139.665 131.969 139.635 132.462 139.605C132.689 139.591 132.965 139.543 133.041 139.329C133.078 139.226 133.054 139.112 133.03 139.006C132.88 138.338 132.73 137.67 132.581 137.003C132.541 136.824 132.493 136.633 132.355 136.514M128.048 143.16C127.977 143.171 127.901 143.185 127.849 143.235C127.748 143.332 127.794 143.501 127.847 143.631C128.037 144.095 128.227 144.559 128.416 145.023C128.487 145.195 128.566 145.379 128.723 145.478C128.868 145.57 129.051 145.572 129.223 145.571C129.878 145.567 130.533 145.563 131.188 145.559C131.284 145.559 131.388 145.555 131.462 145.494C131.596 145.384 131.546 145.171 131.484 145.008C131.232 144.344 130.98 143.68 130.728 143.015C130.647 142.802 130.351 142.799 130.125 142.834C129.433 142.943 128.741 143.051 128.048 143.16M133.56 136.382C133.422 136.383 133.267 136.39 133.175 136.492C133.063 136.615 133.098 136.807 133.141 136.968C133.327 137.672 133.513 138.376 133.699 139.08C133.732 139.204 133.77 139.336 133.869 139.417C134.001 139.524 134.192 139.504 134.36 139.479C134.981 139.384 135.602 139.289 136.224 139.194C136.157 138.473 136.042 137.757 135.881 137.052C135.831 136.831 135.761 136.59 135.57 136.469C135.427 136.378 135.247 136.376 135.078 136.377C134.572 136.378 134.066 136.38 133.56 136.382M134.824 145.477C134.623 144.746 134.422 144.015 134.22 143.284C134.143 143.005 134.035 142.688 133.765 142.583C133.632 142.531 133.484 142.543 133.342 142.555C132.679 142.613 132.016 142.671 131.353 142.728C131.528 143.383 131.735 144.029 131.973 144.663C132.093 144.982 132.275 145.345 132.611 145.399C133.342 145.517 134.087 145.543 134.824 145.477M135.978 145.426C136.579 145.475 137.238 145.508 137.723 145.151C137.513 144.333 137.302 143.514 137.092 142.695C137.044 142.511 136.981 142.305 136.812 142.218C136.688 142.153 136.539 142.171 136.401 142.19C135.806 142.273 135.21 142.356 134.615 142.439C134.757 143.305 134.997 144.156 135.33 144.969C135.381 145.093 135.438 145.223 135.545 145.305C135.665 145.398 135.826 145.414 135.978 145.426M189.507 133.771C189.966 132.83 190.425 131.888 190.883 130.946C190.932 130.847 190.981 130.74 190.964 130.631C190.946 130.526 190.869 130.441 190.796 130.363C190.143 129.673 189.49 128.982 188.836 128.292C188.565 128.662 188.596 129.166 188.64 129.623C188.782 131.125 188.924 132.626 189.066 134.127C189.266 134.172 189.417 133.955 189.507 133.771M136.638 136.273C136.552 136.267 136.454 136.266 136.394 136.327C136.327 136.396 136.342 136.508 136.362 136.603C136.491 137.226 136.62 137.849 136.749 138.472C136.797 138.704 136.854 138.951 137.028 139.11C137.592 139.624 138.679 138.739 139.203 139.294C139.296 138.409 139.229 137.508 139.008 136.646C138.993 136.585 138.975 136.521 138.928 136.479C138.874 136.431 138.797 136.423 138.725 136.418C138.029 136.37 137.333 136.322 136.638 136.273M123.66 140.896C123.585 140.906 123.507 140.918 123.445 140.962C123.308 141.059 123.313 141.261 123.333 141.428C123.385 141.874 123.443 142.335 123.676 142.719C123.909 143.103 124.37 143.387 124.804 143.27C125.425 143.104 126.046 142.937 126.667 142.771C126.64 142.177 126.52 141.587 126.312 141.031C126.261 140.892 126.195 140.745 126.068 140.67C125.935 140.592 125.769 140.61 125.617 140.631C124.965 140.719 124.312 140.808 123.66 140.896M138.15 135.686C138.337 135.658 138.536 135.624 138.675 135.496C139.088 135.113 138.616 134.336 138.951 133.884C139.082 133.707 138.761 133.549 138.541 133.559C137.56 133.6 136.579 133.641 135.598 133.683C135.636 134.089 135.706 134.492 135.808 134.886C135.922 135.326 136.351 135.627 136.795 135.725C137.239 135.823 137.7 135.755 138.15 135.686M130.218 140.972C130.092 140.365 129.279 140.223 128.67 140.337C128.06 140.45 127.379 140.671 126.861 140.33C126.894 140.971 127.044 141.605 127.301 142.194C127.355 142.317 127.42 142.446 127.538 142.512C127.67 142.587 127.834 142.563 127.984 142.537C128.584 142.433 129.185 142.33 129.786 142.226C130.084 142.175 130.477 141.939 130.32 141.68C130.195 141.474 130.267 141.208 130.218 140.972M126.506 143.464C126.015 143.547 125.524 143.63 125.033 143.713C124.767 143.758 124.44 143.865 124.412 144.133C124.34 144.811 125.015 145.358 125.683 145.493C126.351 145.628 127.045 145.495 127.723 145.562C127.695 144.986 127.574 144.415 127.367 143.876C127.318 143.748 127.259 143.616 127.151 143.532C126.974 143.396 126.726 143.427 126.506 143.464M139.445 142.149C138.793 142.08 138.131 142.115 137.49 142.251C137.844 143.095 138.096 143.981 138.237 144.885C138.302 145.299 138.894 145.307 139.3 145.203C139.452 145.165 139.617 145.117 139.704 144.986C139.778 144.874 139.775 144.729 139.768 144.595C139.734 143.85 139.699 143.106 139.664 142.362C139.662 142.315 139.659 142.265 139.632 142.227C139.592 142.17 139.514 142.157 139.445 142.149M128.806 148.816C129.421 148.203 129.106 146.965 128.273 146.72C127.44 146.475 126.505 147.345 126.69 148.193C126.88 149.07 128.171 149.45 128.806 148.816M133.635 141.628C134.026 141.118 133.441 140.365 132.808 140.254C132.175 140.143 131.533 140.386 130.891 140.376C130.654 140.373 130.644 140.729 130.721 140.953C130.82 141.243 130.92 141.532 131.019 141.822C131.06 141.94 131.134 142.083 131.259 142.075C131.717 142.046 132.175 142.017 132.634 141.989C132.999 141.966 133.412 141.919 133.635 141.628M139.968 146.553C139.921 146.425 139.851 146.3 139.74 146.219C139.641 146.147 139.518 146.117 139.396 146.102C138.434 145.986 137.501 146.945 137.643 147.903C138.052 148.39 138.823 148.524 139.373 148.205C139.923 147.885 140.188 147.15 139.968 146.553M134.032 140.76C134.011 141.182 134.382 141.542 134.788 141.655C135.194 141.769 135.626 141.696 136.042 141.621C136.254 141.584 136.493 141.529 136.604 141.344C136.841 140.949 136.37 140.225 136.805 140.074C136.513 140.034 136.221 139.994 135.929 139.953C135.544 139.9 135.145 139.848 134.771 139.955C134.397 140.062 134.052 140.372 134.032 140.76M137.522 141.3C137.964 141.684 138.704 141.631 139.115 141.213C139.526 140.796 139.58 140.087 139.27 139.59C138.496 139.734 137.722 139.877 136.948 140.021C137.045 140.487 137.162 140.987 137.522 141.3M197.339 133.901C196.736 134.124 196.134 134.347 195.531 134.571C195.231 134.682 194.928 134.795 194.668 134.981C195.654 135.366 196.898 134.863 197.339 133.901M141.309 86.0574C141.293 85.7911 141.012 85.5735 140.75 85.6255C140.767 85.8964 141.037 86.1243 141.307 86.0951L141.309 86.0574Z" fill="#00160A"/>
</svg>
