<svg width="250" height="250" viewBox="0 0 250 250" fill="none" xmlns="http://www.w3.org/2000/svg">
<path fill-rule="evenodd" clip-rule="evenodd" d="M209.334 141.666C209.334 97.8518 173.815 62.333 130.001 62.333C86.186 62.333 47.3112 97.9265 50.6673 141.666C54.6673 193.799 209.334 183.869 209.334 141.666Z" fill="#23583A"/>
<path d="M67.3729 140.663C67.6323 140.639 67.9711 140.666 68.0446 140.916C68.0469 141.218 67.6649 141.343 67.3658 141.38C65.7533 141.581 64.1408 141.781 62.5283 141.982C63.2779 142.618 63.3523 143.88 62.7182 144.631C62.0841 145.383 60.8721 145.537 60.0423 145.01C59.7655 144.834 59.5297 144.595 59.2388 144.444C58.9478 144.293 58.5634 144.248 58.3114 144.458C57.7418 144.932 56.883 144.804 56.2014 144.513C55.5258 144.224 54.8592 143.731 54.702 143.014C54.5462 142.303 54.9346 141.586 55.3938 141.021C55.8531 140.456 56.4078 139.945 56.6838 139.271C57.0885 138.283 58.2837 137.791 59.3424 137.931C60.4011 138.07 61.3281 138.715 62.0992 139.454C62.5957 139.929 63.4011 139.743 64.0574 139.538C64.7137 139.332 65.5379 139.181 65.9976 139.692" fill="white"/>
<path fill-rule="evenodd" clip-rule="evenodd" d="M160.469 137.887C160.469 130.488 165.938 128.783 169.408 128.87C172.878 128.957 176.188 131.192 177.476 134.308C178.764 137.424 177.961 141.243 175.524 143.632C173.086 146.021 167.94 146.05 166.456 145.6C164.973 145.149 160.469 142.017 160.469 137.887Z" fill="white"/>
<path fill-rule="evenodd" clip-rule="evenodd" d="M168.977 132.773C170.222 132.674 171.501 133.128 172.405 133.991C173.805 135.328 174.166 137.627 173.244 139.329C172.322 141.031 170.198 141.984 168.314 141.541C166.519 141.119 165.081 139.475 164.903 137.64C164.724 135.805 165.818 133.915 167.497 133.155C167.964 132.944 168.466 132.814 168.977 132.773M171.138 133.634C170.697 133.31 170.213 133.039 169.689 132.934C169.092 132.815 168.468 132.919 167.909 133.173C166.488 133.816 165.519 135.483 165.612 137.145C165.704 138.807 166.859 140.341 168.349 140.765C169.839 141.189 171.549 140.462 172.362 139.047C173.176 137.633 173.017 135.645 171.984 134.41C171.735 134.113 171.444 133.859 171.138 133.634V133.634Z" fill="#00160A"/>
<path fill-rule="evenodd" clip-rule="evenodd" d="M85.6447 138.417C85.6138 137.935 85.6175 137.448 85.7027 136.972C85.7673 136.612 85.878 136.261 85.9885 135.912C86.2266 135.159 86.4656 134.404 86.792 133.685C88.3919 130.159 92.2167 127.771 96.0872 127.871C99.9577 127.972 103.649 130.55 105.086 134.145C106.523 137.74 105.628 142.147 102.909 144.904C100.19 147.66 95.8031 148.617 92.1798 147.253C88.5564 145.888 85.8928 142.281 85.6447 138.417" fill="white"/>
<path fill-rule="evenodd" clip-rule="evenodd" d="M96.027 94.8556C96.0469 96.3862 95.6557 98.023 96.3637 99.3801C97.6754 101.894 101.359 101.427 104.068 100.591C101.842 98.0564 99.6147 95.5219 97.3878 92.9873C102.001 88.277 106.614 83.5667 111.228 78.8564C111.612 78.4636 112.056 78.0439 112.606 78.0332C113.24 78.0209 113.735 78.5511 114.141 79.038C115.653 80.8506 117.164 82.6631 118.675 84.4756C119.92 85.969 121.105 88.3877 119.581 89.5951C125.298 89.2072 131.015 88.8193 136.733 88.4313C135.662 82.3166 137.629 74.7901 139.571 68.894C139.765 68.3063 139.999 67.6672 140.536 67.3597C140.912 67.1443 141.367 67.1357 141.801 67.1327C152.239 67.0607 162.677 66.9887 173.115 66.9168C173.747 66.9124 174.414 66.9168 174.96 67.2351C175.429 67.5082 175.745 67.9765 176.041 68.4313C184.871 82.007 190.385 99.0573 191.97 115.175C192.169 117.196 194.76 131.674 191.97 132.103C178.685 134.148 181.289 122.108 167.258 123.869C155.73 125.316 157.908 132.103 151.245 133.426C145.259 134.614 124.844 134.909 118.226 135.24C109.147 135.695 108.506 121.971 94.6804 122.528C80.8549 123.086 81.1714 138.784 73.7233 136.987C73.4128 136.912 70.0406 134.951 69.9646 134.716C68.867 131.324 68.0441 118.908 68.0441 118.908L65.4441 118.331C65.4441 118.331 65.2531 111.922 65.4441 111.717C65.7807 111.356 71.6743 112.003 74.225 111.717C73.4715 106.484 72.7179 101.251 71.9644 96.0184C71.8993 95.5665 71.8431 95.07 72.0887 94.6851C72.3617 94.2573 72.91 94.1156 73.4068 94.0118C80.0537 92.6231 86.8175 91.7946 93.603 91.5379C95.1326 91.4801 96.0072 93.3251 96.027 94.8556Z" fill="white"/>
<path fill-rule="evenodd" clip-rule="evenodd" d="M82.6145 109.132L79.6223 109.346L77.9404 93.1583L80.5605 92.7275L82.6145 109.132Z" fill="#FFB61D"/>
<path fill-rule="evenodd" clip-rule="evenodd" d="M153.278 78.3015C154.088 78.1456 169.633 88.9331 169.472 89.1081C169.311 89.2832 152.957 78.3631 153.278 78.3015Z" fill="#E7EAEE"/>
<path fill-rule="evenodd" clip-rule="evenodd" d="M159.944 78.3015C160.573 78.1896 168.54 83.5761 168.319 83.8899C168.097 84.2037 159.543 78.3731 159.944 78.3015Z" fill="#E7EAEE"/>
<path fill-rule="evenodd" clip-rule="evenodd" d="M151.611 81.6343C151.309 81.1004 160.225 87.2696 159.985 87.2227C157.688 86.7736 151.7 81.7911 151.611 81.6343Z" fill="#E7EAEE"/>
<path fill-rule="evenodd" clip-rule="evenodd" d="M150.557 99.0389C150.753 99.1934 150.673 99.5444 150.452 99.6601C150.231 99.7757 149.95 99.6985 149.755 99.5436C149.167 99.0773 149.289 98.089 149.804 97.543C150.319 96.997 151.083 96.7795 151.808 96.5847C152.108 96.5039 152.409 96.4232 152.71 96.3424C153.323 96.1775 153.976 96.0127 154.584 96.1951C155.193 96.3774 155.7 97.0521 155.464 97.6419C155.315 98.013 154.922 98.2375 154.529 98.3086C154.135 98.3796 153.732 98.3257 153.333 98.2985C152.55 98.2451 151.759 98.2964 150.989 98.4507C150.838 98.4809 150.679 98.5199 150.571 98.6296C150.463 98.7394 150.437 98.9434 150.557 99.0389Z" fill="#00160A"/>
<path fill-rule="evenodd" clip-rule="evenodd" d="M154.502 132.661C154.299 133.503 154.095 134.345 153.891 135.187C153.829 135.445 153.761 135.714 153.58 135.908C153.312 136.196 152.877 136.237 152.484 136.26C140.109 136.969 127.725 137.511 115.336 137.886C114.498 137.912 113.709 137.434 113.159 136.802C112.61 136.169 112.26 135.392 111.918 134.627C112.46 134.496 112.973 134.927 113.303 135.376C113.632 135.825 113.923 136.355 114.435 136.574C114.773 136.717 115.154 136.7 115.52 136.68C127.551 136.034 139.582 135.388 151.613 134.742C152.047 134.719 152.517 134.681 152.839 134.39C153.171 134.091 153.25 133.61 153.444 133.208C153.638 132.806 154.115 132.438 154.502 132.661L154.502 132.661Z" fill="#00160A"/>
<path fill-rule="evenodd" clip-rule="evenodd" d="M61.9331 139.855C61.3481 139.23 60.6086 138.751 59.7991 138.473C59.2496 138.284 58.62 138.193 58.104 138.46C57.588 138.728 57.3002 139.466 57.6631 139.92C57.8541 140.159 57.423 140.385 57.1243 140.45C56.2316 140.646 55.558 141.636 55.811 142.514C56.064 143.392 57.2923 143.85 58.0008 143.273C58.2574 143.064 58.4293 142.759 58.7073 142.579C58.9853 142.4 59.4538 142.438 59.5393 142.757C59.7195 143.431 60.334 143.967 61.0262 144.053C61.4783 144.11 62.0132 143.925 62.1533 143.492C62.4015 142.724 61.2688 141.928 61.6545 141.219C61.849 140.861 62.3195 140.784 62.7249 140.748C64.2742 140.608 65.8236 140.469 67.3729 140.33C67.6324 140.306 67.9711 140.333 68.0445 140.583C68.0469 140.885 67.665 141.01 67.3658 141.047C65.7533 141.248 64.1408 141.448 62.5283 141.649C63.2779 142.285 63.3523 143.547 62.7182 144.298C62.0841 145.05 60.8721 145.204 60.0423 144.677C59.7655 144.501 59.5297 144.262 59.2388 144.111C58.9478 143.96 58.5634 143.915 58.3114 144.125C57.7418 144.599 56.883 144.471 56.2014 144.18C55.5258 143.891 54.8592 143.398 54.702 142.681C54.5462 141.97 54.9346 141.253 55.3938 140.688C55.8531 140.123 56.4078 139.612 56.6838 138.938C57.0885 137.95 58.2837 137.458 59.3424 137.598C60.4011 137.737 61.3281 138.382 62.0992 139.121C62.5957 139.596 63.4011 139.41 64.0574 139.205C64.7137 138.999 65.5379 138.848 65.9976 139.359C65.0512 139.574 64.1048 139.789 63.1584 140.004C62.7372 140.1 62.2282 140.171 61.9331 139.855Z" fill="#E7EAEE"/>
<path fill-rule="evenodd" clip-rule="evenodd" d="M80.8816 138.938C80.836 138.228 80.8415 137.51 80.9671 136.809C81.0623 136.278 81.2255 135.761 81.3883 135.246C81.7393 134.136 82.0915 133.023 82.5726 131.963C84.9307 126.767 90.5678 123.247 96.2725 123.395C101.977 123.543 107.418 127.343 109.536 132.642C111.653 137.941 110.334 144.436 106.327 148.499C102.32 152.562 95.8538 153.972 90.5135 151.961C85.1731 149.949 81.2473 144.633 80.8816 138.938M83.874 133.622C83.6205 134.297 83.4227 135.003 83.4235 135.723C83.4259 137.932 83.5999 140.173 84.3496 142.25C85.9253 146.617 90.173 149.886 94.7958 150.308C99.4186 150.73 104.18 148.294 106.557 144.306C108.934 140.319 108.815 134.982 106.28 131.094C103.744 127.206 98.9185 124.947 94.3064 125.474C89.6942 126 85.508 129.277 83.874 133.622H83.874Z" fill="#00160A"/>
<path fill-rule="evenodd" clip-rule="evenodd" d="M174.148 125.462C178.983 127.495 182.35 132.612 182.301 137.858C182.253 143.103 178.793 148.157 173.92 150.101C169.048 152.044 163.059 150.757 159.414 146.985C155.769 143.212 154.69 137.183 156.8 132.38C157.299 131.244 157.974 130.16 158.934 129.373C161.108 127.591 163.359 125.77 166.048 124.95C168.689 124.145 171.603 124.392 174.148 125.462M162.899 128.001C162.264 128.407 161.663 128.881 161.194 129.47C160.697 130.094 160.361 130.827 160.03 131.552C159.534 132.639 159.036 133.733 158.726 134.887C157.663 138.852 159.101 143.372 162.247 146.01C165.394 148.648 170.08 149.281 173.822 147.592C177.565 145.903 180.186 141.984 180.343 137.881C180.5 133.778 178.196 129.681 174.619 127.664C171.043 125.647 166.358 125.789 162.899 128.001V128.001Z" fill="#00160A"/>
<path fill-rule="evenodd" clip-rule="evenodd" d="M169.873 71.6232C161.485 71.8017 153.098 71.9803 144.71 72.1589C144.501 72.1633 144.269 72.1771 144.122 72.3264C144.028 72.4229 143.987 72.5589 143.952 72.6893C142.092 79.4727 143.598 86.6595 144.862 93.5788C145.65 97.8925 146.341 102.224 146.933 106.569C147.36 109.698 147.737 112.844 147.711 116.002C147.702 117.006 148.408 117.913 149.287 118.398C150.166 118.883 151.195 119.014 152.198 119.063C154.311 119.166 156.439 118.941 158.484 118.399C158.864 118.299 159.259 118.186 159.646 118.258C160.033 118.331 160.406 118.656 160.382 119.049C160.355 119.504 159.863 119.765 159.434 119.918C156.734 120.878 153.771 121.085 150.964 120.508C149.618 120.231 148.213 119.709 147.441 118.571C147.002 117.924 146.815 117.143 146.644 116.38C144.925 108.701 144.066 100.859 143.228 93.0352C142.466 85.9247 141.718 78.7586 142.356 71.6361C142.376 71.4159 142.4 71.1869 142.517 70.9993C142.767 70.597 143.321 70.5423 143.795 70.5307C152.667 70.3128 161.539 70.095 170.411 69.8771C170.914 69.8647 171.454 69.8629 171.869 70.1475C172.176 70.3574 172.367 70.6936 172.548 71.0179C175.764 76.7921 178.98 82.5662 182.197 88.3403C182.84 89.4956 183.504 90.8226 183.104 92.083C182.807 93.0176 181.961 93.6956 181.041 94.0372C180.122 94.3789 179.125 94.4346 178.146 94.4869C176.388 94.5807 174.63 94.6746 172.872 94.7684C168.53 95.0001 164.187 95.2319 159.844 95.4637C159.595 95.477 159.317 95.4804 159.133 95.3121C158.864 95.0665 158.98 94.5865 159.267 94.3622C159.554 94.138 159.939 94.0989 160.302 94.0683C166.856 93.5156 173.409 92.9629 179.962 92.4103C180.476 92.367 180.832 91.8277 180.855 91.3127C180.878 90.7978 180.655 90.3074 180.436 89.8411C177.597 83.8076 174.522 77.8847 171.223 72.0904C170.975 71.6547 170.374 71.6125 169.873 71.6232V71.6232Z" fill="#00160A"/>
<path fill-rule="evenodd" clip-rule="evenodd" d="M90.7751 129.561C93.7062 127.938 97.5194 128.128 100.341 129.934C103.163 131.739 104.922 135.051 104.959 138.401C104.996 141.813 103.147 145.308 100.057 146.756C98.9794 147.261 97.7922 147.512 96.6035 147.558C92.2718 147.727 87.9376 144.879 86.5496 140.772C85.1616 136.665 86.9823 131.66 90.7751 129.561M97.4655 146.09C98.6043 145.901 99.7108 145.494 100.679 144.866C101.672 144.222 102.514 143.347 103.118 142.33C104.692 139.683 104.491 136.127 102.744 133.591C100.997 131.054 97.8376 129.607 94.7636 129.795C93.6176 129.865 92.4801 130.146 91.4557 130.665C87.9206 132.453 86.2973 137.174 87.7931 140.842C89.2889 144.511 93.5577 146.742 97.4655 146.09L97.4655 146.09Z" fill="#00160A"/>
<path fill-rule="evenodd" clip-rule="evenodd" d="M121.434 123.659C120.924 123.206 120.109 123.229 119.612 122.761C119.752 122.254 120.22 121.921 120.549 121.511C121.325 120.54 121.244 118.99 120.37 118.106C119.927 117.659 119.286 117.317 119.169 116.699C120.083 116.542 121.007 116.247 121.695 115.626C122.383 115.004 122.782 113.997 122.48 113.12C122.387 112.851 122.232 112.594 122.228 112.309C122.224 112.024 122.472 111.709 122.746 111.787C124.212 112.205 125.926 111.23 126.316 109.756C126.483 109.123 127.415 109.185 128 109.48C128.585 109.774 129.33 110.147 129.827 109.721C130.248 109.359 130.325 108.521 130.88 108.531C131.167 108.537 131.37 108.798 131.57 109.004C132.261 109.714 133.409 109.929 134.31 109.517C134.625 109.373 134.916 109.159 135.258 109.104C135.6 109.049 136.021 109.241 136.043 109.587C136.109 110.632 137.251 111.467 138.268 111.213C138.656 111.116 139.314 111.137 139.183 111.514C138.782 112.667 139.639 114.079 140.847 114.255C141.154 114.299 141.481 114.278 141.759 114.416C142.037 114.555 142.222 114.949 142.012 115.179C141.114 116.165 141.493 117.995 142.71 118.543C143.038 118.69 142.96 119.202 142.712 119.462C142.464 119.723 142.106 119.881 141.925 120.191C141.609 120.731 141.985 121.419 142.444 121.843C142.902 122.268 143.479 122.625 143.694 123.212C142.83 122.882 141.76 123.222 141.245 123.99C140.729 124.757 140.819 125.876 141.451 126.551C141.117 127.151 140.226 126.912 139.542 126.973C138.71 127.046 137.982 127.766 137.899 128.597C137.863 128.959 137.935 129.338 137.806 129.678C137.677 130.018 137.207 130.264 136.95 130.007C135.994 129.051 134.166 129.244 133.43 130.377C133.255 130.646 133.083 130.99 132.763 131.019C132.26 131.065 132.099 130.337 131.69 130.042C131.182 129.675 130.461 130.091 130.104 130.606C129.747 131.12 129.524 131.763 128.998 132.104C128 131.371 128.303 129.296 127.076 129.127C126.547 129.053 126.08 129.447 125.579 129.632C125.077 129.817 124.304 129.57 124.398 129.043C124.551 128.182 124.421 127.034 123.576 126.811C122.741 126.59 121.673 127.458 121.097 126.815C121.721 125.84 122.3 124.428 121.434 123.659M121.991 118.296C121.607 118.99 121.677 119.832 121.606 120.622C121.534 121.411 121.202 122.302 120.445 122.535C121.301 122.596 122.103 123.163 122.445 123.951C122.786 124.739 122.653 125.712 122.113 126.379C122.814 125.853 123.885 126.006 124.522 126.609C125.159 127.211 125.388 128.162 125.258 129.03C125.98 128.514 126.998 128.448 127.78 128.868C128.562 129.287 129.071 130.171 129.041 131.058C129.256 130.271 129.875 129.583 130.664 129.376C131.453 129.169 132.379 129.506 132.776 130.219C132.813 129.682 133.32 129.301 133.818 129.097C134.886 128.661 136.138 128.699 137.177 129.199C137.05 127.524 138.802 125.986 140.447 126.329C139.933 125.792 139.962 124.918 140.248 124.232C140.608 123.366 141.452 122.612 142.385 122.711C141.843 122.513 141.406 122.05 141.24 121.498C140.962 120.571 141.469 119.538 142.258 118.979C141.262 118.77 140.941 117.531 140.818 116.52C140.754 115.994 140.785 115.304 141.288 115.135C140.25 114.842 139.313 114.203 138.661 113.345C138.359 112.948 138.143 112.321 138.526 112.002C137.731 111.96 136.946 111.722 136.263 111.314C135.742 111.003 135.23 110.433 135.428 109.86C134.035 110.548 132.281 110.439 130.985 109.583C130.593 110.2 129.825 110.498 129.095 110.496C128.365 110.493 127.661 110.233 126.992 109.939C127.071 110.422 126.746 110.876 126.392 111.215C125.494 112.077 124.286 112.609 123.043 112.689C123.596 114.589 122.123 116.807 120.158 117.035C120.633 117.617 121.284 118.042 121.991 118.296Z" fill="#00160A"/>
<path fill-rule="evenodd" clip-rule="evenodd" d="M170.295 145.525C169.05 145.695 167.767 145.574 166.576 145.175C162.799 143.908 160.33 139.589 161.155 135.691C161.981 131.794 165.989 128.847 169.956 129.22C173.922 129.594 177.309 133.239 177.392 137.221C177.475 141.204 174.242 144.987 170.295 145.525M173.146 143.842C175.799 142.232 177.256 138.864 176.613 135.827C175.969 132.791 173.272 130.303 170.193 129.908C167.114 129.512 163.875 131.236 162.485 134.011C161.094 136.787 161.652 140.413 163.812 142.642C166.169 145.075 170.25 145.6 173.146 143.842Z" fill="#00160A"/>
<path fill-rule="evenodd" clip-rule="evenodd" d="M131.52 110.625C134.906 110.586 138.234 112.602 139.768 115.62C141.302 118.639 140.968 122.516 138.941 125.228C136.914 127.94 133.29 129.358 129.96 128.741C127.019 128.196 124.409 126.109 123.229 123.361C122.05 120.612 122.337 117.282 123.968 114.775C125.6 112.269 128.529 110.659 131.52 110.625M140.159 119.206C140.074 117.857 139.662 116.53 138.969 115.371C136.854 111.835 131.952 110.287 128.19 111.967C124.428 113.647 122.309 118.33 123.53 122.265C124.752 126.2 129.15 128.86 133.203 128.115C137.255 127.369 140.418 123.318 140.159 119.206V119.206Z" fill="#00160A"/>
<path fill-rule="evenodd" clip-rule="evenodd" d="M136.256 119.784C135.617 120.531 134.594 120.93 133.618 120.815C133.28 120.775 132.759 120.859 132.85 121.187C134.004 121.593 135.158 121.998 136.312 122.404C136.951 122.629 137.134 123.547 136.754 124.108C136.374 124.669 135.621 124.878 134.949 124.796C134.277 124.713 133.661 124.389 133.063 124.071C132.459 123.751 131.856 123.431 131.253 123.11C132.067 122.788 132.95 123.282 133.721 123.696C134.493 124.109 135.517 124.432 136.178 123.859C136.279 123.773 136.367 123.661 136.385 123.53C136.428 123.216 136.079 123.007 135.785 122.888C134.858 122.51 133.931 122.133 133.004 121.756C132.536 121.565 131.984 121.731 131.583 122.038C131.182 122.345 130.897 122.776 130.606 123.189C129.99 124.064 129.248 124.942 128.221 125.24C127.193 125.538 125.86 124.957 125.754 123.892C125.688 123.223 126.108 122.597 126.605 122.145C127.102 121.693 127.694 121.346 128.15 120.851C128.207 120.789 128.265 120.718 128.272 120.634C128.287 120.457 128.089 120.349 127.923 120.288C127.028 119.957 126.132 119.627 125.237 119.297C124.85 119.154 125.091 118.485 125.501 118.436C125.91 118.386 126.27 118.682 126.597 118.933C127.461 119.596 128.658 120.061 129.623 119.555C130.31 119.195 130.706 118.351 130.543 117.592C130.321 116.558 130.71 115.415 131.516 114.73C132.322 114.045 133.512 113.847 134.497 114.233C133.745 114.587 133.402 115.613 133.79 116.348C134.179 117.083 135.22 117.378 135.936 116.956C136.198 116.801 136.547 116.573 136.759 116.792C136.818 116.853 136.846 116.936 136.868 117.018C137.133 117.965 136.895 119.037 136.256 119.784ZM131.427 116.904C131.424 118.036 132.059 119.201 133.109 119.623C134.159 120.046 135.551 119.522 135.893 118.444C135.969 118.204 135.839 117.818 135.609 117.922C134.984 118.205 134.246 117.877 133.718 117.439C133.374 117.153 133.062 116.803 132.93 116.375C132.799 115.947 132.885 115.431 133.227 115.144C132.69 115.023 132.091 115.249 131.765 115.693C131.513 116.037 131.428 116.478 131.427 116.904ZM126.867 124.034C128.233 125.385 129.046 123.615 129.376 123.236C130.143 122.355 130.956 121.515 131.81 120.719C131.978 120.563 131.984 120.288 131.886 120.08C131.789 119.872 131.61 119.716 131.437 119.566C131.178 119.343 130.762 119.407 130.492 119.617C130.223 119.827 125.501 122.684 126.867 124.034Z" fill="#FFB61D"/>
<path fill-rule="evenodd" clip-rule="evenodd" d="M95.3096 133.44C96.5549 133.341 97.8343 133.795 98.7378 134.658C100.138 135.995 100.499 138.294 99.5772 139.996C98.6549 141.698 96.5311 142.651 94.6467 142.208C92.852 141.786 91.4145 140.142 91.2359 138.307C91.0572 136.472 92.1507 134.582 93.8304 133.822C94.2966 133.611 94.7995 133.481 95.3096 133.44M97.4707 134.842C97.0301 134.542 96.5456 134.291 96.0216 134.195C95.4254 134.085 94.8011 134.181 94.242 134.415C92.8208 135.011 91.852 136.553 91.9446 138.091C92.0371 139.629 93.1917 141.048 94.6817 141.441C96.1717 141.833 97.8822 141.16 98.6954 139.851C99.5086 138.543 99.3502 136.703 98.3165 135.56C98.0678 135.285 97.7772 135.051 97.4707 134.842V134.842Z" fill="#00160A"/>
<path fill-rule="evenodd" clip-rule="evenodd" d="M96.0278 92.8563C96.0477 94.3869 95.6565 96.0236 96.3646 97.3807C97.6763 99.8946 101.36 99.4274 104.069 98.5916C101.842 96.057 99.6155 93.5225 97.3886 90.988C102.002 86.2777 106.615 81.5673 111.228 76.857C111.613 76.4643 112.057 76.0446 112.607 76.0339C113.241 76.0215 113.736 76.5517 114.142 77.0387C115.653 78.8512 117.164 80.6637 118.676 82.4763C119.921 83.9696 121.106 86.3884 119.582 87.5958C125.299 87.2078 131.016 86.8199 136.733 86.432C135.663 80.3172 137.63 74.1241 139.572 68.228C139.766 67.6403 140 67.0011 140.537 66.6937C140.913 66.4783 141.368 66.4697 141.802 66.4667C152.24 66.3947 162.678 66.3227 173.116 66.2507C173.748 66.2464 174.415 66.2508 174.961 66.5691C175.43 66.8422 175.746 67.3105 176.042 67.7653C184.872 81.341 190.385 97.0579 191.971 113.175C192.17 115.197 192.387 117.406 193.814 118.852C195.986 121.053 196.22 124.888 194.331 127.337C195.72 128.345 195.378 130.672 194.105 131.825C192.833 132.977 191.025 133.271 189.327 133.516C187.072 133.842 184.62 134.132 182.649 132.99C185.877 132.234 189.109 131.495 192.345 130.774C190.909 121.321 189.474 111.868 188.039 102.415C187.565 99.298 187.09 96.1698 186.207 93.1428C185.257 89.8832 183.846 86.7796 182.441 83.689C180.227 78.8213 178.013 73.9536 175.799 69.0859C175.558 68.5555 175.297 68 174.821 67.6635C174.245 67.2559 173.485 67.2568 172.779 67.2736C162.953 67.5076 153.127 67.7415 143.3 67.9754C142.734 67.9889 142.123 68.0174 141.678 68.3682C141.312 68.6568 141.126 69.1124 140.966 69.5502C137.096 80.123 139.363 91.8352 141.671 102.855C142.094 104.879 139.344 105.914 137.284 106.094C113.761 108.156 90.2375 110.219 66.7142 112.281C66.4256 114.146 66.3442 116.043 66.472 117.926C68.0376 118.064 69.6031 118.201 71.1687 118.339C70.6721 118.534 70.1756 118.73 69.679 118.925C70.6047 123.79 71.1164 128.734 71.2068 133.685C71.2343 135.192 72.5404 136.432 73.979 136.881C75.4176 137.33 76.9669 137.163 78.4642 136.992C76.8703 137.659 75.2094 138.339 73.4836 138.254C71.7577 138.17 69.9506 137.081 69.6321 135.383C68.6333 130.057 68.058 124.652 67.9137 119.236C67.0066 119.258 66.0996 119.28 65.1926 119.302C64.886 117.036 64.7625 114.744 64.8239 112.458C64.8371 111.966 64.8769 111.428 65.2127 111.069C65.5493 110.708 66.0836 110.632 66.5738 110.577C69.1245 110.29 71.6752 110.004 74.2258 109.718C73.4723 104.485 72.7187 99.2518 71.9652 94.019C71.9001 93.5672 71.8439 93.0706 72.0895 92.6858C72.3625 92.2579 72.9109 92.1163 73.4077 92.0125C80.0545 90.6238 86.8183 89.7953 93.6038 89.5386C95.1334 89.4807 96.008 91.3257 96.0278 92.8563ZM75.1882 109.189C75.2051 109.338 75.2305 109.502 75.3476 109.595C75.4614 109.685 75.6221 109.676 75.7667 109.662C82.4406 109.028 89.1145 108.395 95.7884 107.761C95.9726 107.744 96.1823 107.711 96.2829 107.556C96.3618 107.434 96.3456 107.276 96.3264 107.132C95.6444 102.012 94.9624 96.8908 94.2803 91.77C94.2616 91.6294 94.2387 91.4794 94.1435 91.3741C94.0156 91.2328 93.8024 91.2181 93.6118 91.2139C87.0174 91.0696 80.4055 91.7414 73.9749 93.2092C73.7999 93.2492 73.6082 93.3008 73.5082 93.4499C73.4144 93.5896 73.4298 93.7728 73.4489 93.94C74.0287 99.0231 74.6084 104.106 75.1882 109.189ZM137.281 88.7175C137.253 88.4801 137.203 88.209 136.997 88.088C136.865 88.0109 136.703 88.0172 136.551 88.0258C130.609 88.3612 124.667 88.6967 118.725 89.0321C118.594 89.0395 118.453 89.051 118.354 89.1369C118.21 89.2624 118.218 89.485 118.238 89.6753C118.782 94.8054 119.326 99.9355 119.87 105.066C119.887 105.227 119.91 105.402 120.025 105.517C120.173 105.664 120.411 105.655 120.619 105.636C126.784 105.071 132.949 104.506 139.114 103.941C138.503 98.8663 137.892 93.7919 137.281 88.7175ZM105.364 97.3613C105.451 97.44 105.545 97.5226 105.662 97.5363C105.826 97.5556 105.969 97.4332 106.089 97.3192C110.106 93.5019 114.789 90.3512 118.806 86.5338C118.987 86.3619 119.181 86.1579 119.173 85.9085C119.167 85.7413 119.07 85.5932 118.975 85.4554C117.374 83.1258 115.006 80.199 113.209 78.0165C113.033 77.8021 112.805 77.5671 112.53 77.6021C112.354 77.6244 112.214 77.7537 112.086 77.8766C107.649 82.1508 103.213 86.4251 98.776 90.6994C98.6772 90.7946 98.5712 90.9063 98.5731 91.0434C98.5749 91.1809 98.6844 91.2898 98.7862 91.3822C100.979 93.3752 103.171 95.3683 105.364 97.3613ZM118.203 99.4596C118.169 99.2395 118.12 98.9954 117.938 98.8668C117.777 98.7527 117.561 98.7667 117.364 98.7854C111.222 99.3702 105.08 99.955 98.9387 100.54C98.6177 100.57 98.2414 100.637 98.1017 100.928C98.0247 101.088 98.0439 101.276 98.0647 101.452C98.272 103.206 98.4792 104.959 98.6865 106.713C98.7157 106.96 98.7628 107.239 98.9686 107.379C99.1333 107.491 99.3496 107.478 99.5481 107.461C105.9 106.91 112.252 106.359 118.604 105.808C118.762 105.794 118.939 105.771 119.038 105.648C119.141 105.52 119.121 105.337 119.095 105.175C118.798 103.27 118.5 101.365 118.203 99.4596ZM116.926 90.3006C116.912 90.1941 116.862 90.0573 116.755 90.0657C116.71 90.0692 116.672 90.1006 116.638 90.1305C113.478 92.8908 110.319 95.6511 107.16 98.4114C110.445 98.1359 113.727 97.8228 117.005 97.4719C117.286 97.4418 117.611 97.3835 117.746 97.1343C117.834 96.9717 117.811 96.7741 117.786 96.5908C117.5 94.4941 117.213 92.3973 116.926 90.3006ZM193.171 119.856C193.474 121.603 193.776 123.349 194.079 125.095C194.109 125.269 194.171 125.477 194.343 125.515C194.622 125.576 194.718 125.156 194.68 124.873C194.475 123.362 194.271 121.851 194.066 120.34C194.029 120.069 193.976 119.769 193.757 119.606C193.539 119.443 193.124 119.587 193.171 119.856Z" fill="#00160A"/>
<path fill-rule="evenodd" clip-rule="evenodd" d="M42.9286 154.476C37.092 154.568 17.0204 156.055 16.6736 155.31C16.2301 154.358 38.118 153.105 42.8891 153.029L44.3835 153.009C48.7215 152.962 42.9286 154.476 42.9286 154.476ZM87.5086 152.652C88.9259 152.652 90.0355 153.111 89.0813 153.446C88.1271 153.781 85.0393 154.487 79.8689 154.606C74.6985 154.724 68.7053 154.847 59.8495 155.022C59.336 155.032 58.9115 154.624 58.9014 154.11C58.8913 153.597 59.2994 153.172 59.8129 153.162L75.4943 152.843C80.2552 152.74 83.2351 152.652 87.5086 152.652ZM158.343 152.108C158.856 152.099 159.279 152.509 159.287 153.023C159.295 153.536 158.886 153.959 158.372 153.967L156.193 153.994L149.525 154.04C148.184 154.054 93.8968 154.401 93.1607 153.605C92.4247 152.809 93.5542 152.665 94.0676 152.652C94.0676 152.652 149.508 152.178 150.957 152.168L156.502 152.131C157.146 152.125 157.73 152.117 158.343 152.108ZM218.613 150.319C218.613 150.319 220.283 150.03 232.473 150.943C232.985 150.981 233.37 151.428 233.331 151.94C233.293 152.452 227.265 152.193 219.024 152.179L216.758 152.183C210.706 152.209 205.085 152.373 195.756 152.757L183.98 153.255C178.955 153.46 175.957 153.561 172.312 153.647C171.798 153.659 171.372 153.252 171.36 152.739C171.348 152.225 171.754 151.799 172.268 151.787L175.195 151.711C178.678 151.61 182.256 151.47 188.601 151.199L195.329 150.913C205.848 150.478 211.698 150.319 218.613 150.319Z" fill="#00160A"/>
</svg>
