<svg width="250" height="250" viewBox="0 0 250 250" fill="none" xmlns="http://www.w3.org/2000/svg">
<path fill-rule="evenodd" clip-rule="evenodd" d="M100.224 190.226C135.142 200.045 152.133 162.362 182.051 165.229C198.429 166.799 231.073 174.753 231 116.811C230.817 79.4041 196.339 70.0368 160.784 89.2207C150.321 93.3123 142.061 92.0442 133.093 87.9789C124.124 83.9135 112.59 65.7647 90.8509 62.031C25.4313 50.7952 -30.5437 153.452 100.224 190.226Z" fill="#23583A"/>
<path fill-rule="evenodd" clip-rule="evenodd" d="M183.203 96.1155C183.858 95.797 185.033 96.4146 184.351 97.4088C182.842 99.61 188.681 104.007 186.806 100.132C186.606 99.7181 185.578 96.8531 187.032 98.3322C188.487 99.8113 190.514 106.348 189.203 108.6C188.052 110.576 185.006 111.516 180.849 111.628L180.662 111.632L180.574 111.637C178.123 111.751 176.265 110.234 175.065 107.281L175.008 107.137C173.793 104.045 174.126 101.567 176.09 99.8956C176.126 99.8653 176.164 99.838 176.204 99.8141L176.266 99.7808L183.203 96.1155Z" fill="white"/>
<path fill-rule="evenodd" clip-rule="evenodd" d="M50.8089 38.2551C50.5231 37.8495 50.0598 37.6159 49.5652 37.6765C49.0585 37.7379 48.6349 38.0902 48.4808 38.5762L48.4396 38.7062C48.4085 38.8021 48.3714 38.912 48.3278 39.0356C48.2035 39.3884 48.0528 39.7799 47.8748 40.2011C47.3687 41.3983 46.7458 42.5932 46.0022 43.7048C44.3978 46.1032 42.4647 47.7728 40.1987 48.4159C39.8445 48.5164 39.6388 48.885 39.7394 49.2392C39.7904 49.419 43.0999 51.073 46.4784 50.656C49.7554 50.2516 53.1049 47.781 53.1319 47.6129L53.1732 47.2628L53.1849 47.1455C53.4196 44.6001 52.9741 41.7248 51.26 38.9395C51.1176 38.7081 50.9673 38.4799 50.8089 38.2551Z" fill="#E7EAEE"/>
<path fill-rule="evenodd" clip-rule="evenodd" d="M57.628 38.9951L57.6105 39.1298C57.3731 40.853 56.7079 43.2528 55.5048 45.063C54.0236 47.2917 51.9332 48.9961 49.8326 50.0945C46.8022 51.679 43.5036 51.969 40.2557 49.9106L40.1124 49.8184C38.4056 48.702 37.1104 48.1645 35.3333 48.6081C33.5561 49.0517 32.693 50.346 31.9259 51.5469L31.8907 51.5976C31.7677 51.7619 31.5878 51.8757 31.3851 51.9158L28.0156 52.4494L29.2427 53.9738C29.612 54.4359 29.8745 54.769 30.0302 54.9731L31.3789 56.7498C35.3984 62.0216 39.724 67.055 48.1593 65.3125L48.4452 65.2512C50.6801 64.7545 52.5537 66.0886 54.9043 68.0551L55.4066 68.478C56.0284 69.0042 57.9082 70.6615 58.6776 71.4592L58.9291 71.7231L59.161 71.9726C59.2094 72.0252 59.2554 72.0759 59.2991 72.1243L59.539 72.3948L59.6862 72.2208C61.2774 70.3053 62.274 67.3878 62.7899 64.981C62.9848 64.0717 63.0967 63.201 63.1432 62.3976L63.1489 62.293C63.161 62.0581 63.1664 61.8531 63.1673 61.6819V61.5548L62.927 61.6252C60.1448 62.4142 57.0147 62.4926 53.9603 62.1403C53.2226 62.0552 61.3163 55.4998 59.655 47.0101C59.2763 45.0752 59.036 42.4882 58.3747 40.7323C58.1662 40.1785 57.95 39.672 57.7358 39.2192L57.628 38.9951Z" fill="white"/>
<path fill-rule="evenodd" clip-rule="evenodd" d="M183.555 97.1634L176.63 100.53C174.97 101.942 174.688 104.043 175.783 106.831C176.167 107.81 177.129 110.141 177.129 109.225C177.129 108.939 183.555 104.739 184.787 105.15C185.927 105.53 183.88 102.105 183.305 100.53L183.555 97.0773L183.745 96.7334" fill="#E7EAEE"/>
<path fill-rule="evenodd" clip-rule="evenodd" d="M174.316 99.6904C174.776 99.6904 172.169 100.917 172.303 103.179C172.437 105.441 174.205 109.61 173.775 109.774C173.345 109.938 172.53 108.723 172.366 108.293C171.344 105.618 171.15 104.527 171.187 102.966C171.235 100.924 172.309 99.6904 174.316 99.6904Z" fill="#E7EAEE"/>
<ellipse cx="185.92" cy="101.931" rx="1.80005" ry="4.06639" fill="#E7EAEE"/>
<path fill-rule="evenodd" clip-rule="evenodd" d="M60.1885 144.805C60.1885 137.749 60.9724 134.681 69.3905 130.831C86.644 123.857 86.644 123.588 119.697 110.809C128.439 107.447 146.867 115.501 154.881 112.125C160.223 109.875 165.219 108.204 169.633 105.973C170.06 108.764 172.823 113.489 173.796 114.301C168.628 115.386 163.628 117.063 158.797 119.334C148.354 124.241 154.542 122.904 138.001 138.502C136.6 139.824 131.448 142.838 124 145.978C124 145.978 109 143.964 102.984 141.461C96.8615 138.915 87.5843 130.831 87.5843 130.831C87.5843 130.831 76.7641 137.89 70.5437 141.063C67.6322 142.548 60.1885 144.805 60.1885 144.805Z" fill="white"/>
<path fill-rule="evenodd" clip-rule="evenodd" d="M60.1891 141.139C60.1891 139.483 60.0141 138.327 60.1891 137.048C60.7595 132.88 62.9949 130.748 69.4372 127.801C86.6906 120.827 86.6446 119.922 119.698 107.143C128.439 103.781 146.868 111.835 154.881 108.459C160.224 106.209 165.22 104.538 169.633 102.307C169.646 102.387 169.187 106.201 169.187 106.201C169.187 106.201 158.29 111.954 151.083 113.175C143.425 114.471 132.906 108.459 122.403 111.416C106.408 115.919 69.5489 130.071 65.1885 133.617C61.7623 136.404 60.1891 141.139 60.1891 141.139Z" fill="#E7EAEE"/>
<path fill-rule="evenodd" clip-rule="evenodd" d="M50.8089 38.2551C50.5231 37.8495 50.0598 37.6159 49.5652 37.6765C49.0585 37.7379 48.6349 38.0902 48.4808 38.5762L48.4396 38.7062C48.4085 38.8021 48.3714 38.912 48.3278 39.0356C48.2035 39.3884 48.0528 39.7799 47.8748 40.2011C47.3687 41.3983 46.7458 42.5932 46.0022 43.7048C44.3978 46.1032 42.4647 47.7728 40.1987 48.4159C39.8445 48.5164 39.6388 48.885 39.7394 49.2392C39.8399 49.5934 45.3456 47.0845 47.1104 44.4462C47.9049 43.2585 48.566 41.9903 49.1029 40.7202C49.2649 40.337 49.4059 39.9761 49.5266 39.6429L49.5853 39.4787C49.6326 39.3446 49.6733 39.2243 49.7078 39.118C49.7165 39.0422 49.7246 39.0169 49.7321 39.0419C53.5513 41.6547 52.0499 48.1391 52.4168 48.1706C52.7669 48.2007 53.0771 47.9544 53.1319 47.6129L53.1732 47.2628L53.1849 47.1455V47.1455C53.4196 44.6001 52.9741 41.7248 51.26 38.9395C51.1176 38.7081 50.9673 38.4799 50.8089 38.2551Z" fill="#E7EAEE"/>
<path fill-rule="evenodd" clip-rule="evenodd" d="M58.7606 38.2354L58.8447 38.3856L58.9474 38.5784C59.0092 38.6971 59.0787 38.8348 59.1543 38.9903C59.4162 39.5293 59.6808 40.1392 59.9342 40.8119C60.6472 42.7053 61.1458 44.7487 61.316 46.8776C61.547 49.7666 61.1299 52.4931 60.0738 54.9734L59.9834 55.1817C59.1254 57.1193 57.8752 58.8946 56.2525 60.4874L56.0917 60.6431L56.2285 60.6497C58.5653 60.7479 60.8762 60.5387 62.9077 59.891C63.3433 59.7521 63.8183 59.8238 64.1937 60.0848C64.5682 60.3454 64.8009 60.7647 64.8244 61.2203L64.8297 61.3618L64.833 61.5487V61.5487V61.6206C64.833 61.8814 64.8254 62.1738 64.8068 62.4943C64.7555 63.3793 64.6329 64.3341 64.4192 65.3307C63.8157 68.1463 62.6089 70.7834 60.6366 73.0053C60.3748 73.3003 60.0065 73.4771 59.6151 73.498L59.5246 73.5001C59.1065 73.4922 58.7248 73.3195 58.4535 73.0243L58.2548 72.7935L58.1574 72.6828V72.6828L57.9503 72.4529L57.7235 72.2081C57.6447 72.1242 57.5628 72.038 57.4778 71.9499C56.7535 71.199 55.9543 70.4545 55.1054 69.7695C52.7525 67.8709 50.483 66.799 48.5448 66.9152C45.3742 67.1057 42.7486 66.9576 40.3127 66.2741C37.1635 65.3906 34.6907 63.6569 33.0543 60.8971L32.9626 60.7398C32.1154 59.2623 30.8641 57.5603 29.3882 55.7888C28.932 55.2414 28.4821 54.7208 28.0533 54.2393L27.8708 54.0354C27.5787 53.7104 27.3393 53.4515 27.239 53.346C26.8686 52.9557 26.7399 52.3957 26.9017 51.8836L26.9255 51.8144C27.1032 51.3359 27.5167 50.9813 28.0206 50.8818L30.7227 50.3478L30.7542 50.3023C31.721 48.928 33.1015 47.7639 34.9352 47.295C36.8479 46.8059 38.8606 47.2312 40.8876 48.5173L41.029 48.6084C43.7666 50.3989 46.4802 50.3001 49.06 48.9512C50.9028 47.9876 52.6592 46.3515 53.9901 44.3489C55.2275 42.4871 55.9631 40.4968 56.0155 38.9258C56.0374 38.2693 56.4902 37.7056 57.1271 37.5449C57.7645 37.3838 58.431 37.666 58.7606 38.2354ZM57.6277 38.9954L57.6103 39.1301C57.3729 40.8533 56.7077 43.2531 55.5045 45.0633C54.0233 47.292 51.9329 48.9964 49.8323 50.0948C46.8019 51.6793 43.5033 51.9694 40.2554 49.9109L40.1122 49.8187C38.4054 48.7024 37.1102 48.1649 35.333 48.6084C33.5559 49.052 32.6928 50.3463 31.9256 51.5472L31.8905 51.598C31.7675 51.7623 31.5876 51.876 31.3848 51.9161L28.0154 52.4498L29.2424 53.9741C29.6117 54.4362 29.8742 54.7693 30.03 54.9734L31.3786 56.7502C35.3981 62.0219 39.7238 67.0553 48.1591 65.3128L48.445 65.2515C50.6798 64.7548 52.5535 66.089 54.9041 68.0554L55.4063 68.4783C56.0281 69.0045 57.9079 70.6618 58.6774 71.4595L58.9288 71.7234L59.1608 71.9729C59.2091 72.0256 59.2552 72.0762 59.2989 72.1247L59.5387 72.3951L59.6859 72.2212C61.2772 70.3056 62.2737 67.3881 62.7896 64.9814C62.9846 64.072 63.0964 63.2013 63.1429 62.3979L63.1487 62.2933C63.1608 62.0585 63.1662 61.8534 63.1671 61.6822V61.5551L62.9267 61.6256C60.1446 62.4146 57.0144 62.493 53.9601 62.1406C53.2223 62.0555 61.3161 55.5001 59.6547 47.0104C59.2761 45.0755 59.0358 42.4885 58.3745 40.7326C58.1659 40.1788 57.9497 39.6724 57.7355 39.2195L57.6277 38.9954Z" fill="#E7EAEE"/>
<path fill-rule="evenodd" clip-rule="evenodd" d="M36.5003 54.0003C37.1436 54.0003 37.667 53.477 37.667 52.8337C37.667 52.1903 37.1436 51.667 36.5003 51.667C35.857 51.667 35.3337 52.1903 35.3337 52.8337C35.3337 53.4769 35.857 54.0003 36.5003 54.0003Z" fill="#00160A"/>
<ellipse cx="37.5003" cy="57.167" rx="1.83333" ry="1.5" fill="#FFB61D"/>
<ellipse cx="37.5003" cy="57.167" rx="1.83333" ry="1.5" fill="#FFB61D"/>
<path fill-rule="evenodd" clip-rule="evenodd" d="M58.7606 38.2354L58.8448 38.3856L58.9475 38.5784C59.0093 38.6971 59.0788 38.8348 59.1543 38.9903C59.4163 39.5293 59.6809 40.1392 59.9342 40.8119C60.6473 42.7053 61.1459 44.7487 61.3161 46.8776C61.5471 49.7666 61.13 52.4931 60.0739 54.9734L59.9835 55.1817C59.1254 57.1193 57.8753 58.8946 56.2526 60.4874L56.0918 60.6431L56.2285 60.6497C58.5653 60.7479 60.8763 60.5387 62.9078 59.891C63.3434 59.7521 63.8184 59.8238 64.1938 60.0848C64.5683 60.3454 64.801 60.7647 64.8245 61.2203L64.8298 61.3618L64.8331 61.5487V61.6206C64.8331 61.8814 64.8254 62.1738 64.8069 62.4943C64.7556 63.3793 64.633 64.3341 64.4193 65.3307C63.8158 68.1463 62.609 70.7834 60.6366 73.0053C60.3749 73.3003 60.0066 73.4771 59.6152 73.498L59.5247 73.5001C59.1066 73.4922 58.7249 73.3195 58.4535 73.0243L58.2549 72.7935L58.1574 72.6828L57.9504 72.4529L57.7236 72.2081C57.6448 72.1242 57.5628 72.038 57.4778 71.9499C56.7536 71.199 55.9544 70.4545 55.1055 69.7695C52.7526 67.8709 50.4831 66.799 48.5449 66.9152C45.3743 67.1057 42.7487 66.9576 40.3127 66.2741C37.1636 65.3906 34.6908 63.6569 33.0544 60.8971L32.9627 60.7398C32.1155 59.2623 30.8642 57.5603 29.3883 55.7888C28.9321 55.2414 28.4822 54.7208 28.0534 54.2393L27.8709 54.0354C27.5788 53.7104 27.3394 53.4515 27.2391 53.346C26.8687 52.9557 26.74 52.3957 26.9018 51.8836L26.9256 51.8144C27.1033 51.3359 27.5168 50.9813 28.0207 50.8818L30.7228 50.3478L30.7542 50.3023C31.7211 48.928 33.1015 47.7639 34.9353 47.295C36.7403 46.8335 38.6344 47.1862 40.5454 48.3082C42.6623 47.5988 44.4798 45.9796 46.0016 43.7046C46.7452 42.593 47.3681 41.3981 47.8742 40.2009C48.0523 39.7797 48.2029 39.3882 48.3272 39.0354C48.3708 38.9118 48.4079 38.8019 48.4391 38.706L48.4802 38.576C48.6343 38.09 49.058 37.7377 49.5646 37.6763C50.0593 37.6157 50.5225 37.8493 50.8083 38.2549C50.9668 38.4797 51.1171 38.7079 51.2595 38.9393C52.5899 41.1013 53.1561 43.3176 53.2331 45.3917C53.4979 45.0571 53.7509 44.709 53.9902 44.3489C55.2276 42.4871 55.9631 40.4968 56.0156 38.9258C56.0375 38.2693 56.4903 37.7056 57.1272 37.5449C57.7646 37.3838 58.4311 37.666 58.7606 38.2354ZM49.0601 48.9512C46.5542 50.2615 43.9221 50.3922 41.2644 48.7577C43.0538 47.9303 45.925 46.2173 47.1099 44.4459C47.9043 43.2583 48.5655 41.9901 49.1024 40.72C49.2643 40.3368 49.4053 39.9758 49.5261 39.6427L49.5848 39.4785C49.6321 39.3444 49.6727 39.2241 49.7072 39.1178C49.7159 39.042 49.724 39.0167 49.7315 39.0417C52.2702 40.7785 52.458 44.2259 52.4063 46.3516C51.3858 47.4405 50.2407 48.3339 49.0601 48.9512ZM49.8324 50.0948C50.8493 49.5631 51.8639 48.8893 52.808 48.0828C52.8807 48.0405 52.945 47.9848 52.9971 47.9187C53.9302 47.0956 54.7886 46.1407 55.5046 45.0633C56.7077 43.2531 57.373 40.8533 57.6104 39.1301L57.6278 38.9954L57.7356 39.2195C57.9498 39.6724 58.166 40.1788 58.3746 40.7326C58.8348 41.9546 59.0911 43.5791 59.332 45.1062C59.4373 45.7734 59.5396 46.4221 59.6548 47.0104C60.9282 53.5174 56.4708 58.8881 54.6516 61.08L54.6516 61.08C54.0973 61.748 53.7879 62.1207 53.9602 62.1406C57.0145 62.493 60.1447 62.4146 62.9268 61.6256L63.1671 61.5551V61.6822C63.1663 61.8534 63.1609 62.0585 63.1488 62.2933L63.143 62.3979C63.0965 63.2013 62.9846 64.072 62.7897 64.9814C62.2738 67.3881 61.2773 70.3056 59.686 72.2212L59.5388 72.3951L59.299 72.1247C59.2553 72.0762 59.2092 72.0256 59.1609 71.9729L58.9289 71.7234L58.6775 71.4595C57.908 70.6618 56.0282 69.0045 55.4064 68.4783L54.9042 68.0554C52.5536 66.089 50.6799 64.7548 48.4451 65.2515L48.1592 65.3128C39.7239 67.0553 35.3982 62.0219 31.3787 56.7502L30.03 54.9734C29.8743 54.7693 29.6118 54.4362 29.2425 53.9741L28.0155 52.4498L31.3849 51.9161C31.5877 51.876 31.7676 51.7623 31.8905 51.598L31.9257 51.5472C32.6928 50.3463 33.556 49.052 35.3331 48.6084C37.1103 48.1649 38.4055 48.7024 40.1122 49.8187L40.2555 49.9109C43.5034 51.9694 46.802 51.6793 49.8324 50.0948ZM183.203 96.1153C183.858 95.7968 185.033 96.4144 184.351 97.4086C183.319 98.9135 184.466 102.408 185.164 104.537C185.488 105.521 185.715 106.214 185.586 106.281C185.178 106.494 184.674 106.337 184.461 105.929C183.307 103.72 182.644 101.966 182.479 100.633C182.396 99.9693 182.378 99.3276 182.425 98.7084L182.431 98.6369L177.094 101.231L177.027 101.293C175.822 102.423 175.292 103.735 176.174 106.059L176.226 106.194C177.183 108.631 178.803 110.378 180.488 110.306L180.62 110.299C184.366 110.224 186.604 109.097 187.403 107.724C188.408 105.998 188.681 104.007 186.806 100.132C186.606 99.7179 185.578 96.8529 187.032 98.332C188.487 99.8111 190.514 106.347 189.203 108.599C188.108 110.479 185.299 111.422 181.449 111.605C181.472 111.703 181.477 111.807 181.461 111.912C181.096 114.387 179.967 115.944 178.078 116.394C176.634 116.739 175.081 116.282 173.66 115.183C168.664 116.256 163.828 117.891 159.152 120.088L158.459 120.416C156.073 121.556 154.705 122.32 153.706 123.063C153.12 123.498 152.636 123.944 152.116 124.518L152.032 124.614C151.779 124.907 151.229 125.579 150.602 126.344C149.768 127.363 148.8 128.545 148.223 129.214L147.944 129.535C145.597 132.224 142.639 135.275 138.573 139.109L138.459 139.214C136.935 140.576 132.884 142.879 127.833 145.201C141.773 144.706 151.826 139.385 158.086 129.23C158.361 128.783 158.976 128.699 159.361 129.055C170.126 139.025 182.598 143.638 196.827 142.918C211.093 142.196 221.562 138.488 228.267 131.83C228.593 131.506 229.121 131.508 229.445 131.835C229.769 132.161 229.767 132.689 229.441 133.013C222.408 139.997 207.476 145.237 192.833 145.978C178.593 146.7 170.096 140.832 159.232 131.188L158.966 130.951L158.871 131.097C151.99 141.524 137.041 149.13 122.123 149.238L121.655 149.239C106.396 149.239 97.5959 141.851 87.3012 131.752L87.221 131.673L87.1843 131.704C86.8821 131.958 86.5824 132.211 86.2851 132.461C76.6387 140.579 69.441 146.636 58.6138 148.183L58.2685 148.232C46.0606 150.702 27.5459 144.122 24.7007 140.898C22.0938 137.943 25.1345 139.779 25.9692 140.284C26.0455 140.33 26.1034 140.365 26.1368 140.384C34.2168 145.01 43.5328 146.772 54.7099 145.247C56.2525 145.037 57.7853 144.758 59.3083 144.411L59.2907 144.247C58.8027 139.612 58.7998 137.586 59.503 135.261C60.4596 132.098 62.7817 129.695 66.9591 127.784L68.1093 127.275C73.2693 125.001 77.3674 123.294 81.618 121.635L81.9293 121.514C82.406 121.328 82.889 121.142 83.3819 120.953L83.865 120.768C84.0396 120.707 86.3168 119.804 89.7785 118.432L89.7792 118.431L89.7833 118.43C97.7685 115.264 112.05 109.602 121.367 106C123.383 105.224 125.824 104.967 128.818 105.121L129.076 105.136C131.319 105.268 133.525 105.572 137.142 106.198L140.319 106.754C143.867 107.369 145.587 107.611 147.594 107.754C148.225 107.799 148.825 107.854 149.394 107.907C151.505 108.103 153.204 108.261 154.557 107.691C155.761 107.184 156.942 106.695 158.098 106.215L158.098 106.215C161.881 104.646 165.409 103.182 168.683 101.555C168.907 100.099 169.481 99.0241 170.38 98.3161C171.767 97.2241 173.73 97.2057 175.432 97.8678C175.861 98.0346 176.074 98.5175 175.907 98.9465C175.853 99.0853 175.506 99.0213 175.015 98.9309C173.99 98.7417 172.335 98.4365 171.411 99.6255C170.384 100.948 170.042 102.975 170.952 106.965C171.612 109.856 175.886 114.773 177.692 114.773C179.704 114.773 180.175 112.819 180.442 111.71L180.459 111.641C178.065 111.703 176.246 110.188 175.065 107.281L175.008 107.137C173.793 104.045 174.126 101.566 176.09 99.8954L176.102 99.8854L176.111 99.8779L176.125 99.8669L176.141 99.8553L176.152 99.8472C176.169 99.8355 176.186 99.8244 176.204 99.8139L176.266 99.7806L183.203 96.1153ZM172.122 113.676C172.038 113.575 171.955 113.47 171.873 113.364C171.841 113.33 171.811 113.296 171.784 113.264C171.709 113.172 171.631 113.079 171.551 112.983L171.551 112.983L171.551 112.983C170.905 112.207 170.157 111.308 169.571 110.012L169.486 109.823C168.546 107.718 168.434 105.352 168.492 103.402L168.5 103.176L168.451 103.201C164.567 105.123 160.342 107.051 155.777 108.985L155.204 109.227C153.25 110.051 150.808 110.632 147.715 110.432L147.475 110.416C145.362 110.265 143.584 110.013 139.856 109.366L137.073 108.878C129.228 107.519 125.302 107.307 122.067 108.517C122.067 108.517 73.8224 126.665 67.6435 129.304C63.8857 131.022 62.6108 132.64 61.0567 135.261C60.2529 136.616 60.3342 140.356 60.3906 142.953C60.4001 143.389 60.4089 143.793 60.4126 144.147C69.5348 141.866 78.3035 137.123 86.7244 129.909C87.0563 129.624 87.5516 129.645 87.859 129.956C88.5402 130.644 89.2329 131.31 89.9369 131.952L124.678 117.437C124.774 117.397 124.872 117.377 124.969 117.373C125.231 117.25 125.513 117.148 125.816 117.067C128.845 116.262 131.265 117.572 132.936 120.797L135.964 118.588C136.411 118.263 137.045 118.454 137.237 118.972C140 126.441 139.195 131.558 134.645 134.027C130.056 136.517 126.065 134.464 122.954 128.241C122.796 127.925 122.858 127.56 123.077 127.314C122.335 124.301 122.197 121.9 122.702 120.162L92.2639 133.956C96.8154 137.651 101.813 140.438 107.261 142.317C107.386 142.198 107.52 142.096 107.653 142.023C112.242 139.509 123.547 136.573 126.34 135.848C126.581 135.785 126.759 135.739 126.864 135.711C128.174 135.36 126.831 136.584 126.436 136.767L126.385 136.788L109.885 143.143C114.793 144.541 120.049 145.239 125.655 145.239C125.974 145.239 126.291 145.237 126.606 145.232L126.975 144.992L126.975 144.992C130.504 142.699 136.405 138.863 137.43 137.897L137.908 137.445C141.305 134.148 143.834 130.986 146.041 128.225C148.462 125.196 150.497 122.651 152.868 120.944C154.711 119.617 155.379 119.313 156.949 118.601L156.95 118.6C157.37 118.41 157.854 118.19 158.443 117.913C162.608 115.956 167.337 114.823 171.777 113.759L172.122 113.676ZM126.244 118.678C128.645 118.04 130.443 119.167 131.813 122.316L131.856 122.529C132.363 125.143 132.145 126.606 131.451 126.995C130.794 127.364 130.147 127.003 129.31 125.492C129.201 125.296 129.023 125.159 128.822 125.098C128.649 125.046 128.457 125.049 128.275 125.121L124.61 126.567L124.519 126.165C123.517 121.624 124.17 119.229 126.244 118.678ZM85.9126 156.532C86.2996 156.283 88.971 154.979 86.592 157.429C84.2129 159.879 65.6851 170.272 55.6836 170.848C46.044 171.402 37.4853 167.377 30.0389 162.108L29.7921 161.932L29.7429 161.995C29.4132 162.413 29.0745 162.792 28.7265 163.133L28.5767 163.276C27.946 163.868 26.8543 164.539 25.2771 165.318C24.8645 165.521 23.4064 165.709 24.1609 164.94C24.9154 164.17 26.5667 163.062 27.5285 162.427C28.157 162.012 28.3555 161.527 28.5524 161.045C28.6568 160.79 28.7608 160.535 28.9281 160.293C29.1969 159.904 29.7351 159.817 30.1134 160.1C37.4542 165.602 46.0296 168.535 55.6836 167.979C65.3775 167.421 75.3891 163.303 85.9126 156.532ZM142.928 161.845C143.267 161.533 143.267 159.306 142.928 159.618C139.184 163.073 131.345 166.112 121.672 166.669C111.987 167.226 104.372 165.703 98.8134 162.129C98.4263 161.88 96.5101 161.221 97.6617 162.379C98.8134 163.536 111.758 169.575 121.768 168.999L122.068 168.981C131.931 168.379 138.885 165.576 142.928 161.845ZM136.091 120.744L136.041 120.595L133.532 122.425L133.578 122.684C134.083 125.635 133.739 127.564 132.34 128.406L132.266 128.449C130.808 129.267 129.435 128.689 128.287 127.008L128.236 126.934L124.863 128.296L124.941 128.438C127.519 133.092 130.378 134.386 133.741 132.62L133.85 132.562C137.228 130.729 138.06 126.988 136.208 121.107L136.091 120.744ZM37.6664 52.8335C37.6664 53.4768 37.1431 54.0001 36.4998 54.0001C35.8564 54.0001 35.3331 53.4767 35.3331 52.8335C35.3331 52.1901 35.8564 51.6668 36.4998 51.6668C37.1431 51.6668 37.6664 52.1901 37.6664 52.8335Z" fill="#00160A"/>
</svg>
