<svg width="375" height="375" viewBox="0 0 375 375" fill="none" xmlns="http://www.w3.org/2000/svg">
<path fill-rule="evenodd" clip-rule="evenodd" d="M178.304 280.152C132.049 270.029 70.4194 249.94 80.5469 181.009C90.6743 112.078 134.087 85.5 187.797 85.5C241.505 85.5 302.526 126.021 290.547 209.962C278.568 293.904 224.558 290.276 178.304 280.152ZM330.34 197.061C332.25 177.881 330.221 158.903 324.769 141.112L340.323 132.781C342.945 131.377 343.931 128.115 342.529 125.494L321.294 85.849C319.888 83.2282 316.625 82.2418 314.004 83.6455L298.45 91.9772C286.659 77.5846 271.985 65.3799 254.963 56.3417L260.066 39.4595C260.928 36.6136 259.318 33.6094 256.471 32.749L213.422 19.7318C210.575 18.8714 207.573 20.4807 206.711 23.3266L201.609 40.2089C182.425 38.2994 168.45 45.3287 150.659 50.7769L142.327 35.2228C140.924 32.6019 137.661 31.6155 135.04 33.0193L95.3958 54.2555C92.775 55.6592 91.7886 58.9216 93.1923 61.542L101.524 77.0965C87.1313 88.8874 69.9267 98.5612 60.8885 115.586L44.0059 110.481C41.1604 109.621 38.1558 111.23 37.2954 114.076L24.2787 157.125C23.4183 159.971 25.0276 162.975 27.8731 163.836L44.7557 168.941C42.8462 188.12 44.8755 207.099 50.3237 224.889L34.7696 233.221C32.1488 234.625 31.1624 237.887 32.5661 240.508L53.8023 280.152C55.206 282.773 58.4684 283.76 61.0888 282.355L76.6434 274.024C88.4342 288.417 103.108 300.622 120.133 309.66L115.028 326.542C114.168 329.387 115.777 332.392 118.622 333.252L161.673 346.267C164.515 347.13 167.522 345.52 168.384 342.673L173.486 325.793C192.665 327.702 211.645 325.672 229.436 320.224L237.765 335.779C239.171 338.399 242.434 339.384 245.056 337.982L284.7 316.746C287.318 315.342 288.308 312.079 286.902 309.459L278.568 293.904C292.963 282.114 305.166 267.44 314.207 250.415L331.087 255.52C333.934 256.38 336.941 254.771 337.798 251.925L350.814 208.876C351.676 206.031 350.067 203.026 347.22 202.166L330.34 197.061Z" fill="#23583A"/>
<path fill-rule="evenodd" clip-rule="evenodd" d="M247.046 100.275L245.547 100.225L245.505 101.557C245.434 103.953 245.467 106.517 245.502 109.312C245.527 111.26 245.554 113.321 245.547 115.515L245.298 119.849C245.305 123.887 245.333 129.506 245.383 136.708L245.547 157.21C244.445 157.576 243.617 158.527 243.451 159.684C242.542 159.823 241.844 160.595 241.844 161.523C241.844 162.181 242.194 162.759 242.72 163.09L242.079 164.641C241.794 165.329 241.324 165.918 240.72 166.343C238.07 168.207 236.511 171.226 236.548 174.418C236.548 174.503 236.551 174.587 236.554 174.672C236.565 174.978 236.828 175.214 237.141 175.205C237.453 175.194 237.697 174.937 237.685 174.631C237.682 174.556 237.681 174.481 237.68 174.405C237.647 171.574 239.53 168.897 241.88 167.244C242.659 166.697 243.263 165.94 243.629 165.057L243.82 163.385H244.625C244.625 163.385 244.905 164.89 244.905 166.067C244.905 167.243 244.625 169.574 244.625 169.574H243.698C242.635 169.574 241.77 170.421 241.77 171.462C241.77 172.503 242.635 173.35 243.698 173.35H243.83C244.893 173.35 245.258 172.806 245.258 171.462C245.258 170.758 245.335 170.255 246.484 170.255C247.632 170.255 247.336 171.462 247.336 171.462C247.336 172.503 248.201 173.35 249.263 173.35H249.396C250.459 173.35 251.323 172.503 251.323 171.462C251.323 170.421 249.531 169.54 248.468 169.54C248.468 169.54 248.185 167.423 248.185 166.343C248.185 165.434 248.468 163.574 248.468 163.574H247.336C247.336 163.574 247.572 165.31 247.572 166.369C247.572 167.429 247.336 169.54 247.336 169.54C247.336 169.54 246.712 169.653 246.414 169.659C246.117 169.666 245.758 169.574 245.758 169.574C245.758 169.574 245.509 167.408 245.509 166.369C245.509 165.33 245.758 163.385 245.758 163.385H247.336H248.468H249.273L249.965 165.057C250.312 165.897 251.353 166.634 252.145 167.196L252.246 167.267C254.543 168.898 255.415 171.529 255.415 174.305C255.415 176.649 254.476 178.846 252.771 180.492C251.067 182.137 248.81 183.524 246.414 183.49C244.515 183.463 242.572 182.416 241.054 181.282C239.584 180.183 237.68 177.178 237.363 176.485C237.046 175.791 236.897 176.886 236.989 177.178C237.599 179.112 238.847 180.859 240.503 182.096C242.215 183.376 244.254 184.068 246.398 184.099C249.099 184.137 251.644 183.137 253.566 181.282C255.488 179.426 256.547 176.948 256.547 174.305C256.547 171.175 255.001 168.209 252.41 166.369C251.78 165.921 251.297 165.323 251.014 164.64L250.373 163.091C250.9 162.759 251.25 162.181 251.25 161.524C251.25 160.595 250.552 159.823 249.643 159.684C249.456 158.38 248.427 157.337 247.113 157.1L247.04 157.1L246.172 138.035C246.12 130.778 246.799 116.273 246.799 116.273C246.811 110.695 246.879 105.805 247.004 101.602L247.046 100.275ZM249.263 172.24C248.825 172.24 248.468 171.891 248.468 171.462V170.255C248.468 170.255 250.191 170.6 250.191 171.462M249.263 172.24H249.396ZM249.396 172.24C249.432 172.24 249.468 172.241 249.503 172.242ZM242.469 171.462C242.543 172.546 244.792 173.019 244.625 171.462V170.255C244.625 170.255 242.396 170.377 242.469 171.462ZM244.606 159.662C244.814 158.801 245.605 158.158 246.547 158.158C247.489 158.158 248.281 158.801 248.489 159.662H244.606ZM249.35 160.771H249.108H243.986H243.744C243.321 160.771 242.976 161.109 242.976 161.523C242.976 161.938 243.321 162.276 243.744 162.276H249.35C249.774 162.276 250.118 161.938 250.118 161.523C250.118 161.109 249.774 160.771 249.35 160.771ZM259.052 165.6H260.042C260.321 165.6 260.547 165.376 260.547 165.1C260.547 164.824 260.321 164.6 260.042 164.6H259.052C258.773 164.6 258.547 164.824 258.547 165.1C258.547 165.376 258.773 165.6 259.052 165.6ZM258.266 169.14L259.218 169.54C259.486 169.653 259.617 169.973 259.509 170.255C259.401 170.537 259.096 170.673 258.828 170.56L257.876 170.16C257.607 170.047 257.477 169.727 257.585 169.445C257.667 169.23 257.863 169.1 258.071 169.1C258.136 169.1 258.202 169.113 258.266 169.14ZM257.416 160.986L258.308 160.27C258.56 160.068 258.622 159.668 258.448 159.377C258.341 159.197 258.168 159.1 257.992 159.1C257.884 159.1 257.774 159.137 257.678 159.214L256.786 159.93C256.534 160.132 256.471 160.532 256.645 160.823C256.819 161.115 257.164 161.188 257.416 160.986ZM233.542 165.6H232.552C232.273 165.6 232.047 165.376 232.047 165.1C232.047 164.824 232.273 164.6 232.552 164.6H233.542C233.821 164.6 234.047 164.824 234.047 165.1C234.047 165.376 233.821 165.6 233.542 165.6ZM234.328 169.14L233.376 169.54C233.107 169.653 232.977 169.973 233.085 170.255C233.192 170.537 233.497 170.673 233.766 170.56L234.718 170.16C234.986 170.047 235.117 169.727 235.009 169.445C234.927 169.23 234.731 169.1 234.523 169.1C234.458 169.1 234.392 169.113 234.328 169.14ZM235.178 160.986L234.286 160.27C234.034 160.068 233.971 159.668 234.145 159.377C234.253 159.197 234.426 159.1 234.601 159.1C234.71 159.1 234.82 159.137 234.916 159.214L235.808 159.93C236.06 160.132 236.122 160.532 235.948 160.823C235.774 161.115 235.429 161.188 235.178 160.986Z" fill="#FFB61D"/>
<path d="M173.183 239.891C178.698 241.343 181.528 244.797 183.918 248.015C186.313 251.232 181.048 249.701 178.143 248.54C175.238 247.379 168.243 243.084 168.243 243.084L145.053 236.07V225.344L151.988 224.939C151.988 224.939 167.663 238.439 173.183 239.891Z" fill="white"/>
<path d="M149.153 161.335C154.113 180.107 156.673 198.068 157.078 215.299C157.078 215.299 161.723 215.879 161.143 219.944C160.563 224.008 148.368 235.04 148.368 235.04L144.143 221.035L142.563 169.429L149.153 161.335" fill="white"/>
<path fill-rule="evenodd" clip-rule="evenodd" d="M150.845 170.942L147.997 169.053C147.815 168.932 147.575 169.026 147.509 169.244L146.516 172.542C146.434 172.817 146.681 173.074 146.937 172.98L150.778 171.571C151.04 171.475 151.08 171.098 150.845 170.942ZM150.5 171.488L147 172.5L148.042 169.5L150.5 171.488Z" fill="#FFB61D"/>
<path fill-rule="evenodd" clip-rule="evenodd" d="M149.595 194.692L146.747 192.803C146.565 192.682 146.325 192.776 146.259 192.994L145.266 196.292C145.184 196.567 145.431 196.824 145.687 196.73L149.528 195.321C149.79 195.225 149.83 194.848 149.595 194.692ZM149.25 195.238L145.75 196.25L146.792 193.25L149.25 195.238Z" fill="#FFB61D"/>
<path fill-rule="evenodd" clip-rule="evenodd" d="M148.098 208.036L148.31 204.625C148.323 204.407 148.122 204.246 147.901 204.298L144.548 205.087C144.269 205.153 144.169 205.495 144.379 205.67L147.52 208.292C147.734 208.471 148.08 208.317 148.098 208.036ZM147.453 208.01L144.826 205.485L147.945 204.887L147.453 208.01Z" fill="#FFB61D"/>
<path fill-rule="evenodd" clip-rule="evenodd" d="M153.496 205.519L150.085 205.307C149.867 205.294 149.706 205.495 149.758 205.716L150.547 209.069C150.613 209.348 150.955 209.448 151.13 209.238L153.752 206.097C153.931 205.883 153.777 205.537 153.496 205.519ZM153.469 206.164L150.944 208.791L150.347 205.672L153.469 206.164Z" fill="#FFB61D"/>
<path fill-rule="evenodd" clip-rule="evenodd" d="M150.863 222.907L147.803 224.429C147.607 224.526 147.568 224.781 147.724 224.946L150.084 227.456C150.28 227.665 150.627 227.579 150.674 227.311L151.374 223.279C151.421 223.004 151.115 222.781 150.863 222.907ZM151.163 223.479L150.29 227.016L148.212 224.614L151.163 223.479Z" fill="#FFB61D"/>
<path fill-rule="evenodd" clip-rule="evenodd" d="M152.363 213.407L149.303 214.929C149.107 215.026 149.068 215.281 149.224 215.446L151.584 217.956C151.78 218.165 152.127 218.079 152.174 217.811L152.874 213.779C152.921 213.504 152.615 213.281 152.363 213.407ZM152.663 213.979L151.79 217.516L149.712 215.114L152.663 213.979Z" fill="#FFB61D"/>
<path d="M132.524 172.623L129.159 182.781C121.467 206.046 117.68 217.854 117.566 218.962C117.496 219.649 117.913 220.163 118.556 220.338C118.942 220.443 119.415 220.437 120.002 220.35C120.915 220.215 122.136 219.872 123.611 219.363C124.751 218.969 125.982 218.497 127.23 217.986L127.755 217.769C127.925 217.698 128.091 217.629 128.252 217.561L129.085 217.201L129.323 217.096L129.462 216.876C129.707 216.485 130.058 215.793 130.403 214.844C130.706 214.01 130.948 213.118 131.107 212.174L131.163 211.818C131.213 211.472 131.688 210.67 132.669 209.302L133.352 208.366C133.913 207.611 134.991 206.167 135.099 206.021L135.734 205.163C136.34 204.337 136.869 203.599 137.385 202.855C139.978 199.122 141.81 195.855 142.891 192.711C143.808 190.044 144.129 187.572 143.766 185.301C143.21 181.833 143.423 178.52 144.235 175.41C144.909 172.826 142.776 170.442 139.702 169.566C136.525 168.66 133.498 169.686 132.524 172.623Z" fill="white"/>
<path d="M138.155 157.602C140.029 159.591 141.602 161.108 142.873 162.152C145.013 163.912 148.082 165.797 152.079 167.81C139.854 170.641 132.389 171.2 129.684 169.489C129.684 169.489 130.811 164.188 132.429 161.916C133.634 160.225 138.155 157.602 138.155 157.602Z" fill="white"/>
<path d="M157.602 132.046C155.062 141.693 148.122 151.765 140.732 149.82C133.342 147.874 129.252 134.689 131.792 125.042C134.332 115.395 142.382 109.151 149.772 111.096C157.162 113.041 160.142 122.4 157.602 132.046" fill="white"/>
<path d="M159.292 135.123C156.418 146.163 148.564 157.689 140.2 155.463C131.837 153.236 127.209 138.147 130.083 127.107C132.958 116.067 142.068 108.922 150.431 111.147C158.794 113.373 162.167 124.083 159.292 135.123" fill="white"/>
<path fill-rule="evenodd" clip-rule="evenodd" d="M145.946 112.417C151.645 112.741 155.804 114.613 158.136 117.912L158.399 118.293C159.552 119.958 160.522 121.005 160.946 124.155L160.986 124.489C161.229 126.562 161.3 128.747 161.175 129.473C161.108 129.779 160.976 129.886 160.811 129.854C160.434 129.78 159.458 128.047 157.884 124.654L156.563 126.2C155.844 127.031 154.32 127.813 153.416 128.402C152.513 128.99 145.946 112.417 145.946 112.417Z" fill="#E7EAEE"/>
<path fill-rule="evenodd" clip-rule="evenodd" d="M151.7 143.755C154.874 145.079 157.284 146.798 157.924 146.083C158.563 145.368 156.383 143.191 154.689 140.234C152.916 137.294 151.232 133.59 150.917 132.083L150.111 128.274C147.753 131.25 145.545 141.234 151.7 143.755Z" fill="white"/>
<path d="M188.594 325.561L188.422 336.152H182.398L180.594 324L188.594 325.561" fill="white"/>
<path d="M122.62 269.244C122.62 269.244 161.707 268.381 173.994 266.609C187.634 264.641 195.093 259.992 198.059 260.541C199.449 260.799 207.654 262.253 224.773 264.074C232.014 264.844 250.808 264.962 250.808 264.962L258.103 249.436C258.103 249.436 206.771 239.13 190.541 243.591C185.436 244.994 174.382 247.019 161.238 246.279C149.873 245.64 118.962 239.636 118.962 239.636C118.962 239.636 106.481 244.116 108.74 255.133C110.999 266.151 122.62 269.244 122.62 269.244Z" fill="white"/>
<path fill-rule="evenodd" clip-rule="evenodd" d="M253.92 256.078L256.323 249.121C256.323 249.121 205.077 239.562 188.848 244.023C183.743 245.426 179.13 247.739 165.987 247C160.955 246.717 152.352 245.539 140.178 243.467C134.02 242.419 133.03 242.807 137.871 245.972C149.095 253.312 174.061 251.582 196.714 248.274C238.815 242.127 253.92 256.078 253.92 256.078Z" fill="#E7EAEE"/>
<path d="M181.794 327.966C179.244 330.783 175.864 335.423 177.604 340.068L207.799 349.358C207.799 349.358 208.959 345.873 207.219 342.973C205.474 340.068 189 328.608 189 328.608L181.794 327.966Z" fill="white"/>
<path fill-rule="evenodd" clip-rule="evenodd" d="M195.731 334.258C195.931 334.204 196.137 334.322 196.191 334.522C196.245 334.722 196.127 334.928 195.927 334.982C194.943 335.249 194.296 335.87 194.068 336.657C193.773 337.674 193.741 338.715 194.075 340.38C194.116 340.583 193.984 340.781 193.781 340.821C193.578 340.862 193.381 340.731 193.34 340.527C192.982 338.747 193.018 337.584 193.347 336.448C193.649 335.407 194.498 334.592 195.731 334.258Z" fill="#E7EAEE"/>
<path fill-rule="evenodd" clip-rule="evenodd" d="M179.104 340.568L208.809 349.308C208.809 349.308 212.582 348.515 208.681 347.961C204.673 347.392 181.207 336.646 178.626 338.603C178.259 338.882 178.876 339.961 179.104 340.568Z" fill="#E7EAEE"/>
<path d="M105.086 267.028C105.086 267.028 118.49 271.259 129.284 272.845C140.078 274.431 161.608 275.333 161.608 275.333C161.608 275.333 168.33 278.987 168.764 280.68C168.933 281.339 169.951 290.048 172.768 301.174C174.092 306.408 181.171 330.076 181.171 330.076L190.541 325.928C190.541 325.928 190.165 282.427 184.184 267.999C178.203 253.571 116.721 239.557 116.721 239.557C116.721 239.557 103.673 237.197 100.121 247.868C96.5684 258.539 105.086 267.028 105.086 267.028Z" fill="white"/>
<path fill-rule="evenodd" clip-rule="evenodd" d="M182.672 328.576L192.042 324.428C191.791 295.427 189.672 276.118 185.684 266.499C185.684 266.499 189.759 317.705 182.672 328.576Z" fill="#E7EAEE"/>
<path d="M264.378 256.65C266.71 259.65 270.692 263.785 275.569 262.878L289.961 234.755C289.961 234.755 286.258 233.117 283.1 234.326C279.936 235.541 266.024 250.058 266.024 250.058L264.378 256.65Z" fill="white"/>
<path fill-rule="evenodd" clip-rule="evenodd" d="M201.866 339.253C202.015 339.109 202.253 339.114 202.396 339.264C202.539 339.414 202.534 339.651 202.385 339.794C201.513 340.629 201.352 342.028 201.852 342.872C201.957 343.051 201.898 343.281 201.72 343.386C201.542 343.492 201.312 343.433 201.206 343.255C200.532 342.116 200.738 340.333 201.866 339.253Z" fill="#E7EAEE"/>
<path fill-rule="evenodd" clip-rule="evenodd" d="M198.802 336.779C198.953 336.638 199.19 336.645 199.332 336.796C199.474 336.947 199.467 337.184 199.316 337.326L199.113 337.521C197.536 339.073 197.084 340.429 198.472 341.885C198.615 342.035 198.61 342.272 198.46 342.415C198.31 342.558 198.072 342.553 197.93 342.403C196.903 341.327 196.693 340.165 197.147 339.002C197.461 338.2 198.006 337.527 198.802 336.779Z" fill="#E7EAEE"/>
<path fill-rule="evenodd" clip-rule="evenodd" d="M184.369 336.288C185.229 337.934 189.799 337.258 189.004 332.707C188.628 330.554 181.985 331.731 184.369 336.288Z" fill="#E7EAEE"/>
<path fill-rule="evenodd" clip-rule="evenodd" d="M272.715 263.4C278.754 256.499 282.225 240.977 287.199 235.637C288.954 233.752 291.231 233.328 288.78 237.791C284.296 245.957 275.677 263.4 275.677 263.4C275.221 263.628 274.657 263.4 274.147 263.4H272.715Z" fill="#E7EAEE"/>
<path d="M173.183 239.891C178.698 241.342 181.528 244.797 183.918 248.014C186.313 251.231 181.048 249.701 178.143 248.539C175.238 247.378 169.681 242.971 169.681 242.971L173.183 239.891Z" fill="white"/>
<path d="M122.947 226.827C122.947 226.827 153.992 240.164 158.367 240.181C162.737 240.199 173.462 245.407 174.042 249.471C174.747 254.416 156.042 247.149 156.042 247.149C156.042 247.149 114.237 247.149 107.272 240.181C100.302 233.214 104.947 218.698 104.947 218.698L122.947 226.827" fill="white"/>
<path d="M115.397 164.7C115.397 164.7 122.947 169.345 124.107 184.441C125.267 199.537 120.622 217.537 120.622 217.537C120.622 217.537 123.527 219.859 124.107 222.182C124.687 224.504 122.922 227.57 122.922 227.57C122.922 227.57 105.528 236.117 104.367 236.697C103.206 237.278 98.5605 235.536 98.5605 230.891C98.5605 226.246 100.303 222.182 100.303 222.182C101.136 191.539 96.238 161.797 115.397 164.7" fill="white"/>
<path fill-rule="evenodd" clip-rule="evenodd" d="M146.152 132.578C147.938 130.186 151.713 129.408 152.72 133.183C152.72 133.183 153.494 135.461 151.934 136.868C147.156 141.18 144.366 134.969 146.152 132.578Z" fill="white"/>
<path fill-rule="evenodd" clip-rule="evenodd" d="M156.125 135.172C157.822 132.9 161.408 132.16 162.365 135.747C162.365 135.747 163.1 137.911 161.618 139.248C157.078 143.344 154.428 137.443 156.125 135.172Z" fill="white"/>
<path d="M142.232 164.252C142.232 164.252 142.232 192.162 142.642 207.758C143.052 223.355 139.477 238.722 132.647 250.739C125.817 262.757 126.747 279.949 121.712 281.227C81.8896 291.334 92.6111 167.641 107.345 159.737C122.08 151.833 126.947 150.158 126.947 150.158" fill="white"/>
<path fill-rule="evenodd" clip-rule="evenodd" d="M121.809 172.083L118.377 177.207C118.093 177.632 118.308 178.211 118.801 178.347L123.38 179.614C123.912 179.761 124.416 179.302 124.318 178.758L123.17 172.368C123.051 171.704 122.185 171.523 121.809 172.083ZM122.555 172.872L123.58 178.891L119.598 177.207L122.555 172.872Z" fill="#FFB61D"/>
<path fill-rule="evenodd" clip-rule="evenodd" d="M110.767 167.078L106.723 173.57C106.465 173.985 106.666 174.532 107.131 174.681L114.192 176.945C114.78 177.133 115.332 176.57 115.13 175.986L112.113 167.23C111.907 166.633 111.101 166.542 110.767 167.078ZM111.727 167.87L113.793 175.986L107.67 173.57L111.727 167.87Z" fill="#FFB61D"/>
<path fill-rule="evenodd" clip-rule="evenodd" d="M108.276 216.193L111.027 226.532C111.196 227.167 112.042 227.293 112.389 226.734L116.479 220.139C116.706 219.773 116.579 219.292 116.202 219.086L109.36 215.342C108.782 215.026 108.106 215.556 108.276 216.193ZM109 216.5L115.341 219.744L111.751 226.339L109 216.5Z" fill="#FFB61D"/>
<path fill-rule="evenodd" clip-rule="evenodd" d="M102.767 254.156L104.267 261.242C104.404 261.893 105.257 262.056 105.625 261.502L109.677 255.405C109.976 254.955 109.716 254.346 109.184 254.252L103.632 253.262C103.108 253.169 102.657 253.635 102.767 254.156ZM104.075 254.044L108.887 255.75L104.735 260.491L104.075 254.044Z" fill="#FFB61D"/>
<path fill-rule="evenodd" clip-rule="evenodd" d="M115.767 252.656L117.267 259.742C117.404 260.393 118.257 260.556 118.625 260.002L122.677 253.905C122.976 253.455 122.716 252.846 122.184 252.752L116.632 251.762C116.108 251.669 115.657 252.135 115.767 252.656ZM116.461 253.272L122.063 253.117L117.453 259.041L116.461 253.272Z" fill="#FFB61D"/>
<path fill-rule="evenodd" clip-rule="evenodd" d="M108.767 238.156L110.267 245.242C110.404 245.893 111.257 246.056 111.625 245.502L115.677 239.405C115.976 238.955 115.716 238.346 115.184 238.252L109.632 237.262C109.108 237.169 108.657 237.635 108.767 238.156ZM109.5 238L114.553 239.49L110.5 244.587L109.5 238Z" fill="#FFB61D"/>
<path fill-rule="evenodd" clip-rule="evenodd" d="M274.795 261.088C274.418 261.824 273.8 262.131 272.975 262.177C270.04 262.34 267.712 261.045 265.635 259.158C264.848 258.442 264.15 257.629 263.361 256.915C262.806 256.413 262.211 256.087 261.345 256.397C260.682 256.635 259.904 256.545 259.179 256.619C257.544 256.786 255.913 257.004 254.274 257.123C253.229 257.199 253.204 258.09 252.959 258.705C252.404 260.095 251.99 261.543 251.549 262.977C251.377 263.534 251.105 263.754 250.48 263.747C247.356 263.708 244.232 263.712 241.109 263.737C239.687 263.749 238.263 263.919 236.843 263.887C234.171 263.826 231.496 263.741 228.832 263.536C226.255 263.338 223.691 262.967 221.12 262.692C219.314 262.499 217.497 262.398 215.698 262.153C213.606 261.869 211.533 261.456 209.445 261.135C208.401 260.975 207.34 260.927 206.294 260.773C204.501 260.509 202.709 260.235 200.928 259.903C199.275 259.595 197.72 259.915 196.164 260.428C193.136 261.428 190.099 262.405 187.061 263.377C186.521 263.55 186.361 263.692 186.605 264.348C187.5 266.756 188.338 269.19 189.067 271.653C189.581 273.391 189.936 275.182 190.266 276.966C190.67 279.154 191.009 281.355 191.31 283.559C191.54 285.243 191.686 286.939 191.837 288.633C192.029 290.785 192.211 292.939 192.356 295.095C192.5 297.243 192.622 299.392 192.703 301.543C192.842 305.194 192.945 308.847 193.055 312.5C193.121 314.712 193.163 316.924 193.236 319.135C193.257 319.778 193.463 320.436 193.365 321.052C193.291 321.517 192.961 322.167 192.582 322.314C191.606 322.69 191.324 323.416 191.332 324.416C191.343 325.693 191.504 326.972 191.47 328.246C191.449 329.058 191.76 329.625 192.35 330.056C195.034 332.014 197.744 333.935 200.426 335.894C201.699 336.824 202.955 337.781 204.175 338.779C205.481 339.848 206.762 340.951 208.008 342.09C209.249 343.225 209.91 344.613 210.119 346.344C210.281 347.687 210.109 348.934 209.885 350.211C209.769 350.876 209.389 351.148 208.698 350.922C205.793 349.974 202.893 349.008 199.974 348.105C195.152 346.613 190.317 345.163 185.488 343.697C183.766 343.175 182.045 342.653 180.321 342.137C179.265 341.821 179.042 340.874 178.846 340.017C178.289 337.579 179.009 335.361 180.294 333.317C181.081 332.067 181.998 330.897 182.858 329.693C183.56 328.709 183.379 327.702 183.031 326.637C181.899 323.172 180.786 319.7 179.716 316.215C178.659 312.775 177.612 309.33 176.655 305.862C175.643 302.196 174.725 298.504 173.8 294.815C173.299 292.818 172.827 290.813 172.422 288.796C172.119 287.287 171.947 285.752 171.709 284.231C171.425 282.413 171.254 280.564 170.786 278.794C170.584 278.032 169.845 277.336 169.201 276.784C167.797 275.582 166.185 274.686 164.433 274.074C164 273.923 163.531 273.818 163.075 273.801C160.901 273.719 158.726 273.698 156.553 273.61C154.43 273.525 152.309 273.407 150.189 273.264C148.003 273.117 145.819 272.941 143.637 272.745C141.302 272.535 138.958 272.368 136.639 272.033C134.181 271.678 131.745 271.162 129.306 270.685C128.513 270.53 127.933 271.012 127.81 272.13C127.541 274.576 126.71 276.848 125.723 279.073C125.012 280.678 123.669 281.48 122.012 281.754C120.829 281.95 119.618 282.136 118.428 282.091C115.043 281.963 112.023 280.846 109.337 278.699C105.931 275.975 103.938 272.336 102.241 268.456C101.48 266.718 100.502 265.059 99.9047 263.269C99.2564 261.326 98.9284 259.274 98.477 257.266C98.1257 255.704 97.7673 254.141 97.4718 252.567C97.2382 251.323 97.091 250.062 96.9134 248.807C96.6776 247.14 96.445 245.473 96.2207 243.804C96.1465 243.252 96.0732 242.697 96.05 242.141C95.9774 240.403 95.9417 238.662 95.868 236.923C95.7645 234.485 95.5714 232.048 95.5392 229.608C95.4841 225.436 95.4897 221.262 95.5397 217.09C95.5617 215.258 95.7167 213.424 95.8813 211.597C96.0684 209.521 96.3522 207.454 96.559 205.379C96.7067 203.898 96.7529 202.406 96.9227 200.928C97.1718 198.759 97.4451 196.591 97.7919 194.436C98.2044 191.873 98.6761 189.319 99.1748 186.771C100.118 181.95 101.216 177.158 103.014 172.577C104.159 169.659 105.354 166.682 107.691 164.479C108.703 163.525 110.109 162.975 111.366 162.298C114.817 160.441 118.285 158.617 121.737 156.761C121.899 156.675 122.037 156.422 122.063 156.23C122.155 155.565 122.114 154.873 122.278 154.23C122.384 153.811 122.678 153.351 123.025 153.098C124.19 152.249 125.41 151.474 126.624 150.695C126.841 150.556 127.149 150.434 127.388 150.473C128.668 150.679 129.31 149.891 129.749 148.922C130.344 147.609 130.886 146.267 131.347 144.902C132.11 142.641 132.881 140.375 133.458 138.064C133.658 137.267 133.351 136.316 133.171 135.457C132.804 133.71 132.501 131.93 131.911 130.255C131.534 129.184 130.771 128.212 130.041 127.308C128.156 124.972 127.166 122.354 127.483 119.356C127.621 118.054 128.179 116.84 129.153 115.894C130.299 114.781 131.474 113.698 132.624 112.588C133.462 111.779 133.402 111.161 132.311 110.37C130.783 109.263 129.319 108.067 127.857 106.872C126.609 105.852 126.073 104.394 125.742 102.9C125.292 100.866 125.238 98.8151 126.068 96.8306C127.394 93.6567 129.305 91.0373 132.804 90.0498C135.887 89.1794 138.963 89.2384 141.731 90.9863C144.245 92.5745 145.842 94.9402 146.545 97.86C147.369 101.286 146.431 104.37 144.699 107.303C144.554 107.549 144.539 107.871 144.464 108.158C144.721 108.207 144.977 108.287 145.236 108.299C148.567 108.451 151.877 108.82 154.86 110.408C158.776 112.492 161.238 115.794 162.324 120.092C162.487 120.736 162.486 121.428 162.507 122.099C162.579 124.387 162.586 126.678 162.721 128.963C162.749 129.439 163.114 130.025 163.504 130.33C165.376 131.796 166.013 135.386 164.272 137.512C164.098 137.724 163.95 137.958 163.778 138.174C163.11 139.015 162.14 139.424 161.174 139.252C160.351 139.106 160.282 139.383 160.01 139.99C159.43 141.285 158.736 142.539 157.987 143.747C156.983 145.366 155.958 146.984 154.798 148.491C154.097 149.401 153.15 150.133 152.263 150.885C151.186 151.796 150.048 152.635 148.951 153.524C148.405 153.967 147.805 154.196 147.106 154.095C146.382 153.991 145.974 154.398 145.762 154.985C145.352 156.118 144.982 157.268 144.659 158.428C144.591 158.673 144.735 159.03 144.883 159.273C146.175 161.401 147.459 163.535 148.81 165.625C149.906 167.322 151.152 168.924 152.213 170.641C152.869 171.703 153.304 172.902 153.835 174.041C154.762 176.028 155.708 178.006 156.594 180.011C156.776 180.424 156.826 180.952 156.762 181.402C156.67 182.058 156.023 182.267 155.322 181.844C154.508 181.352 153.741 180.778 152.979 180.206C152.507 179.851 152.082 179.434 151.634 179.048C151.582 179.004 151.512 178.98 151.451 178.946C151.441 179.024 151.414 179.105 151.424 179.18C151.55 180.062 151.651 180.949 151.819 181.823C151.993 182.725 152.259 183.61 152.442 184.511C152.806 186.301 153.158 188.093 153.484 189.89C153.85 191.911 154.203 193.935 154.521 195.964C154.685 197.007 154.74 198.067 154.881 199.114C155.094 200.698 155.362 202.274 155.562 203.859C155.671 204.725 155.694 205.602 155.742 206.474C155.808 207.664 155.851 208.855 155.92 210.045C156.088 212.98 156.258 215.915 156.443 218.849C156.489 219.576 156.917 220.136 157.572 220.344C159.435 220.935 160.737 223.111 160.424 224.926C160.351 225.348 160.257 225.785 160.071 226.166C159.626 227.079 160.207 227.597 160.785 228.072C161.723 228.844 162.702 229.568 163.682 230.287C166.009 231.992 168.352 233.676 170.68 235.382C172.788 236.927 175.114 238.001 177.61 238.762C179.614 239.374 181.319 240.532 182.921 241.868C183.708 242.524 184.389 243.495 185.635 243.256C187.4 242.916 189.159 242.549 190.918 242.186C191.449 242.077 191.969 241.917 192.502 241.825C194.359 241.505 195.455 240.192 196.548 238.833C197.361 237.822 198.267 236.887 199.113 235.901C200.777 233.963 202.424 232.009 204.087 230.07C204.914 229.107 205.765 228.164 206.6 227.207C208.953 224.511 211.293 221.802 213.661 219.118C214.902 217.712 216.195 216.351 217.458 214.963C217.798 214.59 218.162 214.226 218.43 213.803C218.839 213.162 219.257 212.965 220.055 213.223C221.802 213.789 221.771 213.681 220.549 215.021C218.362 217.42 216.248 219.885 214.094 222.315C213.042 223.503 211.954 224.66 210.909 225.856C209.077 227.953 207.272 230.075 205.443 232.176C204.145 233.667 202.831 235.145 201.518 236.622C200.501 237.765 199.47 238.896 198.457 240.042C198.369 240.142 198.299 240.419 198.33 240.439C198.578 240.594 198.857 240.823 199.118 240.813C201.24 240.73 203.36 240.568 205.482 240.495C207.071 240.441 208.665 240.441 210.254 240.496C212.29 240.566 214.329 240.654 216.356 240.848C218.615 241.065 220.861 241.413 223.113 241.698C225.422 241.991 227.739 242.232 230.04 242.579C232.34 242.926 234.621 243.394 236.915 243.775C238.815 244.091 240.729 244.326 242.627 244.656C245.047 245.078 247.455 245.567 249.872 246.011C251.568 246.323 253.272 246.595 254.969 246.906C256.604 247.207 258.232 247.556 259.869 247.847C260.901 248.03 261.942 248.215 262.985 248.258C263.423 248.276 263.979 248.038 264.304 247.729C266.785 245.37 269.189 242.929 271.681 240.581C274.47 237.953 277.386 235.472 280.53 233.267C281.969 232.258 283.58 232.434 285.147 232.57C286.061 232.649 286.944 233.089 287.839 233.374C288.574 233.607 288.639 234.061 288.313 234.701C286.829 237.613 285.372 240.538 283.888 243.449C282.605 245.966 281.299 248.47 279.959 251.023C278.21 254.407 276.505 257.749 274.795 261.088ZM137.503 239.616C138.283 237.361 138.967 235.068 139.582 232.762C139.982 231.264 140.208 229.717 140.465 228.184C140.729 226.608 140.949 225.026 141.163 223.443C141.41 221.604 141.796 219.764 141.826 217.921C141.886 214.218 141.732 210.512 141.692 206.807C141.667 204.543 141.654 202.278 141.698 200.015C141.733 198.234 140.697 196.907 139.942 195.447C139.439 194.475 138.908 193.494 138.587 192.456C137.998 190.552 137.52 188.612 137.063 186.67C136.751 185.343 136.521 183.993 136.316 182.644C136.079 181.083 135.565 179.617 134.899 178.201C134.843 178.082 134.375 177.995 134.325 178.063C134.056 178.422 133.856 178.833 133.639 179.231C133.253 179.938 132.667 180.611 132.533 181.363C132.265 182.868 131.572 184.158 130.863 185.449C130.422 186.253 129.679 186.273 129.163 185.536C128.608 184.744 128.009 183.944 127.656 183.057C126.823 180.973 126.078 178.85 125.386 176.714C124.475 173.907 123.616 171.083 122.799 168.248C122.372 166.767 121.947 165.264 121.768 163.742C121.592 162.25 121.731 160.721 121.726 159.208C121.726 159.073 121.685 158.937 121.662 158.802C121.601 158.85 121.545 158.908 121.477 158.945C119.892 159.817 118.316 160.708 116.715 161.552C115.128 162.389 113.532 163.215 111.908 163.976C110.128 164.811 108.341 165.672 107.31 167.42C106.195 169.311 104.891 171.114 104.219 173.246C103.526 175.444 102.743 177.617 102.14 179.839C101.523 182.112 101.103 184.438 100.547 186.728C100.192 188.191 99.6074 189.61 99.3744 191.088C99.0191 193.343 98.7994 195.627 98.6721 197.907C98.5628 199.864 98.5711 201.826 98.307 203.776C98.1019 205.289 97.9626 206.812 97.7779 208.328C97.4967 210.637 96.9914 212.941 96.9552 215.253C96.8752 220.372 97.086 225.494 97.0622 230.615C97.0497 233.298 97.4499 235.922 97.7659 238.566C98.1168 241.503 98.3247 244.456 98.6596 247.395C98.8872 249.392 99.1148 251.401 99.5408 253.361C100.234 256.553 100.979 259.742 101.905 262.873C103.061 266.778 104.757 270.457 107.146 273.794C108.638 275.88 110.46 277.588 112.71 278.816C115.759 280.48 119.029 280.336 122.306 279.828C122.843 279.745 123.538 279.331 123.769 278.874C124.413 277.591 124.977 276.238 125.344 274.852C125.866 272.883 126.096 270.837 126.608 268.865C127.452 265.612 128.514 262.415 129.31 259.152C129.965 256.465 131.213 254.04 132.298 251.541C133.096 249.702 134.04 247.926 135.006 246.036C135.844 243.898 136.753 241.785 137.503 239.616ZM166.286 272.815C167.864 273.779 169.411 274.802 170.913 275.882C171.85 276.556 172.524 277.536 172.729 278.668C173.205 281.291 173.52 283.943 173.981 286.57C174.304 288.413 174.767 290.231 175.151 292.064C175.464 293.556 175.752 295.053 176.049 296.549C176.34 298.018 176.623 299.489 176.918 300.958C177.143 302.078 177.375 303.196 177.612 304.313C177.995 306.119 178.3 307.947 178.794 309.722C179.282 311.471 180.015 313.15 180.55 314.887C181.44 317.778 182.545 320.577 183.825 323.317C184.128 323.967 184.638 323.836 184.941 323.718C186.855 322.968 188.744 322.15 190.621 321.308C191.213 321.042 191.527 320.527 191.5 319.823C191.426 317.911 191.375 315.998 191.322 314.085C191.26 311.797 191.206 309.509 191.147 307.221C191.09 304.98 191.078 302.737 190.961 300.5C190.847 298.314 190.633 296.134 190.452 293.952C190.227 291.233 190.017 288.513 189.75 285.799C189.566 283.925 189.397 282.04 189.043 280.194C188.429 276.997 187.675 273.828 186.983 270.646C186.176 266.939 184.618 263.709 181.537 261.282C179.19 259.434 176.728 257.784 174.067 256.465C171.122 255.007 168.145 253.587 165.089 252.388C161.595 251.018 158.202 249.286 154.355 248.971C152.507 248.819 150.673 248.495 148.828 248.299C147.348 248.142 145.855 248.097 144.376 247.935C142.034 247.679 139.701 247.338 137.358 247.108C137.029 247.076 136.534 247.385 136.332 247.682C135.869 248.365 135.52 249.13 135.159 249.878C134.029 252.213 132.706 254.482 131.847 256.914C130.711 260.127 129.94 263.47 129.02 266.759C128.498 268.622 128.487 268.705 130.111 269.046C131.991 269.44 133.9 269.701 135.805 269.963C137.051 270.135 138.313 270.182 139.563 270.326C141.932 270.598 144.295 270.923 146.665 271.179C148.174 271.342 149.69 271.44 151.206 271.53C153.47 271.665 155.735 271.791 158.002 271.873C159.359 271.922 160.72 271.882 162.252 271.882C163.675 271.856 165.066 272.068 166.286 272.815ZM234.302 261.993C235.762 262.061 237.222 262.132 238.683 262.163C242.071 262.235 245.459 262.293 248.847 262.334C249.524 262.342 250.133 262.062 250.315 261.366C251.297 257.618 253.227 254.143 253.475 250.178C253.538 249.173 253.102 248.463 252.076 248.283C251.005 248.096 249.948 247.833 248.879 247.629C247.536 247.373 246.187 247.149 244.843 246.902C243.635 246.68 242.429 246.449 241.223 246.216C240.341 246.045 239.462 245.857 238.579 245.69C236.889 245.371 235.197 245.058 233.505 244.748C232.348 244.536 231.192 244.319 230.031 244.132C229.13 243.988 228.222 243.897 227.319 243.765C225.412 243.487 223.506 243.199 221.6 242.913C220.512 242.75 219.425 242.571 218.334 242.424C216.879 242.227 215.42 241.896 213.965 241.904C210.311 241.925 206.658 242.085 203.005 242.228C201.259 242.296 199.509 242.393 197.773 242.589C196.802 242.699 195.867 243.006 195.163 243.825C194.015 245.158 192.782 246.418 191.623 247.742C190.89 248.578 190.205 249.457 189.535 250.345C188.65 251.519 187.57 252.232 186.026 252.113C183.498 251.917 180.965 251.774 178.436 251.58C177.497 251.508 176.563 251.367 175.63 251.237C174.048 251.016 172.47 250.758 170.886 250.551C169.37 250.353 167.851 250.188 166.33 250.032C165.901 249.988 165.463 250.012 165.031 250.036C164.944 250.041 164.866 250.188 164.784 250.27C164.873 250.311 164.963 250.348 165.049 250.393C165.81 250.79 166.55 251.232 167.334 251.578C169.631 252.593 171.999 253.46 174.239 254.586C177.49 256.221 180.524 258.218 183.283 260.619C184.138 261.363 184.959 261.916 186.362 261.729C188.585 261.433 190.663 260.885 192.659 259.914C195.344 258.607 198.077 257.535 201.165 258.176C202.951 258.546 204.748 258.871 206.532 259.253C207.662 259.495 208.765 259.895 209.903 260.064C211.316 260.273 212.754 260.311 214.18 260.435C216.774 260.661 219.366 260.9 221.96 261.126C223.721 261.278 225.483 261.416 227.332 261.648C229.655 261.763 231.978 261.884 234.302 261.993ZM143.935 211.878C143.961 212.571 143.933 213.266 143.945 213.959C143.999 217.202 144.05 220.445 144.122 223.687C144.143 224.627 144.102 225.598 144.318 226.5C144.754 228.326 145.326 230.122 145.884 231.918C146.123 232.687 146.455 233.419 147.324 233.723C148.08 233.988 148.813 234.321 149.57 234.581C150.695 234.967 151.039 234.821 151.773 233.793C152.015 233.453 152.295 233.138 152.567 232.82C154.324 230.772 156.134 228.766 157.826 226.665C159.074 225.115 158.858 222.62 156.767 221.82C156.542 221.734 156.319 221.63 156.086 221.582C154.85 221.326 154.907 221.329 154.866 220.162C154.719 215.99 155.209 211.807 154.553 207.64C154.292 205.977 154.399 204.257 154.159 202.588C153.785 199.992 153.267 197.416 152.791 194.835C152.342 192.394 151.891 189.952 151.398 187.52C151.031 185.704 150.589 183.904 150.193 182.094C149.891 180.714 149.654 179.317 149.289 177.954C149.191 177.586 148.734 177.313 148.441 176.996C148.099 177.327 147.499 177.628 147.457 177.993C147.248 179.842 146.962 181.727 147.125 183.563C147.312 185.67 147.628 187.76 147.225 189.853C146.767 192.238 146.004 194.528 144.712 196.614C143.996 197.771 143.46 198.971 143.582 200.402C143.703 201.818 143.742 203.243 143.762 204.665C143.791 206.688 143.77 208.712 143.77 210.909C143.827 211.232 143.923 211.554 143.935 211.878ZM134.836 140.225C134.69 140.452 134.488 140.659 134.407 140.906C133.583 143.429 132.83 145.975 131.949 148.477C131.419 149.984 130.586 151.329 129.208 152.277C128.208 152.965 127.275 153.75 126.296 154.47C125.813 154.826 125.915 155.133 126.216 155.565C127.117 156.856 128.069 158.125 128.821 159.502C129.859 161.401 130.748 163.384 131.672 165.344C132.571 167.254 133.511 169.151 134.291 171.111C134.953 172.775 135.309 174.563 135.99 176.218C136.606 177.714 137.267 179.19 137.49 180.792C137.566 181.337 137.743 181.342 138.155 181.34C140.637 181.331 143.034 181.003 145.126 179.526C145.305 179.4 145.456 179.14 145.49 178.922C145.572 178.395 145.558 177.854 145.62 177.322C145.664 176.948 145.908 176.542 145.82 176.216C145.494 175.001 145.061 173.816 144.681 172.615C143.957 170.321 143.007 168.051 142.942 165.631C142.876 163.169 143.098 160.695 143.266 158.232C143.335 157.227 143.532 156.218 143.786 155.242C144.084 154.096 144.014 153.782 142.979 153.223C141.278 152.304 139.811 151.067 138.762 149.472C137.05 146.869 135.735 144.067 135.266 140.829C135.123 140.628 134.979 140.427 134.836 140.225ZM159.523 139.457C159.57 139.364 159.991 139.072 159.365 138.966C158.732 138.86 158.018 138.553 157.583 138.1C156.731 137.211 156.026 136.176 155.31 135.166C155.107 134.881 155.036 134.707 154.751 135.05C154.57 135.267 154.335 135.44 154.155 135.658C152.589 137.548 150.337 138.351 148.229 137.826C145.702 137.196 144.161 134.502 144.127 132.164C144.113 131.232 143.818 130.451 143.074 129.915C141.835 129.023 140.561 128.179 139.288 127.336C138.575 126.864 137.896 127.018 137.712 127.762C137.257 129.605 136.69 131.452 136.531 133.328C136.334 135.649 136.427 137.992 136.982 140.308C137.915 144.209 139.127 147.917 142.311 150.667C144.364 152.439 146.9 152.838 149.344 151.765C151.766 150.702 153.255 148.735 154.703 146.688C155.92 144.968 157.133 143.245 158.434 141.436C158.802 140.779 159.184 140.129 159.523 139.457ZM264.428 255.338C266.111 257.48 268.069 259.267 270.748 260.132C272.402 260.666 273.008 260.572 273.924 258.827C275.792 255.266 277.638 251.694 279.479 248.119C280.214 246.691 280.894 245.235 281.631 243.808C283.069 241.02 284.527 238.242 285.985 235.464C286.251 234.957 285.998 234.498 285.606 234.446C284.246 234.265 282.809 233.876 281.546 234.716C279.879 235.825 278.202 236.94 276.669 238.219C274.344 240.16 272.105 242.208 269.9 244.285C268.899 245.227 268.054 246.337 267.165 247.394C266.463 248.228 265.561 248.931 265.294 250.071C265.047 251.125 264.803 252.18 264.558 253.408C264.269 254.037 263.947 254.725 264.428 255.338ZM207.111 348.438C207.508 348.469 208.272 348.289 208.276 348.182C208.327 346.689 208.61 345.106 207.27 343.941C205.528 342.425 203.841 340.84 202.024 339.42C199.094 337.129 196.078 334.947 193.096 332.722C192.03 331.927 190.971 331.082 189.615 330.875C188.401 330.689 187.163 330.665 185.945 330.502C184.918 330.365 184.219 330.81 183.595 331.55C182.082 333.344 180.981 335.337 180.565 337.666C180.239 339.492 180.826 340.497 182.3 340.931C185.105 341.757 187.891 342.651 190.691 343.495C192.697 344.101 194.722 344.646 196.725 345.264C199.645 346.165 202.552 347.108 205.639 348.033C206.129 348.176 206.613 348.398 207.111 348.438ZM148.195 235.971C146.257 235.204 144.331 234.407 142.389 233.652C141.816 233.429 141.327 233.363 141.138 234.247C140.933 235.207 140.495 236.115 140.178 237.052C139.476 239.132 138.77 241.211 138.105 243.303C137.983 243.689 137.796 244.232 138.559 244.306C139.554 244.402 140.543 244.568 141.539 244.64C143.485 244.782 145.432 244.921 147.381 244.985C150.276 245.081 153.174 245.115 156.07 245.166C156.995 245.182 157.921 245.165 158.846 245.17C159.071 245.172 159.31 245.155 159.519 245.221C162.027 246.005 164.526 246.817 167.036 247.593C169.561 248.374 172.091 249.14 174.788 248.99C175.725 248.938 175.896 248.762 175.552 247.9C175.364 247.43 175.103 246.951 174.757 246.588C173.067 244.818 171.005 243.582 168.798 242.565C167.039 241.755 165.321 240.852 163.343 240.649C162.417 240.553 161.484 240.42 160.585 240.187C159.157 239.818 157.74 239.389 156.344 238.914C154.598 238.319 152.877 237.652 150.972 237.016C150.046 236.668 149.114 236.335 148.195 235.971ZM126.407 159.394C125.595 158.136 124.741 156.905 123.901 155.664C123.785 155.491 123.657 155.326 123.535 155.157C123.454 155.441 123.34 155.72 123.298 156.01C123.159 156.968 123.081 157.936 122.916 158.889C122.591 160.775 122.413 162.628 123.636 164.305C123.714 164.411 123.774 164.538 123.809 164.665C124.259 166.299 124.7 167.936 125.149 169.57C125.262 169.984 125.381 170.398 125.517 170.804C126.101 172.555 126.81 174.274 127.251 176.06C127.703 177.894 128.05 179.738 128.99 181.413C129.26 181.895 129.348 182.476 129.547 183.001C129.607 183.157 129.803 183.409 129.865 183.39C130.064 183.328 130.325 183.197 130.392 183.025C131.168 181.032 131.542 178.855 133.015 177.181C134.266 175.759 134.006 174.306 133.239 172.789C132.939 172.195 132.754 171.546 132.486 170.935C131.907 169.614 131.353 168.28 130.706 166.994C130.14 165.87 129.455 164.806 128.832 163.71C128.394 162.94 127.972 162.16 127.457 161.298C127.109 160.661 126.799 160.001 126.407 159.394ZM173.283 239.005C170.749 237.368 168.179 235.777 165.723 234.028C163.667 232.563 161.761 230.889 159.762 229.341C159.223 228.923 158.604 228.784 158.053 229.414C157.16 230.434 156.25 231.44 155.358 232.461C154.694 233.222 154.056 234.006 153.391 234.766C152.871 235.359 152.926 235.678 153.687 235.905C156.132 236.637 158.596 237.309 161.034 238.064C164.362 239.094 167.686 240.141 170.984 241.263C172.039 241.622 172.969 242.346 174.023 242.71C175.094 243.08 176.238 243.273 177.365 243.43C178.668 243.611 179.987 243.684 181.302 243.766C181.511 243.779 181.733 243.591 181.95 243.497C181.821 243.318 181.724 243.102 181.56 242.968C179.476 241.263 176.988 240.382 174.4 239.444C174.026 239.301 173.612 239.218 173.283 239.005ZM140.283 193.315C140.605 194.537 141.371 195.132 142.549 195.242C143.567 195.338 143.866 194.78 144.115 194.036C144.47 192.97 144.822 191.904 145.156 190.832C145.897 188.45 145.791 186.05 145.347 183.629C145.202 182.839 145.236 182.017 145.2 181.209C145.195 181.091 145.255 180.971 145.284 180.852C145.165 180.887 145.042 180.911 144.928 180.958C144.213 181.254 143.525 181.663 142.782 181.83C141.391 182.143 139.972 182.349 138.556 182.53C138.009 182.6 137.685 182.657 137.859 183.326C138.023 183.958 138.088 184.615 138.219 185.257C138.5 186.639 138.795 188.019 139.084 189.573C139.489 190.819 139.949 192.05 140.283 193.315ZM155.113 180.266C155.248 180.38 155.398 180.477 155.541 180.581C155.54 180.388 155.594 180.173 155.53 180.003C155.154 179.004 154.803 177.99 154.345 177.029C153.366 174.976 152.466 172.866 151.272 170.942C150.097 169.051 148.516 167.417 147.268 165.566C146.374 164.239 145.742 162.737 144.978 161.322C144.861 161.104 144.667 160.927 144.509 160.732C144.436 160.962 144.295 161.193 144.301 161.421C144.337 162.9 144.357 164.382 144.481 165.854C144.565 166.859 144.735 167.871 145.005 168.841C145.304 169.918 145.848 170.929 146.128 172.009C146.456 173.274 147.056 174.074 148.281 174.749C150.311 175.869 152.407 177.033 153.835 179.164C154.261 179.532 154.684 179.902 155.113 180.266ZM146.074 131.25C145.408 132.221 146.643 135.62 147.315 135.873C152.018 137.643 153.359 134.614 153.421 133.782C153.543 132.132 153.747 130.458 152.187 129.12C148.07 128.301 147.151 129.682 146.074 131.25ZM164.083 132.625C163.45 131.05 162.494 130.023 160.828 130.382C159.978 130.566 159.23 131.239 158.448 131.712C156.768 132.728 156.548 133.284 157.136 135.085C157.723 136.887 159.094 137.92 160.837 138.27C162.281 138.561 163.312 137.665 164.074 136.319C164.267 135.088 164.583 133.871 164.083 132.625ZM157.855 130.589C158.533 130.106 159.267 129.392 159.999 129.366C161.264 129.32 161.059 128.547 160.922 127.939C160.541 126.238 160.043 124.563 159.556 122.887C159.223 121.74 158.941 121.674 158.134 122.482C156.75 123.866 155.348 125.223 153.609 126.178C153.065 126.477 152.991 127.166 153.379 127.708C153.524 127.91 153.72 128.083 153.829 128.301C154.364 129.376 154.848 130.477 155.419 131.531C155.545 131.765 155.449 132.589 156.265 131.982C156.792 131.513 157.283 130.995 157.855 130.589ZM259.981 255.026C261.162 254.807 262.427 254.504 262.609 252.933C262.64 252.67 262.76 252.418 262.82 252.156C263.193 250.532 262.771 250.012 261.145 249.837C259.615 249.673 258.095 249.399 256.574 249.154C255.761 249.023 255.611 249.175 255.521 250.003C255.396 251.15 255.217 252.294 255.003 253.428C254.815 254.422 255.093 255.208 255.967 255.403C257.307 255.287 258.665 255.271 259.981 255.026ZM189.113 328.926C189.278 328.919 189.558 328.592 189.565 328.404C189.605 327.164 189.576 325.921 189.59 324.679C189.597 323.981 189.063 323.958 188.679 324.08C187.843 324.347 187.049 324.743 186.242 325.098C185.66 325.355 185.005 325.562 185.075 326.402C185.125 326.995 185.125 327.603 185.262 328.176C185.489 329.129 186.311 328.676 186.982 328.866C187.693 328.894 188.405 328.958 189.113 328.926ZM142.889 228.019C142.839 227.878 142.634 227.792 142.5 227.68C142.402 227.819 142.233 227.952 142.22 228.099C142.138 228.991 142.068 229.886 142.041 230.781C142.014 231.655 142.633 232.222 143.523 232.141C143.673 232.128 143.941 231.862 143.921 231.756C143.79 231.045 143.596 230.346 143.336 229.556C143.191 229.043 143.067 228.522 142.889 228.019ZM191.784 244.407C191.881 244.216 192.083 243.685 191.494 243.795C190.596 243.963 189.714 244.218 188.831 244.459C188.67 244.503 188.538 244.654 188.392 244.756C188.561 244.836 188.727 244.978 188.899 244.984C189.619 245.01 190.34 244.995 191.148 244.908C191.368 244.745 191.674 244.625 191.784 244.407ZM124.766 153.405C124.628 153.485 124.49 153.566 124.351 153.646C124.46 153.768 124.549 153.936 124.685 153.993C124.766 154.027 124.944 153.91 125.038 153.819C125.572 153.302 126.097 152.774 126.618 152.244C126.722 152.138 126.798 152.003 126.887 151.882C126.712 151.916 126.491 151.895 126.368 151.994C125.848 152.416 125.356 152.874 124.766 153.405Z" fill="#00160A"/>
<path fill-rule="evenodd" clip-rule="evenodd" d="M143.363 143.3C142.55 142.861 141.746 142.5 141.577 141.521C141.248 139.617 141.934 137.375 144.415 137.505C146.651 137.623 148.07 139.48 147.279 141.578C146.695 143.125 145.28 143.892 143.363 143.3Z" fill="#FFB61D"/>
<path fill-rule="evenodd" clip-rule="evenodd" d="M154.392 136.2C154.436 135.909 154.481 135.704 154.526 135.5C154.596 135.678 154.686 135.851 154.733 136.035C155.082 137.4 156.188 140.799 154.871 142.364C154.762 142.494 154.206 142.514 153.86 142.492C153.18 142.449 152.387 141.446 152.513 140.799C152.532 140.702 154.174 142.295 154.526 141.433C155.113 139.996 154.392 136.695 154.392 136.2Z" fill="#00160A"/>
<path fill-rule="evenodd" clip-rule="evenodd" d="M145.134 146.161C145.066 146.126 144.971 146.136 144.889 146.139C144.687 146.147 144.41 145.785 144.528 145.632C144.706 145.402 144.907 145.169 145.147 145.017C145.29 144.927 145.527 145.22 145.509 145.349C145.495 145.446 145.587 145.598 145.677 145.663C147.035 146.662 148.544 147.308 150.195 147.619C150.304 147.64 150.399 147.737 150.5 147.799C150.399 147.869 150.298 148.006 150.196 148C148.396 147.895 146.314 146.759 145.134 146.161Z" fill="#00160A"/>
<path fill-rule="evenodd" clip-rule="evenodd" d="M101.261 224.329L99.5507 231.635C99.4185 232.199 99.9501 232.694 100.504 232.522L106.442 230.673C106.941 230.517 107.132 229.911 106.812 229.497L102.584 224.041C102.198 223.542 101.405 223.715 101.261 224.329ZM101.991 225.5L105.718 229.956L100.28 231.805L101.991 225.5Z" fill="#FFB61D"/>
<path fill-rule="evenodd" clip-rule="evenodd" d="M106.567 182.182C105.942 182.126 105.528 182.817 105.873 183.341L110.223 189.954C110.516 190.4 111.168 190.406 111.469 189.965L115.473 184.102C115.796 183.629 115.491 182.983 114.921 182.932L106.567 182.182ZM107.155 182.932L114.635 184.385L110.223 189.002L107.155 182.932Z" fill="#FFB61D"/>
<path fill-rule="evenodd" clip-rule="evenodd" d="M134.136 232.75H128.001C127.492 232.75 127.131 233.246 127.287 233.73L129.348 240.136C129.542 240.74 130.353 240.844 130.694 240.308L134.769 233.903C135.086 233.403 134.728 232.75 134.136 232.75ZM133.636 234L130.562 239.906L128.501 233.5L133.636 234Z" fill="#FFB61D"/>
<path fill-rule="evenodd" clip-rule="evenodd" d="M114.031 267.463L113.751 273.016C113.722 273.598 114.338 273.99 114.853 273.716L121.986 269.916C122.591 269.594 122.483 268.697 121.82 268.527L114.966 266.774C114.507 266.656 114.055 266.989 114.031 267.463ZM114.574 267.993L121.13 268.903L114.853 272.613L114.574 267.993Z" fill="#FFB61D"/>
<path fill-rule="evenodd" clip-rule="evenodd" d="M104.573 199.254L99.0728 203.066C98.6073 203.388 98.6537 204.091 99.1575 204.349L105.594 207.654C106.132 207.93 106.759 207.488 106.68 206.889L105.744 199.772C105.67 199.216 105.034 198.934 104.573 199.254ZM104.794 200.578L105.936 206.987L99.5001 203.682L104.794 200.578Z" fill="#FFB61D"/>
<path fill-rule="evenodd" clip-rule="evenodd" d="M129.809 215.583L126.377 220.707C126.082 221.148 126.326 221.748 126.845 221.858L130.858 222.706C131.354 222.811 131.809 222.404 131.76 221.9L131.179 215.927C131.111 215.226 130.201 214.997 129.809 215.583ZM130.743 216.609V222.096L127.293 220.706L130.743 216.609Z" fill="#FFB61D"/>
<path fill-rule="evenodd" clip-rule="evenodd" d="M130.459 191.444C131.457 190.792 132.333 190.946 131.62 192.38C131.62 192.38 126.415 205.578 124.86 205.735C123.385 205.883 122.673 203.975 120.613 198.522L120.526 198.29C120.518 198.269 120.511 198.249 120.505 198.228L120.495 198.184L120.481 198.16L120.453 198.094L120.206 197.428C119.915 196.634 119.183 195.323 118.796 194.868C118.383 194.383 119.304 194.082 119.984 194.082C121.253 194.082 122.806 194.437 125.248 193.732C128.109 192.906 129.09 192.337 130.459 191.444ZM128.245 198.224L128.176 198.268C127.45 198.715 126.647 199.059 125.77 199.299C124.721 199.586 123.199 199.621 122.215 199.406L122.05 199.368L122.111 199.519C122.666 200.904 123.16 202.506 123.591 203.32L123.741 203.598C124.011 204.083 124.248 204.435 124.44 204.647L124.5 204.709L124.574 204.619C124.895 204.209 126.038 202.665 126.832 201.122L126.915 200.96C127.255 200.294 127.625 199.536 128.027 198.688L128.245 198.224ZM130.387 192.968L130.267 193.037C129.137 193.666 127.27 194.709 125.664 195.173C123.742 195.728 122.113 195.925 120.773 195.748L120.69 195.736L120.737 195.868C120.865 196.227 121.408 197.923 121.6 198.184C122.378 198.903 123.332 198.971 124.5 198.688L124.667 198.645C128.849 197.837 130.387 192.968 130.387 192.968Z" fill="#FFB61D"/>
<path fill-rule="evenodd" clip-rule="evenodd" d="M277.239 239.108C277.406 238.985 277.641 239.021 277.764 239.188C278.629 240.362 280.095 240.42 282.044 239.338C282.225 239.237 282.453 239.302 282.554 239.483C282.654 239.664 282.589 239.893 282.408 239.993C280.166 241.238 278.289 241.164 277.16 239.633C277.037 239.466 277.073 239.231 277.239 239.108Z" fill="#E7EAEE"/>
<path fill-rule="evenodd" clip-rule="evenodd" d="M274.405 242.112C274.558 241.973 274.795 241.984 274.935 242.137C276.248 243.582 277.993 243.664 279.412 242.906C279.595 242.809 279.822 242.878 279.919 243.06C280.017 243.243 279.948 243.47 279.765 243.568C278.07 244.473 275.954 244.373 274.38 242.642C274.24 242.489 274.252 242.252 274.405 242.112Z" fill="#E7EAEE"/>
<path fill-rule="evenodd" clip-rule="evenodd" d="M271.334 245.087C271.485 244.945 271.722 244.953 271.864 245.103C273.129 246.448 275.702 247.105 277.462 246.172C277.645 246.075 277.872 246.145 277.969 246.328C278.066 246.511 277.997 246.738 277.814 246.835C275.729 247.94 272.799 247.191 271.318 245.617C271.176 245.467 271.183 245.229 271.334 245.087Z" fill="#E7EAEE"/>
<path fill-rule="evenodd" clip-rule="evenodd" d="M273.718 256.848C276.351 255.574 273.629 250.854 271.081 252.765C269.448 253.99 271.239 258.047 273.718 256.848Z" fill="#E7EAEE"/>
</svg>
